<svg xmlns="http://www.w3.org/2000/svg" viewBox="0 0 512 512"  xmlns:v="https://vecta.io/nano"><style><![CDATA[.B{fill:#f5f5f5}.C{fill:#41479b}.D{fill:#ffe15a}.E{fill:#464655}.F{fill:#ff4b55}.G{fill:#ff6b71}.H{fill:#5f64b9}]]></style><path d="M503.17 423.72H8.83a8.83 8.83 0 0 1-8.828-8.828V97.102a8.83 8.83 0 0 1 8.828-8.828h494.34a8.83 8.83 0 0 1 8.828 8.828v317.79a8.83 8.83 0 0 1-8.829 8.828z" class="B"/><path d="M211.86 220.69H8.83a8.83 8.83 0 0 1-8.828-8.828V97.102a8.83 8.83 0 0 1 8.828-8.828h203.03a8.83 8.83 0 0 1 8.828 8.828v114.76a8.83 8.83 0 0 1-8.828 8.828zm291.31 203.03H300.14a8.83 8.83 0 0 1-8.828-8.828v-114.76a8.83 8.83 0 0 1 8.828-8.828h203.03a8.83 8.83 0 0 1 8.828 8.828v114.76a8.83 8.83 0 0 1-8.828 8.827z" class="C"/><path d="M503.17 220.69H300.14a8.83 8.83 0 0 1-8.828-8.828V97.102a8.83 8.83 0 0 1 8.828-8.828h203.03a8.83 8.83 0 0 1 8.828 8.828v114.76a8.83 8.83 0 0 1-8.828 8.828zM211.86 423.72H8.83a8.83 8.83 0 0 1-8.828-8.828v-114.76a8.83 8.83 0 0 1 8.828-8.828h203.03a8.83 8.83 0 0 1 8.828 8.828v114.76a8.83 8.83 0 0 1-8.828 8.827z" class="F"/><g fill="#64b496"><path d="M250.93 281.17s5.274 1.931 4.586 8.552l2.132-.04s-1.345-7.651-2.457-8.568-4.261.056-4.261.056z"/><path d="M256.22 280.15c-2.237 0-6.147-.003-10.259-1.113.917-.954 2.184-2.876 2.184-6.227 0-5.248-3.616-1.9-3.616-1.9s-2.378 2.001-.94 7.35c-1.402-.535-2.793-1.225-4.119-2.109.825-1.036 2.471-3.45 3.427-7.278 0 0-6.026-1.191-7.674 3.347-1.01-1.281-1.874-2.722-2.595-4.317 1.549.019 3.71-1.003 3.71-6.901 0 0-3.935.007-4.986 3.42-.414-1.427-.729-2.956-.961-4.572 1.571.456 5.633.783 5.633-8.032 0 0-4.877.009-6.006 4.329-.062-1.105-.086-2.247-.075-3.425 2.368-1.238 5.636-3.965 5.297-9.56 0 0-2.249.51-4.311 2.239.406-2.121.238-5.226-3.015-7.817 0 0-2.989 5.29 1.377 9.585a8.85 8.85 0 0 0-.984 1.817c-.981-1.494-2.554-2.883-5.088-3.727 0 0-1.166 7.085 5.449 10.049.157 4.138.804 7.794 1.916 10.973-1.895-1.669-3.428-3.967-3.428-3.967 0-7.872-6.453-8.071-6.453-8.071-1.205 8.985 5.439 9.348 5.439 9.348l3.638 3.97c-7.872-1.312-7.872 5.248-7.872 5.248 5.248 1.312 7.872-1.312 7.872-1.312l2.838 1.459c-5.034.147-6.774 5.101-6.774 5.101 6.327 1.055 10.953-.433 12.526-1.057 6.372 4.455 14.226 4.461 17.852 4.461v-1.311h-.002z"/><path d="M255.77 280.15c2.237 0 6.147-.003 10.259-1.113-.917-.954-2.184-2.876-2.184-6.227 0-5.248 3.616-1.9 3.616-1.9s2.378 2.001.94 7.35c1.402-.535 2.793-1.225 4.119-2.109-.825-1.036-2.471-3.45-3.427-7.278 0 0 6.026-1.191 7.674 3.347 1.01-1.281 1.874-2.722 2.595-4.317-1.549.019-3.71-1.003-3.71-6.901 0 0 3.935.007 4.988 3.42.414-1.427.729-2.956.961-4.572-1.571.456-5.633.783-5.633-8.032 0 0 4.877.009 6.006 4.329.062-1.105.086-2.247.075-3.425-2.368-1.238-5.636-3.965-5.297-9.56 0 0 2.249.51 4.311 2.239-.406-2.121-.238-5.226 3.015-7.817 0 0 2.989 5.29-1.377 9.585a8.85 8.85 0 0 1 .984 1.817c.981-1.494 2.554-2.883 5.088-3.727 0 0 1.166 7.085-5.449 10.049-.157 4.138-.804 7.794-1.916 10.973 1.895-1.669 3.428-3.967 3.428-3.967 0-7.872 6.453-8.071 6.453-8.071 1.205 8.985-5.439 9.348-5.439 9.348l-3.638 3.97c7.872-1.312 7.872 5.248 7.872 5.248-5.248 1.312-7.872-1.312-7.872-1.312l-2.838 1.459c5.034.147 6.774 5.101 6.774 5.101-6.327 1.055-10.953-.433-12.526-1.057-6.372 4.455-14.226 4.461-17.852 4.461v-1.311z"/></g><path d="M233.86 222.96c-4.614 2.957-8.681 6.722-11.958 11.167l4.224 3.115c2.892-3.923 6.481-7.245 10.551-9.856l-2.817-4.426z" class="C"/><path d="M256.01 257.07h18.367v10.496a5.25 5.25 0 0 1-5.248 5.248h-7.872c-2.156 0-4.052 1.054-5.248 2.66l.001-18.404z" class="G"/><path d="M259.95 245.26v-14.43h19.68l-5.25 5.25v14.43h-14.43z" class="H"/><path d="M267.82 250.5h6.56v6.56h-6.56z" class="B"/><path d="M256.01 257.07h-18.367v10.496a5.25 5.25 0 0 0 5.248 5.248h7.872c2.156 0 4.052 1.054 5.248 2.66l-.001-18.404z" class="G"/><path d="M252.74 273.13c1.309.418 2.439 1.233 3.25 2.307h.061a6.59 6.59 0 0 1 3.25-2.307v-10.813h-6.56l-.001 10.813z" class="B"/><path d="M252.08 245.26v-14.43H232.4l5.25 5.25v14.43h14.43z" class="H"/><path d="M237.65 250.5h6.56v6.56h-6.56z" class="B"/><path d="M244.21 237.39v3.93l3.93 2.63v-2.63z" class="C"/><path d="M248.14 241.32v3.94l5.25 2.62v-1.31z" class="B"/><path d="M267.82 237.39v3.93l-3.93 2.63v-2.63z" class="C"/><path d="M263.89 241.32v3.94l-5.25 2.62v-1.31z" class="B"/><path d="m263.93 266.25h-15.829c-3.598 0-6.515-2.937-6.515-6.56v-20.291l14.525 9.795 14.333-9.795v20.291c0 3.624-2.916 6.56-6.514 6.56z" class="F"/><path d="M246.83 242.64l-5.25-3.94v14.43l5.25 2.63zm18.37 0l5.25-3.94v14.43l-5.25 2.63zm-17.06 13.12h15.744v6.56H248.14z" class="C"/><path d="M248.14 243.95l7.87 3.93 7.88-3.93v11.81h-15.75z" class="F"/><g class="B"><path d="M261.92 245.19v13.192a1.97 1.97 0 0 1-1.967 1.967h-7.872a1.97 1.97 0 0 1-1.967-1.967v-13.138l-3.936-2.636v15.774a5.91 5.91 0 0 0 5.903 5.903h7.872a5.91 5.91 0 0 0 5.903-5.903v-15.863l-3.936 2.671z"/><path d="M263.29 254.35c-2.21.199-4.697.422-7.278 1.32-2.58-.898-5.068-1.121-7.278-1.32-3.698-.332-5.892-.655-7.148-2.886v3.787c1.929 1.254 4.372 1.484 6.913 1.713 2.281.205 4.639.416 7.049 1.329l.465.175.465-.175c2.409-.913 4.767-1.123 7.049-1.329 2.543-.228 4.99-.455 6.919-1.711v-3.798c-1.257 2.24-3.453 2.563-7.156 2.895z"/></g><path d="M258.64 241.98h-1.97v-1.97h-1.31v1.97h-1.97v1.31h1.97v5.91h1.31v-5.91h1.97z" class="D"/><path d="M243.082 236.746l.72-.72 11.529 11.529-.72.72z" class="E"/><path d="M241.28 234.22l1.44 2.88 1.44-1.44z" class="D"/><path d="M245.621 234.757l.824-.6 9.6 13.179-.824.6z" class="E"/><path d="M244.23 231.98l.97 3.08 1.65-1.2z" class="D"/><path d="M240.926 239.26l.583-.835 13.368 9.334-.583.835z" class="E"/><path d="M238.71 237.11l1.92 2.58 1.17-1.67z" class="D"/><path d="M257.415 248.266l-.72-.72 11.529-11.529.72.72z" class="E"/><path d="M270.74 234.22l-1.44 2.88-1.44-1.44z" class="D"/><path d="M256.81 247.921l-.824-.6 9.6-13.179.824.6z" class="E"/><path d="M267.8 231.98l-.98 3.08-1.65-1.2z" class="D"/><path d="M257.75 248.615l-.583-.835 13.368-9.334.583.835z" class="E"/><path d="M273.31 237.11l-1.92 2.58-1.17-1.67z" class="D"/><path d="M255.35 272.44s-5.074-5.449-4.089-10.451c.791-4.023 3.192-8.458 5.071-9.537 0 0 2.657-.164 1.991 2.144s-1.478 2.903-1.24 5.178c.409 3.938 1.044 8.604-1.733 12.666z" class="B"/><path d="M256.89 252.48c-.317-.042-.558-.028-.558-.028-1.879 1.079-4.28 5.514-5.071 9.537-.448 2.275.361 4.638 1.373 6.543-.641-8.248 1.767-11.174 4.256-16.052z" class="C"/><path d="M257.08 259.77c-.237-2.275.574-2.87 1.24-5.178.467-1.615-.693-2.019-1.432-2.116 0 0-1.694 3.892-1.803 6.503-.096 2.297.492 11.644.264 13.458 2.777-4.065 2.142-8.731 1.731-12.667z" class="F"/><path d="M253.64 254.42a4.61 4.61 0 0 1 3.999-1.242l-2.07-6.664c-1.454-.249-2.941.212-3.999 1.242l2.07 6.664z" fill="#f5f0f0"/><path d="M257.64 253.18a4.61 4.61 0 0 1 3.999-1.242l-2.07-6.664c-1.454-.249-2.941.212-3.999 1.242l2.07 6.664z" class="B"/><path d="M250.02 224.36c-7.122-.164-14.156 1.587-20.37 5.07l-2.567-4.577c7.033-3.944 14.996-5.926 23.058-5.74l-.121 5.247z" class="H"/><path d="M278.17 222.96c4.614 2.957 8.681 6.722 11.958 11.167l-4.224 3.115c-2.892-3.923-6.481-7.245-10.551-9.856l2.817-4.426z" class="C"/><path d="M262.01 224.36c7.122-.164 14.156 1.587 20.37 5.07l2.567-4.577c-7.033-3.944-14.996-5.926-23.058-5.74l.121 5.247z" class="H"/><path d="M266.51 222.96c-6.871-1.88-14.121-1.88-20.991 0l-1.385-5.062c7.777-2.127 15.983-2.127 23.761 0l-1.385 5.062z" class="C"/><path d="M238.43 281.76c-5.663 1.479-11.199 3.474-16.529 5.985l2.237 4.747c5.143-2.424 10.489-4.337 15.96-5.742l-1.668-4.99zm35.17 0c5.663 1.479 11.199 3.474 16.529 5.985l-2.237 4.747c-5.143-2.424-10.489-4.337-15.96-5.742l1.668-4.99z" class="G"/><g class="F"><path d="M277.12 285.82a89.91 89.91 0 0 0-41.983 0l-1.225-5.102a95.17 95.17 0 0 1 44.433 0l-1.225 5.102z"/><path d="M256.01 287.24l-3.618.905a1.31 1.31 0 0 1-1.63-1.272v-1.887a1.31 1.31 0 0 1 1.63-1.272l3.618.905v2.621z"/><path d="M256.01 284.62l3.618-.905a1.31 1.31 0 0 1 1.63 1.272v1.887a1.31 1.31 0 0 1-1.63 1.272l-3.618-.905v-2.621z"/></g><path d="M256.3 287.24h-.563a1.03 1.03 0 0 1-1.031-1.031v-.563a1.03 1.03 0 0 1 1.031-1.031h.563a1.03 1.03 0 0 1 1.031 1.031v.563a1.03 1.03 0 0 1-1.031 1.031z" class="G"/></svg>