<?xml version="1.0" encoding="utf-8"?>
<!-- Generator: Adobe Illustrator 25.2.1, SVG Export Plug-In . SVG Version: 6.00 Build 0)  -->
<svg version="1.1" id="Livello_1" xmlns="http://www.w3.org/2000/svg" xmlns:xlink="http://www.w3.org/1999/xlink" x="0px" y="0px"
	 viewBox="0 0 512 512" style="enable-background:new 0 0 512 512;" xml:space="preserve">
<style type="text/css">
	.st0{fill:#FFFFFF;}
	.st1{fill:#CE1126;}
	.st2{fill:#FFFFFF;stroke:#C09300;stroke-width:1.2704;stroke-linejoin:round;stroke-miterlimit:10;}
	.st3{fill:#C09300;}
	.st4{fill:#C09300;stroke:#C09300;stroke-width:1.0739;stroke-miterlimit:10;}
	.st5{fill:#FFFFFF;stroke:#C09300;stroke-width:1.189;stroke-linejoin:round;stroke-miterlimit:10;}
	.st6{fill:none;stroke:#C09300;stroke-width:1.2699;stroke-linejoin:round;stroke-miterlimit:10;}
	.st7{fill:#FFFFFF;stroke:#C09300;stroke-width:2.378;stroke-linecap:round;stroke-linejoin:round;stroke-miterlimit:10;}
	.st8{fill:#FFFFFF;stroke:#C09300;stroke-width:1.2699;stroke-linecap:round;stroke-linejoin:round;stroke-miterlimit:10;}
	.st9{fill:#FFFFFF;stroke:#C09300;stroke-width:0.8909;stroke-linecap:round;stroke-linejoin:round;stroke-miterlimit:10;}
	.st10{fill:#FFFFFF;stroke:#C09300;stroke-width:1.218;}
	.st11{fill:none;stroke:#C09300;stroke-width:1.27;}
	.st12{fill:#C09300;stroke:#C09300;stroke-width:0.354;}
	.st13{fill:#FFFFFF;stroke:#C09300;stroke-width:1.15;}
	.st14{fill:none;stroke:#C09300;stroke-width:0.916;}
	.st15{clip-path:url(#SVGID_2_);}
	.st16{fill-rule:evenodd;clip-rule:evenodd;fill:#C09300;}
	.st17{fill-rule:evenodd;clip-rule:evenodd;fill:#FFFFFF;}
</style>
<path d="M0.4,85.4H512v341.1H0.4V85.4z"/>
<path class="st0" d="M0.4,85.4H512v227.4H0.4V85.4z"/>
<path class="st1" d="M0.4,85.4H512v113.7H0.4V85.4z"/>
<g transform="translate(-0.00509995,0.00275164) matrix(0.23309335,0,0,0.23309335,344.14597,97.431038)">
	<path class="st2" d="M-375.3,685.9l167,155l-11.9-281.6c-1.7-42.7-38.8-32.9-65.8-17.5c-27.3,17.5-58.4,17.5-91.3,5.9
		c-32.9,11.5-64,11.5-91.3-5.9c-26.9-15.4-64-25.2-65.8,17.5L-546.2,841L-375.3,685.9z"/>
	<path id="a" class="st3" d="M-515.1,549.6l-11.5,273.9l-19.6,17.5l11.9-281.6C-528.8,555.5-518.9,549.6-515.1,549.6L-515.1,549.6z
		 M-491.6,569.2l-9.8,229.1l-19.6,20l11.9-264.6C-505.3,557.6-493.7,567.1-491.6,569.2L-491.6,569.2z M-470.3,586.7l-7.7,191.1
		l-15.7,15.4l9.8-218C-480.1,579-472.4,584.6-470.3,586.7L-470.3,586.7z M-447.2,596.5l-7.7,162.9l-15.4,12.5l7.7-181.3
		C-458.8,592.3-451.1,596.5-447.2,596.5z M-425.9,596.5l-5.6,135.7l-15.7,15.4l6-149.4C-437.4,598.2-427.6,598.2-425.9,596.5
		L-425.9,596.5z"/>
	<g transform="matrix(-1,0,0,1,908.25417,5.1265624e-7)">
		<path id="a_1_" class="st3" d="M-239.4,549.6l11.5,273.9l19.6,17.5l-11.9-281.6C-225.8,555.5-235.6,549.6-239.4,549.6
			L-239.4,549.6z M-262.9,569.2l9.8,229.1l19.6,20l-11.9-264.6C-249.2,557.6-260.8,567.1-262.9,569.2L-262.9,569.2z M-284.2,586.7
			l7.7,191.1l15.7,15.4l-9.8-218C-274.4,579-282.1,584.6-284.2,586.7L-284.2,586.7z M-307.3,596.5l7.7,162.9l15.4,12.5l-7.7-181.3
			C-295.7,592.3-303.4,596.5-307.3,596.5z M-328.6,596.5l5.6,135.7l15.7,15.4l-6-149.4C-317.1,598.2-326.9,598.2-328.6,596.5
			L-328.6,596.5z"/>
	</g>
	<path class="st4" d="M-369.5,716.8l23.4,106.7l-7.7,7.7l-8-5.9l-13.3-95.1l5.6,95.1l-7.7,9.8l-7.7-9.8l5.6-95.1l-13.3,95.1
		l-8.1,5.9l-7.7-7.7l23.4-106.7L-369.5,716.8L-369.5,716.8z"/>
	<g id="b">
		<path class="st5" d="M-429.7,669.9L-476.3,835l64,9.8l27.3-124.2L-429.7,669.9L-429.7,669.9z"/>
		<path class="st6" d="M-445.1,726.3l5.6,13.6l30.3-28.9"/>
		<path class="st6" d="M-424.2,692.1l6.3,59.4l19.2-25.2 M-406.3,736l10.5,36.3 M-391.7,759l-21.3,32.3 M-406.3,823.5l-6.8-32.2
			l-5.9-32.7l-14.2,19.3l-6.2-22.2l-19.9,20.4l10.1,37.2l14-23l7.7,23.4l14.4-22.3"/>
		<path class="st6" d="M-462.6,831.2l12.9-18.2l8.4,27.9l11.5-19.6l7.7,23.4"/>
	</g>
	<g transform="matrix(-1,0,0,1,908.25417,5.1265624e-7)">
		<g id="b_1_">
			<path class="st5" d="M-324.8,669.9l46.5,165.1l-64,9.8l-27.3-124.2L-324.8,669.9L-324.8,669.9z"/>
			<path class="st6" d="M-309.4,726.3l-5.6,13.6l-30.3-28.9"/>
			<path class="st6" d="M-330.3,692.1l-6.3,59.4l-19.2-25.2 M-348.2,736l-10.5,36.3 M-362.8,759l21.3,32.3 M-348.2,823.5l6.8-32.2
				l5.9-32.7l14.2,19.3l6.2-22.2l19.9,20.4l-10.1,37.2l-14-23l-7.7,23.4l-14.4-22.3"/>
			<path class="st6" d="M-291.9,831.2l-12.9-18.2l-8.4,27.9l-11.5-19.6l-7.7,23.4"/>
		</g>
	</g>
	<g>
		<path class="st7" d="M-377.3,908.8c48.6,0,95.2-3.8,122.4-11.5c11.5-2.1,11.5-8,11.5-15.7c11.5-3.8,5.6-17.5,13.6-17.5
			c-8,2.1-9.8-13.6-19.6-11.5c0-13.6-13.6-15.4-25.2-11.6c-23.1,7.7-64,9.5-102.9,9.5c-38.8-1.8-79.4-1.8-102.9-9.5
			c-11.5-3.8-25.2-2.1-25.2,11.6c-9.8-2.1-11.5,13.6-19.6,11.5c8,0,2.1,13.6,13.6,17.5c0,7.7,0,13.6,11.9,15.7
			C-472.4,905-425.9,908.8-377.3,908.8L-377.3,908.8z"/>
		<path class="st8" d="M-443.4,835c15.7,2.1,33.2,3.8,46.9,2.1c7.7,0,13.3,13.3-2.1,15.4c-13.6,1.7-35,0-46.5-2.1
			c-9.8-1.7-31.1-5.6-44.8-9.5c-13.6-5.9-3.8-17.5,3.8-15.7C-474.1,829.1-458.8,832.9-443.4,835L-443.4,835z M-311.1,835
			c-15.7,2.1-33.2,3.8-46.5,2.1c-8,0-13.6,13.3,1.7,15.4c13.6,1.7,35,0,46.5-2.1c9.8-1.7,31.1-5.6,44.8-9.5
			c13.6-5.9,3.9-17.5-3.8-15.7C-280.3,829.1-295.7,832.9-311.1,835L-311.1,835z"/>
		<path class="st8" d="M-491.6,827.3c-11.9-2.1-17.5,11.5-13.6,19.2c1.7-3.8,9.8-3.8,11.5-7.7C-491.6,832.9-495.5,832.9-491.6,827.3
			L-491.6,827.3z M-445.1,863.1c0-7.7,7.7-6.7,7.7-14.4c0-3.8-2.1-9.8-5.9-9.8c-3.8,0-7.7,3.8-7.7,7.7
			C-452.8,854.3-445.1,855.4-445.1,863.1z M-389.7,841c11.5,0,10.4,15.4,4.8,23.1c0-5.6-9.8-7.7-9.8-11.5
			C-394.7,846.6-385.9,846.6-389.7,841z M-262.9,827.3c11.9-2.1,17.5,11.5,13.6,19.2c-1.8-3.8-9.8-3.8-11.5-7.7
			C-262.9,832.9-259,832.9-262.9,827.3L-262.9,827.3z M-309.4,863.1c0-7.7-7.7-6.7-7.7-14.4c0-3.8,2.1-9.8,5.9-9.8
			c3.8,0,7.7,3.8,7.7,7.7C-301.7,854.3-309.4,855.4-309.4,863.1L-309.4,863.1z M-364.8,841c-11.5,0-10.4,15.4-4.8,23.1
			c0-5.6,9.8-7.7,9.8-11.5C-359.8,846.6-368.6,846.6-364.8,841L-364.8,841z"/>
		<path class="st9" d="M-487.8,831.2c3.9,0,9.8,1.8,11.5,3.8L-487.8,831.2L-487.8,831.2z M-468.6,837.1c2.1,0,9.8,1.7,13.6,3.8
			L-468.6,837.1L-468.6,837.1z M-398.6,844.8c-3.8,0-11.5,0-13.6,1.7L-398.6,844.8L-398.6,844.8z M-419.9,844.8
			c-2.1-2.1-9.8-2.1-13.6,0H-419.9L-419.9,844.8z M-266.7,831.2c-3.8,0-9.4,1.8-11.5,3.8L-266.7,831.2z M-285.9,837.1
			c-2.1,0-9.8,1.7-13.6,3.8L-285.9,837.1L-285.9,837.1z M-355.9,844.8c3.9,0,11.5,0,13.6,1.7L-355.9,844.8L-355.9,844.8z
			 M-334.6,844.8c2.1-2.1,9.8-2.1,13.6,0H-334.6L-334.6,844.8z"/>
		<g>
			<path class="st3" d="M-491,861.9c-1.3-0.2-2-1.3-1.7-2.5c0.4-1.5,1.6-2.3,2.7-1.9c0.7,0.3,2,1.6,2,2c0,0.5-0.7,1.8-1,1.8
				c-0.1,0-0.3,0.1-0.4,0.2C-489.6,861.9-490.4,862.1-491,861.9L-491,861.9z M-357.1,871.5c-0.5-0.2-1.3-1.3-1.3-1.8
				c0-0.9,1.4-2.5,2.3-2.5c0.4,0,1.6,0.6,2,1.1c0.8,0.8,0.6,2.2-0.4,2.9C-354.9,871.6-356.4,871.8-357.1,871.5L-357.1,871.5z
				 M-356.2,877.5c-1-0.3-1.4-0.8-1.5-2c-0.1-1.2,0-1.4,1.3-2.1l0.9-0.5l0.8,0.4c1.2,0.5,1.7,1.1,1.7,1.9c0,0.8-0.6,1.7-1.6,2.2
				C-355.4,877.8-355.4,877.8-356.2,877.5L-356.2,877.5z"/>
			<path class="st3" d="M-480.3,851c-0.8,0-2,0.7-2.7,1.1c-1.6,0.4-3.4,1.3-5,0.3c-1.5-0.5-3.5-0.1-3.7,1.8c0.4,1.6,2.6,2.5,4,1.4
				c1-1.3,3.7-2.1,4,0.2c-1.1,1.7-1,3.9-1.9,5.7c-0.1,1.1-0.6,2.2-1.2,3.1c-1.1,0.1-2.3,0-3.3,0.7c-1.5,0.1-3.1,0.8-4,2.1
				c-1,1.4-1.9,2.8-2.2,4.6c0.3,1.8,2.3,2.3,3.8,2.4c1.6,0.4,3.3,1,4.9,1.5c2.6,0.6,5.1,1.5,7.8,2.1c3.9,1.2,7.9,1.7,11.8,2.7
				c0.4,0.1,0.8,0.3,1.2,0.3c1.6,0.3,2.5-1.4,2.6-2.7c0.8-2.8,1.4-5.7,2.2-8.5c0.5-1.1,1.2-3.7-1-3.1c-1.3,0.8-2.3,1.9-3.9,2
				c-2.1,0.1-0.9,2.3-0.1,3.2c0.2,1.4-0.3,3.1-1.2,4.3c-1.3,0.8-2.9-0.1-4.2-0.5c-1.4,0-4.2-0.7-2.9-2.6c0.5-1.4,0.5-2.9,1.1-4.3
				c0.7-1.5,0.8-3.1,1.1-4.7c-0.9-1.9-2.4,0.6-3.6,0.8c-0.8,0.6-3.9,0.8-2.3,2.3c1.4,1.1,0.3,2.9,0.1,4.3c-0.1,1.9-2,2.3-3.6,1.9
				c-1.5-0.1-3.7-1.2-2.4-2.9c0.3-1.4,0.8-2.8,1.1-4.2c0.6-1.7,1.1-3.3,1.7-5c0.3-1.5,0.8-2.9,1.5-4.3c0-1.7,1.2-3.1,1.1-4.8
				C-479.4,851.3-479.8,851-480.3,851L-480.3,851z M-489,868.7c0.2,0,0.3,0,0.5,0.1c0.6,0.3,0.6,0.8,0,1.3c-0.3,0.2-0.6,0.5-0.7,0.5
				c-1.1-0.1-1.5-0.3-1.5-0.7c0-0.4,0.1-0.5,0.8-0.8C-489.5,868.8-489.2,868.7-489,868.7z M-491.6,880.9c-1.2-1.1-1-2,0.8-3.3
				c0.8-0.6,1.2-0.5,2.1,0.3c1.3,1.2,1.4,2,0.2,3.1c-0.6,0.5-0.8,0.6-1.5,0.6C-490.7,881.6-490.9,881.5-491.6,880.9z M-484.1,883.2
				c-1.1-0.3-1.8-1.4-1.6-2.5c0,0,0-0.1,0-0.1c0.3-1.1,0.5-1.2,2-1.2c1.7,0,2.1,0.3,2.1,1.8c0,0.9-0.1,1.1-0.5,1.5
				C-482.5,883.1-483.5,883.3-484.1,883.2L-484.1,883.2z M-266.8,883.3c-0.6-0.5-0.7-0.7-0.7-1.3c0-1,0.6-1.7,1.8-2.3
				c1.7-0.8,2.3-0.6,3,0.5c0.8,1.5,0.8,2.1-0.2,3.1c-0.6,0.5-0.7,0.6-1.9,0.6C-266.1,883.9-266.2,883.9-266.8,883.3z M-474.3,886.1
				c-0.9-0.2-1.3-0.9-1.4-2c0-0.8,0-0.9,0.6-1.4c0.4-0.3,1-0.5,1.4-0.6c0.7-0.1,0.9,0,1.4,0.3c1.3,0.9,1.6,1.9,0.9,2.8
				C-472.2,886.3-472.9,886.5-474.3,886.1L-474.3,886.1z M-420.8,888.5c-0.2-0.2-0.6-0.4-0.7-0.7c0.1-1.4,0.1-2.7,0.6-4
				c0.2-1.3,0-2.6,0.5-3.8c0.5-2.3,0.5-4.6,1-6.8c0-1.2,0.1-2.3,0.5-3.4c0.4-1.8,0-3.6,0.6-5.3c-0.1-0.7,0.7-2.4,1.4-1.4
				c1,1.4,2.2,2.5,3.5,3.7c1.1,0.6,0.1,1.5-0.7,1.8c-1,0.4-1.3,1.5-1.2,2.5c-0.1,1-0.5,2-0.6,3c-0.2,1.5-0.2,3.1-0.4,4.6
				c-0.4,1.5-0.3,3.1-0.4,4.6c0,1-0.4,1.9-0.4,2.8c-0.1,1-0.2,2.2-1,2.9C-419,889.3-420.2,889.2-420.8,888.5L-420.8,888.5z
				 M-348.4,864.6c-1.2,0.9-2.2,1.9-3.3,3c-1.4,1.1,1.2,1.7,1.5,2.7c0.4,1.4,0.4,3,0.5,4.4c0.4,1.3,0.6,2.8,0.5,4.2
				c-0.1,1.5-2.1,1.2-3,2.1c-1.2,0.5-1.7,1.7-2.6,2.5c-0.6,1.2-0.8,2.6-0.8,4c0.1,1.1-0.7,2.3,0,3.3c0.1,0.1,0.2,0.3,0.3,0.5
				c0.2,0.4,0.8,0.1,1.2,0.2c1.2-0.1,2.5,0.1,3.7-0.4c3-0.5,5.9-0.6,8.9-0.7c1.8,0.1,3.6-0.6,5.4-0.5c1.4,0.3,2.1-1.2,2.1-2.4
				c-0.8-1.6-0.1-3.5-0.8-5.1c-0.6-1.6-0.3-3.5-0.6-5.2c0-1.3-1.7-1.8-2.6-0.8c-0.8,0.8-2.2,1-2.8,2.1c-0.7,1.5,1.5,1.5,1.9,2.6
				c0.4,1.1,0.3,2.4,0.4,3.6c0.3,1.4-1.3,1.5-2.3,1.7c-1.3,0.5-3.1,0.8-3.9-0.8c-0.5-1.2-0.4-2.4-0.5-3.7c0-2.2-0.6-4.3-0.7-6.5
				c-0.1-2.7-0.6-5.3-0.8-8C-346.6,866.1-346.8,864.3-348.4,864.6L-348.4,864.6z M-349.9,884.8l0.8,0.1l0.1,0.9l0.1,0.9l-1,0.3
				c-0.5,0.2-1,0.2-1,0.2c-0.2-0.1-0.3-0.2-0.5-0.3c-0.5-0.4-0.4-0.9,0.3-1.7C-350.7,884.8-350.5,884.7-349.9,884.8L-349.9,884.8z
				 M-423,862.1c-0.9,0.3-2.1,1.7-3,1.7c-2.1,0.2-1.8,2.2-0.3,3c0.2,0.6,0,1.4,0.1,2.1c0.3,1.9-0.9,3.5-0.7,5.4
				c-0.1,2.1-0.7,4.2-0.8,6.3c-0.6,2.2-0.6,4.5-1,6.7c-0.3,2-1.7,1.3-3,0.8c0-0.9-0.1-1.7-0.1-2.6c0.5-2-1.1-2.6-2.7-2.8
				c-1.7,0.2-2.5-1.3-2.1-2.7c0.7-0.9,2.5-0.6,3.7-0.8c2.4,0.5,2.3-2.7,1.1-3.8c-0.8-1.6-2.9-2.2-3.5-3.8c0.2-2.1-1.2-4.2-2.9-5.3
				c-2.7-0.2-4.7,2.1-5.6,4.3c-1.1,0.3-2.2,0.7-3.3,1.1c-1.7,0.4-4.2,3.4-1.8,4.6c1.3,0.4,5.4,1.3,3.6,3.1c-1,1.7-2.9,1.8-4.6,1.3
				c-1.8,0-3.7-0.9-3.7-2.9c-0.4-1.8-0.3-3.8-1.1-5.5c-0.4-2-2.7-1.6-2.8,0.3c-1.8,1.3-1.6,3.4-0.3,5c0.8,1.8,0,3.8-0.8,5.5
				c-0.5,2.1-2.8,2.2-4.5,2.9c-0.8,0.3-4-0.2-2.8,1.6c1.8,0.6,4,1.2,5.9,0.8c2-0.2,3.7-1.6,4.7-3.4c1.3-1.4,3.7-0.7,5.4-0.7
				c1.9,0,3.8,1.3,5.6,0.5c0.5-1.4,3-3.6,3.7-1.3c-0.1,2.1,1.7,3.2,3.7,3c2.1-0.1,1.3,1.5,1.3,2.7c0.1,2.3,1.6,3.5,3.5,4.4
				c0.6,0.2,1.3,0.1,2,0c1.8-0.6,3.8-1.4,4.3-3.4c0.7-1.7,0.8-3.5,1.3-5.3c0.4-2.8,1-5.5,1.1-8.3c0.7-2.5,0.5-5.2,1-7.8
				c0.3-1.9,0.6-3.8,0.8-5.7C-422,862.1-422.4,861.9-423,862.1L-423,862.1z M-439.5,872.3c0.4,0,0.6,0.5,0.6,1.3
				c0,0.9,0.5,1.6,1.1,1.8c0.4,0.1,0.4,0.6-0.1,0.9c-0.3,0.2-0.8,0.3-1.7,0.3c-1.4,0-2.3-0.4-3-1.1l-0.5-0.5l0.7-0.5
				c0.5-0.4,0.9-0.8,1.4-1.2C-440.3,872.5-439.9,872.2-439.5,872.3L-439.5,872.3z M-278.5,853.1c-1.4,0.1-2.8,0.3-4,0.6
				c-2.5-0.2-3.8,2.5-1.4,3.8c1.5,3.7,3.8-0.8,6.1-0.5c3.5,0.7,3.8,4.5,4.3,7.3c0.2,2.8,1,5.6,1.8,8.2c2.3,2.6-1.8,4.2-3.5,2.2
				c-1.5-1.6-4.7-3.6-6.5-1.4c-2.2,0.9-2.3,3.9-4.1,4.7c-2.9,0.9-3.3-2.7-4.9-4.3c-1.4-2-4.2-2.2-6.4-2.9c-1-2.1-0.5-5.7-2.7-7.2
				c-1.8,0.7-5.2,4.2-2.4,5.7c2.7,2.3-1.2,3.4-2.4,5c-1.8,2-2.1,4.7-2.4,7.2c-3.1,1.7-3.7-1.9-4-4.2c-0.2-2.7-2.5-1.9-4.1-0.9
				c-2.3,0.9-3.5,3.1-5.1,4.9c-0.2,1.6,0.1,3.3,0.1,5c0.5,2,2.9,1,4.4,0.9c2.4-1,3.4,1.5,1.4,3c-1.3,1.6-5.4,0.8-5,3.4
				c1.3,0.2,2.7,0.1,4,0c2.7-0.7,5.5-2.6,5.8-5.6c0.4-2.6,4.1-2.1,6.1-2.7c2.5-0.7,5.6-0.9,6.2,2.3c1.7,1.8,5.5,3.9,7.4,1.4
				c1.9-1.2,2.9-3.3,2.7-5.5c-0.4-1.9,3.1-2,4-0.9c1.3,2.1,5.2,1.5,7.2,0.3c2-1.5,2.5-4.2,5.4-4.2c4.3-1.3,8.9-2.1,13.1-3.7
				c3.4-0.7-0.5-2.9-1.4-4.2c-2.6-1.3-4.9,4-7.8,1.4c-2.3-1.7-2.1-5.1-3-7.6c-0.6-3.3-0.4-7.1-2.8-9.8
				C-274,853.4-276.2,853-278.5,853.1L-278.5,853.1z M-295.1,876.1c0.3,0,0.7,0.1,1.2,0.5c1.1,0.6,1.8,1.6,1.8,2.4
				c0,0.5-0.1,0.6-0.9,0.9c-0.5,0.2-1,0.5-1.2,0.5c-0.4,0-1.5-0.9-1.5-1.2c0-0.1-0.1-0.7-0.3-1.1c-0.3-0.8-0.2-0.8,0.2-1.3
				C-295.6,876.3-295.4,876.2-295.1,876.1L-295.1,876.1z M-279.2,877c0.9-0.1,1.4,0.2,1.8,0.9c0.4,0.8,0.1,1.4-1,1.9
				c-0.5,0.2-1,0.4-1.1,0.4c-0.1,0-0.5-0.3-0.9-0.5c-0.7-0.4-0.8-0.6-0.8-1.1C-281.1,877.7-280.2,877.1-279.2,877L-279.2,877z
				 M-301,877.2c0.3,0,0.5,0.1,0.8,0.4c0.4,0.4,0.6,0.7,0.7,1.4c0.1,0.5,0.1,1.2,0,1.5c-0.1,0.6-0.1,0.5-1.4,0.5
				c-1.6,0-1.7-0.2-1.7-1.6c0-0.9,0-1.2,0.5-1.7C-301.6,877.4-301.2,877.3-301,877.2L-301,877.2z M-314.4,880.7
				c0.5,0.1,0.9,0.5,1.1,1.1c0.2,0.8,0,1.1-0.6,1.4c-0.5,0.3-1.8,0.4-2.1,0.2c-0.1-0.1-0.3-0.3-0.5-0.5c-0.2-0.3-0.1-0.4,0.1-0.6
				c0.1-0.1,0.3-0.3,0.3-0.4c0-0.1,0.2-0.4,0.4-0.7C-315.4,880.8-314.9,880.6-314.4,880.7L-314.4,880.7z M-291.8,883.6
				c0.4,0,0.8,0.1,1.1,0.4c0.5,0.4,0.4,1-0.1,1.4c-0.3,0.3-2.1,0.2-2.7,0c-0.3-0.1-0.4-0.2-0.4-0.5c0-0.3,0.1-0.6,0.7-0.8
				C-292.8,883.8-292.3,883.6-291.8,883.6L-291.8,883.6z M-333.7,895.4c-0.2-0.2-0.6-0.3-0.2-0.5c0.4-0.7,1.3-1,2-1.3
				c1.3-0.6,2.5-1.6,3.3-2.7c0.1-0.8,1-1.3,1-2.1c0-1.2,0.1-2.3-0.2-3.5c-0.3-1-1.1-1.8-2-2.4c-0.6-0.5-1.6-0.6-1.9-1.5
				c-0.1-0.8,0.6-1.5,0.9-2.2c0.5-1,1-2.1,1.6-3.1c0.6-0.7,1.6,0,1.9,0.6c0.5,0.7,0.9,1.4,1.1,2.2c0.7,0.8,1.4,1.8,1.7,2.8
				c0.4,0.8,0.9,1.5,0.9,2.4c0,1,0.6,1.9,0.5,2.9c0,1.4,0,2.8-0.5,4.1c-0.3,0.7-1,1.1-1.5,1.8c-0.8,0.7-1.6,1.4-2.6,1.8
				c-0.7,0.2-1.1,1-2,0.8c-1.3,0-2.5,0.2-3.8,0C-333.3,895.6-333.8,895.3-333.7,895.4L-333.7,895.4z M-350.4,896.5
				c-0.6-0.6-0.7-0.9-0.7-1.5c0-0.6,0.1-0.8,0.7-1.4c1.1-1.1,1.6-1.1,3.4-0.2c1.8,0.9,2.4,1,2.5,0.3c0.2-0.6,1.2-1.2,2.1-1.2
				c0.6,0,1,0.1,1.4,0.5c0.6,0.5,0.6,0.6,0.7,1.7c0,1.1,0,1.2-0.7,1.8c-0.7,0.6-0.8,0.6-1.6,0.5c-1.1-0.1-1.7-0.6-1.9-1.4
				c-0.1-0.6-0.3-0.8-0.5-0.3c-0.1,0.1-0.3,0.3-0.6,0.4c-0.5,0.1-1.3,0.7-1.9,1.2c-0.2,0.2-0.6,0.3-1.3,0.3
				C-349.6,897.2-349.7,897.2-350.4,896.5L-350.4,896.5z M-398.7,874.8c-1.6,0-3.4,1.4-3.6,3c0.4,1.8,1.9,3.6,0.9,5.6
				c0.7,2.5-1.9,3.4-3.6,2c-1-2.4-1.6-5-3.1-7.1c-2-0.6-2.8,2.6-4.2,3.7c0.7,1.8,2.7,3.5,2.9,5.8c0.5,2.2-0.9,4.7-2.8,5.9
				c-1.7,1.6-4,1-6,1.4c-2.5,1.5,1.8,2,3,2.1c2.6,0.3,5.2-0.1,7.1-2c1.9-0.9,1.7-4.1,4-4.5c3.9-0.2,7.7,0.6,11.6,0.7
				c2.1,0.5,5.3-0.2,6.7,1.3c0,2.7,2.3,4.4,4.5,5.4c1.2,0.3,2.5-1.2,3.7-1.4c2.4-0.8,1.6-3.7,3-4.8c4-0.2,8.1-0.2,12.1-0.2
				c0.8,0,1-1.1,1.5-1.5c-0.1-1.6-0.1-3.1-0.4-4.6c-0.8-2,0.1-4.5-1.3-6.2c-2-0.6-3.7,1.3-5.8,1.4c-2.3,1-4.2,3.1-4.3,5.6
				c-1.3,2.2-3.5-0.4-2.7-2.2c-0.1-0.8,0.2-1.7-0.1-2.4c-1.2-1.5-3.4-1-5.1-1.2c-2.5,0.1-4.9-0.4-7.4-0.4c-2.2-0.2-4.4,0.2-6.6-0.4
				c-2.5-0.1-2.2-2.5-2.6-4.3C-397.7,874.9-398.2,874.8-398.7,874.8L-398.7,874.8z M-393.9,883.8c0.8,0,1.6,0.1,2.4,0.2
				c1.1,0.2,2.2-0.4,3.2,0c2.4,0.4,4.8,0.3,7.2,0.5c0.6,0,1.1,0.5,1.5,0.8c0,1.7,0,3.4,0,5c-0.1,0.6,0.2,1.5-0.4,1.9
				c-0.2,0.1-0.4,0.3-0.6,0.3c-0.7-0.2-1.4-0.6-1.7-1.2c-0.1-0.9,0-1.7,0.1-2.6c0-0.2,0.1-0.6,0-0.8c-0.5-0.4-1.1-0.6-1.8-0.6
				c-2.1-0.1-4.1-0.2-6.2-0.3c-1.7-0.1-3.5,0.1-5.2-0.3c-0.7-0.2-1.5-0.2-1.9-0.8c-0.6-0.7,0.3-1.5,0.8-1.8
				C-395.5,883.9-394.7,883.7-393.9,883.8L-393.9,883.8z M-366.3,884.4c0.4,0,0.5,0.1,0.7,0.8c0.1,0.5,0.2,1,0.3,1.2
				c0.1,0.3-0.1,0.4-0.5,0.5c-1.2,0.5-2.4,0.4-2.8-0.2c-0.2-0.3,0-1.1,0.4-1.4C-367.5,884.8-366.8,884.4-366.3,884.4L-366.3,884.4z"
				/>
		</g>
	</g>
	<g transform="matrix(4.29012,0,0,4.29012,-1476.4279,-417.98899)">
		<path class="st10" d="M263.2,229.3c0.4,0-0.5-2-0.5-2c1,1,4.8,1.3,4.8,1.3c-2.3-1-4.5-8.6-4.3-14.6c0.2-6.1-0.9-8.4-1.8-9.3
			c-1.1-1.1-4.8-2.1-7.2-2.3c-1.4-0.1-1.1,1-1.1,1c-2.5-0.6-5-0.9-6.2-0.1c-1.1,0.7-1.3,4.3-0.5,3.7c1.9-1.5,3.5-0.1,4.7,1.5
			c1,1.4,0.9,5.5-0.5,10.3c-1.5,5-5.7,10.1-5.7,10.1c2.3,0,5.4-2,5.4-2l-0.8,3.1c2.4-1.1,4.3-2.9,4.3-2.9l2.3,2.4
			c0.8-1,2.3-2.4,2.3-2.4S260.3,229,263.2,229.3L263.2,229.3z"/>
		<path class="st11" d="M254,214.8c0,0-1.3,9.3-3.7,12 M256,214.5c0,0-0.5,9.4-2.1,12.5 M257.8,214.9c0,0,0,10.3,0.6,12.1
			 M260,215.4c0,0,0.5,8.7,2.7,11.8"/>
		<path class="st12" d="M251.7,210.3c-0.1-0.8-0.3-1.5-0.6-1.9c-1.1-1.6-2.8-3-4.7-1.5c0,0,0.6-2,2-2.1c1.1-0.1,3.5,0.8,5.6,4.5
			c0,0-1.6-0.4-2,0C251.4,209.8,251.7,210.3,251.7,210.3L251.7,210.3z"/>
		<path class="st12" d="M246.2,204.4c0.2-0.5,0.4-1,0.7-1.2c1.1-0.8,3.7-0.5,6.2,0.1c0,0-0.2-1.1,1.1-1c2.4,0.1,6.1,1.1,7.2,2.3
			c0.3,0.3,0.6,0.7,0.8,1.4h0c-0.6-0.8-2.1-0.7-2.5-0.7c-0.6,0.1-1,0-1.8,0.2c-0.4,0.1-1,0.2-1.3,0.4c-0.2,0.2-0.4,0.9-0.8,0.9
			c-0.6,0-0.6-0.2-0.7-0.3c-0.2-0.2-0.3-0.6-0.5-0.6c-0.6,0.1-1.6-0.4-2.9-1.4c-1.3-1-1.8-1.2-3.4-1.1c-1.6,0.1-2.1,1-2.1,1
			L246.2,204.4z"/>
		<circle class="st0" cx="255.5" cy="205.2" r="0.7"/>
	</g>
	<path class="st13" d="M-377.3,746.5c79.6-61.2,72.8-150.9,72.8-150.9c-2.1,0.4-4.1,0.6-6.2,0.6c-16.7,0-56.5-9.6-65.8-21.7
		c-10,11-50.6,21.7-67.2,21.7c-2.1,0-4.2-0.2-6.2-0.6C-450,595.6-456.9,685.2-377.3,746.5L-377.3,746.5z"/>
	<path class="st14" d="M-310.9,602.1c-0.7,0-1.4,0.1-2.1,0.1c-15.1,0-50.3-7.8-63.8-19.4c-14.2,10.8-49.9,19.4-64.8,19.4
		c-0.7,0-1.4-0.1-2.1-0.2c0,3.4,0.1,6.9,0.4,10.1c0.8,12,2.9,23.9,6.1,35.5c10,36.3,30.5,67.2,59.9,90.6c29.4-23.4,50-54.3,60-90.7
		c3.2-11.5,5.3-23.5,6.1-35.5C-311.1,608.7-310.9,604.6-310.9,602.1L-310.9,602.1z"/>
	<g>
		<defs>
			<path id="SVGID_1_" d="M-311.6,602.6c-0.7,0-1.4,0.1-2,0.1c-15,0-49.7-7.7-63.2-19.2c-14,10.6-49.4,19.2-64.1,19.2
				c-0.7,0-1.4-0.1-2-0.2c0,3.4,0.1,6.8,0.3,10c0.8,11.8,2.9,23.7,6,35.1c9.9,35.9,30.2,66.5,59.3,89.6
				c29.1-23.2,49.4-53.8,59.4-89.7c3.2-11.4,5.2-23.3,6-35.1C-311.7,609.1-311.6,605-311.6,602.6L-311.6,602.6z"/>
		</defs>
		<clipPath id="SVGID_2_">
			<use xlink:href="#SVGID_1_"  style="overflow:visible;"/>
		</clipPath>
		<g transform="matrix(16.042066,0,0,16.042066,2325.4644,-2179.2848)" class="st15">
			<path class="st16" d="M-172.6,172.1h2.8v9.8h-2.8V172.1z"/>
			<path class="st17" d="M-169.9,172.1h2.8v9.8h-2.8V172.1z"/>
			<path class="st16" d="M-167.1,172.1h2.8v9.8h-2.8V172.1z"/>
		</g>
	</g>
</g>
</svg>
