<svg id="Livello_1" data-name="Livello 1" xmlns="http://www.w3.org/2000/svg" xmlns:xlink="http://www.w3.org/1999/xlink" viewBox="0 0 511.58 341.05"><defs><style>.cls-1,.cls-13,.cls-16,.cls-8{fill:none;}.cls-10,.cls-11,.cls-12,.cls-15,.cls-19,.cls-2,.cls-4,.cls-7,.cls-9{fill:#fff;}.cls-3{fill:#ce1126;}.cls-10,.cls-11,.cls-12,.cls-13,.cls-14,.cls-15,.cls-16,.cls-4,.cls-6,.cls-7,.cls-8,.cls-9{stroke:#c09300;}.cls-10,.cls-11,.cls-4,.cls-7,.cls-8,.cls-9{stroke-linejoin:round;}.cls-4{stroke-width:1.27px;}.cls-14,.cls-18,.cls-5,.cls-6{fill:#c09300;}.cls-6{stroke-miterlimit:10;stroke-width:1.07px;}.cls-7{stroke-width:1.19px;}.cls-10,.cls-8{stroke-width:1.27px;}.cls-10,.cls-11,.cls-9{stroke-linecap:round;}.cls-9{stroke-width:2.38px;}.cls-11{stroke-width:0.89px;}.cls-12{stroke-width:1.22px;}.cls-13{stroke-width:1.27px;}.cls-14{stroke-width:0.35px;}.cls-15{stroke-width:1.15px;}.cls-16{stroke-width:0.92px;}.cls-17{clip-path:url(#clip-path);}.cls-18,.cls-19{fill-rule:evenodd;}</style><clipPath id="clip-path" transform="translate(-0.42 -85.42)"><path class="cls-1" d="M271.52,237.9H271c-3.49,0-11.6-1.79-14.72-4.47-3.27,2.48-11.51,4.47-14.95,4.47a2.42,2.42,0,0,1-.47,0c0,.78,0,1.59.08,2.33a40.58,40.58,0,0,0,1.4,8.18,40,40,0,0,0,13.82,20.9A40,40,0,0,0,270,248.36a40.46,40.46,0,0,0,1.4-8.18c.05-.77.09-1.72.09-2.28Z"/></clipPath></defs><path d="M.42,85.42H512V426.48H.42Z" transform="translate(-0.42 -85.42)"/><path class="cls-2" d="M.42,85.42H512V312.79H.42Z" transform="translate(-0.42 -85.42)"/><path class="cls-3" d="M.42,85.42H512V199.11H.42Z" transform="translate(-0.42 -85.42)"/><path class="cls-4" d="M256.67,257.32l38.93,36.14-2.77-65.64c-.41-9.95-9.06-7.67-15.34-4.08-6.36,4.08-13.61,4.08-21.28,1.39-7.67,2.69-14.92,2.69-21.28-1.39-6.28-3.59-14.93-5.87-15.34,4.08l-2.77,65.64Z" transform="translate(-0.42 -85.42)"/><path id="a" class="cls-5" d="M224.07,225.54l-2.69,63.84-4.56,4.08,2.77-65.64c1.3-.9,3.59-2.28,4.48-2.28Zm5.47,4.57-2.28,53.4-4.57,4.67,2.78-61.66c.89.89,3.58,3.09,4.07,3.58Zm5,4.07-1.8,44.54-3.67,3.59,2.29-50.82c.89.9,2.69,2.2,3.18,2.69Zm5.38,2.29-1.8,38-3.58,2.91,1.79-42.26C237.21,235.49,239,236.47,239.9,236.47Zm5,0-1.3,31.63-3.67,3.59,1.38-34.82c.9,0,3.18,0,3.59-.4Z" transform="translate(-0.42 -85.42)"/><path id="a-2" data-name="a" class="cls-5" d="M288.34,225.54,291,289.38l4.57,4.08-2.78-65.64c-1.3-.9-3.58-2.28-4.48-2.28Zm-5.47,4.57,2.28,53.4,4.57,4.67L287,226.52c-.9.89-3.59,3.09-4.08,3.58Zm-5,4.07,1.79,44.54,3.67,3.59-2.28-50.82c-.9.9-2.69,2.2-3.18,2.69Zm-5.39,2.29,1.8,38,3.59,2.91-1.8-42.26C275.21,235.49,273.41,236.47,272.51,236.47Zm-5,0,1.31,31.63,3.67,3.59-1.39-34.82c-.9,0-3.18,0-3.59-.4Z" transform="translate(-0.42 -85.42)"/><path class="cls-6" d="M258,264.51l5.47,24.87-1.8,1.8-1.87-1.39-3.1-22.18,1.3,22.18-1.79,2.28-1.8-2.28,1.31-22.18-3.1,22.18-1.88,1.39-1.79-1.8,5.46-24.87Z" transform="translate(-0.42 -85.42)"/><g id="b"><path class="cls-7" d="M244,253.59l-10.84,38.48,14.92,2.29,6.36-28.95L244,253.59Z" transform="translate(-0.42 -85.42)"/><path class="cls-8" d="M240.39,266.72l1.3,3.18,7.05-6.74" transform="translate(-0.42 -85.42)"/><path class="cls-8" d="M245.27,258.75l1.48,13.84,4.48-5.87M249.44,269l2.45,8.45m1-3.1-5,7.52m1.55,7.51-1.59-7.5-1.38-7.63-3.32,4.5-1.46-5.19L237,278.33l2.37,8.67,3.26-5.36,1.79,5.46,3.35-5.21" transform="translate(-0.42 -85.42)"/><path class="cls-8" d="M236.31,291.18l3-4.23,2,6.51,2.69-4.57,1.8,5.47" transform="translate(-0.42 -85.42)"/></g><g id="b-2" data-name="b"><path class="cls-7" d="M268.44,253.59l10.84,38.48-14.92,2.29L258,265.41l10.44-11.82Z" transform="translate(-0.42 -85.42)"/><path class="cls-8" d="M272,266.72l-1.31,3.18-7.05-6.74" transform="translate(-0.42 -85.42)"/><path class="cls-8" d="M267.14,258.75l-1.47,13.84-4.49-5.87M263,269l-2.45,8.45m-1-3.1,4.95,7.52M263,289.38l1.58-7.5,1.39-7.63,3.32,4.5,1.45-5.19,4.65,4.77L273,287l-3.27-5.36L268,287.1l-3.35-5.21" transform="translate(-0.42 -85.42)"/><path class="cls-8" d="M276.11,291.18l-3-4.23-2,6.51-2.69-4.57-1.79,5.47" transform="translate(-0.42 -85.42)"/></g><path class="cls-9" d="M256.21,309.28c11.33,0,22.18-.9,28.54-2.7,2.69-.48,2.69-1.87,2.69-3.66,2.69-.9,1.3-4.08,3.18-4.08-1.88.49-2.28-3.18-4.57-2.69,0-3.18-3.18-3.59-5.87-2.69-5.38,1.79-14.92,2.2-24,2.2-9.06-.41-18.52-.41-24-2.2-2.69-.9-5.87-.49-5.87,2.69-2.28-.49-2.69,3.18-4.57,2.69,1.88,0,.49,3.18,3.18,4.08,0,1.79,0,3.18,2.78,3.66,6.27,1.8,17.12,2.7,28.46,2.7Z" transform="translate(-0.42 -85.42)"/><path class="cls-10" d="M240.8,292.07a45.51,45.51,0,0,0,10.92.49c1.8,0,3.1,3.1-.49,3.59a43.2,43.2,0,0,1-10.84-.49c-2.28-.41-7.26-1.31-10.44-2.21-3.18-1.38-.9-4.07.9-3.66a60.56,60.56,0,0,0,10,2.28Zm30.82,0a45,45,0,0,1-10.84.49c-1.88,0-3.18,3.1.4,3.59a43.28,43.28,0,0,0,10.85-.49c2.28-.41,7.26-1.31,10.44-2.21,3.18-1.38.89-4.07-.9-3.66a60.56,60.56,0,0,1-9.95,2.28Z" transform="translate(-0.42 -85.42)"/><path class="cls-10" d="M229.54,290.28c-2.77-.49-4.08,2.69-3.18,4.48.41-.89,2.29-.89,2.69-1.79.49-1.39-.4-1.39.49-2.69Zm10.85,8.34c0-1.79,1.79-1.57,1.79-3.37,0-.89-.49-2.28-1.38-2.28a1.93,1.93,0,0,0-1.8,1.79C238.59,296.56,240.39,296.83,240.39,298.62Zm12.91-5.16c2.69,0,2.42,3.59,1.11,5.38,0-1.31-2.28-1.79-2.28-2.69C252.13,294.76,254.19,294.76,253.3,293.46Zm29.57-3.18c2.77-.49,4.08,2.69,3.18,4.48-.41-.89-2.28-.89-2.69-1.79-.49-1.39.41-1.39-.49-2.69ZM272,298.62c0-1.79-1.8-1.57-1.8-3.37,0-.89.49-2.28,1.39-2.28a1.92,1.92,0,0,1,1.79,1.79c.41,1.8-1.38,2.07-1.38,3.86Zm-12.91-5.16c-2.69,0-2.43,3.59-1.12,5.38,0-1.31,2.28-1.79,2.28-2.69,0-1.39-2.06-1.39-1.16-2.69Z" transform="translate(-0.42 -85.42)"/><path class="cls-11" d="M230.44,291.18a4.41,4.41,0,0,1,2.69.89l-2.69-.89Zm4.48,1.38a10,10,0,0,1,3.18.9l-3.18-.9Zm16.31,1.79c-.89,0-2.69,0-3.18.41l3.18-.41Zm-5,0c-.49-.49-2.28-.49-3.18,0ZM282,291.18a4.6,4.6,0,0,0-2.69.89Zm-4.49,1.38a10.11,10.11,0,0,0-3.18.9l3.19-.9Zm-16.31,1.79c.9,0,2.69,0,3.18.41l-3.18-.41Zm5,0c.49-.49,2.29-.49,3.18,0Z" transform="translate(-0.42 -85.42)"/><path class="cls-5" d="M229.68,298.34a.44.44,0,0,1-.38-.58c.09-.34.37-.54.63-.45s.47.37.47.48-.16.43-.23.43a.16.16,0,0,0-.1,0,.46.46,0,0,1-.39.07Zm31.23,2.23a.62.62,0,0,1-.3-.41c0-.22.33-.58.53-.58a1.06,1.06,0,0,1,.48.25.46.46,0,0,1-.09.68.87.87,0,0,1-.62.06Zm.2,1.41a.44.44,0,0,1-.34-.46c0-.28,0-.32.29-.48l.21-.11.2.09c.27.12.39.25.4.43a.55.55,0,0,1-.36.5c-.2.09-.21.1-.4,0Z" transform="translate(-0.42 -85.42)"/><path class="cls-5" d="M232.19,295.79a1.51,1.51,0,0,0-.62.27c-.37.09-.8.31-1.16.07s-.81,0-.87.41a.62.62,0,0,0,.93.34c.23-.31.87-.49.94,0-.26.4-.23.92-.45,1.33a1.76,1.76,0,0,1-.28.73,1.51,1.51,0,0,0-.76.16,1.23,1.23,0,0,0-.93.5,2.53,2.53,0,0,0-.51,1.07c.06.41.53.53.89.55s.75.24,1.13.35c.62.14,1.2.36,1.81.5.91.27,1.85.39,2.76.64a1.28,1.28,0,0,0,.28.07c.38.08.58-.33.61-.64.18-.66.33-1.33.51-2,.13-.26.28-.86-.23-.73a2,2,0,0,1-.91.46c-.49,0-.21.54,0,.75a1.37,1.37,0,0,1-.29,1c-.29.19-.66,0-1-.1s-1-.16-.68-.61c.11-.32.12-.68.25-1a4.66,4.66,0,0,0,.27-1.1c-.21-.44-.56.15-.84.2s-.91.19-.53.53.07.68,0,1-.48.55-.84.45-.85-.29-.55-.68c.07-.32.18-.65.25-1s.25-.78.39-1.18a3.44,3.44,0,0,1,.35-1c0-.39.28-.73.27-1.12,0-.19-.11-.26-.23-.27Zm-2,4.12a.25.25,0,0,1,.12,0c.14.06.15.18,0,.3a.37.37,0,0,1-.16.11c-.26,0-.34-.06-.35-.16s0-.11.19-.2Zm-.59,2.86c-.28-.27-.24-.46.18-.77.18-.14.29-.12.49.07s.33.46.05.71a.45.45,0,0,1-.36.15A.41.41,0,0,1,229.56,302.77Zm1.73.52a.49.49,0,0,1-.36-.59v0c.07-.25.11-.27.48-.27s.48.06.49.42c0,.2,0,.25-.12.34a.6.6,0,0,1-.5.13Zm50.65,0a.33.33,0,0,1-.15-.3c0-.23.13-.4.42-.53s.55-.16.69.1.19.48,0,.71-.16.14-.45.14S282.09,303.46,281.94,303.34Zm-48.35.65a.43.43,0,0,1-.31-.46c0-.19,0-.22.14-.32a.69.69,0,0,1,.33-.14.36.36,0,0,1,.33.08c.31.22.38.43.2.64a.58.58,0,0,1-.69.2Zm12.46.56c0-.06-.14-.09-.15-.17a3.26,3.26,0,0,1,.13-.93,6.7,6.7,0,0,1,.11-.9c.11-.53.11-1.07.23-1.59a3.09,3.09,0,0,1,.11-.8c.09-.41,0-.84.13-1.25,0-.15.16-.56.31-.32a5.57,5.57,0,0,0,.81.87c.25.14,0,.35-.15.42a.54.54,0,0,0-.28.58c0,.24-.12.46-.13.7s0,.71-.09,1.07a6.26,6.26,0,0,0-.1,1.07c0,.23-.1.43-.09.66a.9.9,0,0,1-.23.67.55.55,0,0,1-.61-.08ZM262.94,299a7.16,7.16,0,0,0-.77.69c-.33.25.28.4.36.62a5.07,5.07,0,0,1,.1,1,2.5,2.5,0,0,1,.13,1c0,.35-.49.28-.69.48s-.39.39-.61.58a2.28,2.28,0,0,0-.19.93c0,.25-.18.54,0,.76l.07.11c.06.08.19,0,.28,0a2.18,2.18,0,0,0,.85-.09,20.8,20.8,0,0,1,2.08-.16c.43,0,.84-.13,1.26-.12s.49-.29.48-.55c-.19-.37,0-.81-.17-1.19a6.9,6.9,0,0,1-.15-1.21.34.34,0,0,0-.6-.19c-.19.19-.51.23-.66.48s.36.34.45.6a3.3,3.3,0,0,1,.09.83c.06.34-.31.36-.54.4s-.73.19-.9-.18a3.14,3.14,0,0,1-.13-.86c0-.5-.13-1-.16-1.51s-.13-1.24-.17-1.86c0-.26-.05-.68-.41-.6Zm-.36,4.69h.18l0,.22v.21l-.23.07a1.14,1.14,0,0,1-.23.05l-.1-.07c-.13-.09-.1-.22.07-.39s.13-.11.28-.1Zm-17-5.28c-.22.08-.49.39-.71.39-.5,0-.43.52-.07.69a2.77,2.77,0,0,1,0,.5c.07.45-.21.81-.16,1.26s-.17,1-.19,1.48-.14,1-.23,1.56-.4.3-.69.18c0-.21,0-.4,0-.61.12-.46-.25-.6-.62-.65a.48.48,0,0,1-.5-.64c.17-.2.59-.15.85-.18.56.11.54-.63.25-.89s-.68-.52-.82-.89a1.33,1.33,0,0,0-.67-1.22,1.46,1.46,0,0,0-1.32,1,7.49,7.49,0,0,0-.76.25c-.4.1-1,.8-.43,1.06.31.09,1.25.3.84.73a.89.89,0,0,1-1.09.3c-.41,0-.86-.2-.85-.67a4.93,4.93,0,0,0-.26-1.28c-.09-.48-.63-.36-.66.07a.77.77,0,0,0-.07,1.16,1.62,1.62,0,0,1-.18,1.28c-.11.49-.66.51-1,.67-.19.07-.92,0-.66.37a2.56,2.56,0,0,0,1.39.18,1.53,1.53,0,0,0,1.1-.78c.32-.32.86-.15,1.26-.16s.89.31,1.32.11c.12-.32.69-.85.87-.31a.69.69,0,0,0,.85.7c.49,0,.31.34.3.64a1.22,1.22,0,0,0,.82,1,1.19,1.19,0,0,0,.46,0c.43-.14.88-.33,1-.8a10.54,10.54,0,0,0,.31-1.23,13.94,13.94,0,0,0,.24-1.93c.16-.59.12-1.22.24-1.82.07-.44.13-.89.17-1.33-.05-.24-.15-.28-.28-.23Zm-3.86,2.36c.09,0,.14.12.15.3a.42.42,0,0,0,.24.41c.11,0,.1.14,0,.22a.81.81,0,0,1-.39.07.89.89,0,0,1-.71-.27l-.11-.11.16-.1.32-.29c.16-.16.27-.24.35-.23Zm37.54-4.47a4.1,4.1,0,0,0-.94.14c-.6,0-.89.58-.32.89.34.87.87-.18,1.42-.11.81.16.88,1,1,1.7a8.9,8.9,0,0,0,.43,1.92c.54.61-.41,1-.82.52s-1.09-.84-1.51-.32c-.51.22-.54.9-1,1.1-.69.21-.77-.64-1.14-1s-1-.51-1.49-.68c-.24-.49-.12-1.33-.62-1.67-.42.17-1.2,1-.55,1.33.63.55-.28.8-.57,1.17a2.94,2.94,0,0,0-.55,1.69c-.72.4-.86-.45-.94-1s-.59-.45-1-.22c-.54.22-.81.74-1.19,1.14a8.86,8.86,0,0,0,0,1.15c.12.46.68.25,1,.22.55-.24.78.35.33.69s-1.26.18-1.17.8a4.92,4.92,0,0,0,.94,0,1.68,1.68,0,0,0,1.35-1.3c.09-.6,1-.49,1.42-.62s1.31-.21,1.44.53c.41.43,1.28.9,1.73.32a1.38,1.38,0,0,0,.64-1.28c-.1-.44.72-.46.92-.21.3.49,1.22.34,1.67.07s.58-1,1.26-1c1-.31,2.07-.48,3.06-.86.8-.17-.12-.68-.32-1-.61-.31-1.15.93-1.83.32-.54-.41-.5-1.19-.7-1.78a4.23,4.23,0,0,0-.65-2.27,1.75,1.75,0,0,0-1.44-.48Zm-3.87,5.38a.63.63,0,0,1,.28.1.76.76,0,0,1,.43.56c0,.12,0,.12-.22.21a.86.86,0,0,1-.28.1c-.1,0-.36-.2-.36-.28a1.32,1.32,0,0,0-.07-.27c-.06-.18-.05-.18,0-.3s.1-.12.18-.12Zm3.71.19a.39.39,0,0,1,.42.22c.11.18,0,.33-.23.44a1.31,1.31,0,0,1-.25.09l-.21-.12c-.15-.11-.17-.15-.18-.27s.2-.34.45-.36Zm-5.08.06a.22.22,0,0,1,.19.09.38.38,0,0,1,.16.33,1.07,1.07,0,0,1,0,.36c0,.13,0,.12-.32.12s-.39,0-.39-.37,0-.27.13-.39a.45.45,0,0,1,.23-.14Zm-3.13.81a.35.35,0,0,1,.25.25c0,.18,0,.27-.14.34a.81.81,0,0,1-.5,0,.38.38,0,0,1-.11-.11c0-.07,0-.1,0-.14a.17.17,0,0,0,.07-.09.55.55,0,0,1,.09-.16.33.33,0,0,1,.32-.13Zm5.26.68a.35.35,0,0,1,.25.09.2.2,0,0,1,0,.32,1.26,1.26,0,0,1-.64,0,.13.13,0,0,1-.09-.13c0-.08,0-.13.16-.19a.79.79,0,0,1,.34-.09Zm-9.76,2.74c-.06,0-.14-.07-.06-.13a.8.8,0,0,1,.47-.29,2,2,0,0,0,.78-.64c0-.19.24-.29.24-.49a3.13,3.13,0,0,0,0-.81,1,1,0,0,0-.47-.55c-.15-.12-.39-.15-.44-.35s.14-.35.2-.52.24-.49.37-.72.38,0,.45.15a10.76,10.76,0,0,0,.65,1.17,1.33,1.33,0,0,1,.21.54c0,.24.13.45.12.69a2.34,2.34,0,0,1-.11.95c-.08.17-.24.27-.34.42a1.89,1.89,0,0,1-.62.42c-.16,0-.25.24-.46.19a4.31,4.31,0,0,1-.88,0s-.09-.05-.07,0Zm-3.9.25a.42.42,0,0,1-.16-.34c0-.14,0-.19.16-.33s.37-.26.8,0,.55.23.58.08a.55.55,0,0,1,.5-.27.44.44,0,0,1,.34.11c.14.11.15.13.15.39s0,.27-.16.42a.38.38,0,0,1-.38.12.43.43,0,0,1-.44-.33c0-.14-.08-.18-.12-.08a.18.18,0,0,1-.13.08,1.22,1.22,0,0,0-.45.29.46.46,0,0,1-.3.07c-.2,0-.23,0-.39-.17Zm-11.26-5.06a.91.91,0,0,0-.84.7c.09.43.45.84.22,1.29.15.58-.44.8-.84.47a7.68,7.68,0,0,0-.73-1.66c-.45-.13-.65.6-1,.86.16.43.62.81.67,1.35a1.34,1.34,0,0,1-.66,1.36c-.39.38-.92.24-1.4.32-.58.34.43.47.69.48A2,2,0,0,0,249,306c.43-.21.4-1,.92-1.05.9,0,1.8.14,2.7.16.48.12,1.23,0,1.56.31,0,.63.54,1,1,1.26.28.08.58-.28.87-.34.55-.18.38-.85.71-1.12.94-.05,1.89,0,2.83-.05.17,0,.23-.25.35-.36a9.83,9.83,0,0,0-.09-1.08c-.18-.46,0-1-.3-1.44-.47-.13-.87.3-1.35.34a1.56,1.56,0,0,0-1,1.31c-.32.51-.82-.09-.64-.51a2.67,2.67,0,0,0,0-.57c-.29-.35-.79-.23-1.19-.29-.58,0-1.15-.1-1.72-.09a7.77,7.77,0,0,1-1.53-.08c-.59,0-.51-.59-.61-1a.56.56,0,0,0-.35-.11Zm1.14,2.1a5.29,5.29,0,0,1,.56.05c.25,0,.51-.08.75,0,.56.1,1.11.08,1.67.13a.53.53,0,0,1,.35.19c0,.39,0,.79,0,1.18,0,.14.05.34-.08.44a.41.41,0,0,1-.15.07.65.65,0,0,1-.39-.28,4.15,4.15,0,0,1,0-.61c0-.05,0-.13,0-.17a.69.69,0,0,0-.41-.15c-.48,0-.95,0-1.44-.07a5.34,5.34,0,0,1-1.2-.07c-.16-.05-.36,0-.45-.19s.06-.34.2-.41a1.38,1.38,0,0,1,.57-.11Zm6.41.14c.09,0,.12,0,.16.2a1.87,1.87,0,0,0,.07.28c0,.07,0,.09-.11.13-.28.1-.56.09-.65,0s0-.25.08-.32a.89.89,0,0,1,.45-.25Z" transform="translate(-0.42 -85.42)"/><path class="cls-12" d="M263.2,229.29c.38,0-.51-2-.51-2,1,1,4.79,1.27,4.79,1.27-2.27-1-4.54-8.58-4.28-14.62s-.86-8.45-1.76-9.34c-1.13-1.14-4.79-2.14-7.19-2.27-1.36-.07-1.14,1-1.14,1-2.52-.64-5-.89-6.17-.13s-1.3,4.28-.52,3.65c1.9-1.51,3.55-.13,4.68,1.52,1,1.45.94,5.55-.51,10.34-1.52,5-5.66,10.07-5.66,10.07,2.25,0,5.41-2,5.41-2l-.75,3.14a19.61,19.61,0,0,0,4.28-2.9l2.27,2.39a24.22,24.22,0,0,1,2.27-2.39,8.25,8.25,0,0,0,4.79,2.28Z" transform="translate(-0.42 -85.42)"/><path class="cls-13" d="M254,214.78s-1.27,9.34-3.65,12M256,214.54s-.49,9.45-2.14,12.48m3.92-12.1s0,10.34.62,12.1M260,215.43s.51,8.69,2.65,11.83" transform="translate(-0.42 -85.42)"/><path class="cls-14" d="M251.7,210.26a4.52,4.52,0,0,0-.6-1.9c-1.13-1.65-2.78-3-4.68-1.51,0,0,.65-2,2-2.08,1.07-.06,3.5.81,5.64,4.46,0,0-1.58-.36-2,0-.72.62-.43,1-.43,1Z" transform="translate(-0.42 -85.42)"/><path class="cls-14" d="M246.23,204.37a2.16,2.16,0,0,1,.71-1.18c1.14-.76,3.65-.51,6.17.14,0,0-.22-1.1,1.14-1,2.41.13,6.06,1.14,7.2,2.27a4.58,4.58,0,0,1,.84,1.36h0c-.56-.78-2.14-.73-2.52-.69a10.6,10.6,0,0,0-1.78.25,3.69,3.69,0,0,0-1.27.44c-.25.2-.45.94-.83.94-.6,0-.55-.16-.71-.34s-.31-.6-.51-.57c-.63.11-1.63-.38-2.9-1.39a3.89,3.89,0,0,0-3.41-1.13,2.61,2.61,0,0,0-2.14,1Z" transform="translate(-0.42 -85.42)"/><circle class="cls-2" cx="255.12" cy="119.75" r="0.67"/><path class="cls-15" d="M256.19,271.43a43.24,43.24,0,0,0,17-35.18,7.14,7.14,0,0,1-1.45.15c-3.89,0-13.17-2.23-15.34-5.05-2.32,2.56-11.8,5.05-15.67,5.05a7,7,0,0,1-1.45-.15,43.2,43.2,0,0,0,16.94,35.18Z" transform="translate(-0.42 -85.42)"/><path class="cls-16" d="M271.68,237.78l-.48,0c-3.53,0-11.72-1.81-14.88-4.52-3.31,2.5-11.64,4.52-15.11,4.52a2.61,2.61,0,0,1-.48-.05c0,.79,0,1.61.08,2.36a41.47,41.47,0,0,0,1.41,8.27,40.48,40.48,0,0,0,14,21.12,40.5,40.5,0,0,0,14-21.14,41.47,41.47,0,0,0,1.41-8.27c.05-.78.09-1.74.09-2.31Z" transform="translate(-0.42 -85.42)"/><g class="cls-17"><path class="cls-18" d="M240.64,233.08H251v36.55H240.64Z" transform="translate(-0.42 -85.42)"/><path class="cls-19" d="M251,233.08H261.4v36.55H251Z" transform="translate(-0.42 -85.42)"/><path class="cls-18" d="M261.4,233.08h10.38v36.55H261.4Z" transform="translate(-0.42 -85.42)"/></g></svg>