<svg xmlns="http://www.w3.org/2000/svg" xmlns:xlink="http://www.w3.org/1999/xlink" viewBox="0 0 512 512" xmlns:v="https://vecta.io/nano"><path d="M378.52 81.904h-14.652a9.13 9.13 0 0 0-9.13 9.13v68.435h32.912V91.035c.001-5.043-4.088-9.131-9.13-9.131z" fill="#eba31e"/><use xlink:href="#B" fill="#fcbd1b"/><path d="M157.26 91.03v68.441h-32.914V91.03c0-5.036 4.096-9.122 9.132-9.122h14.649a9.13 9.13 0 0 1 9.133 9.122z" fill="#eba31e"/><use xlink:href="#B" x="-230.391" fill="#fcbd1b"/><path d="M156.182 17.09L140.806 1.715 125.43 17.09c-8.492 8.492-8.492 22.261 0 30.752h0c8.492 8.492 22.26 8.492 30.752 0h0c8.493-8.49 8.493-22.259 0-30.752z" fill="#ef2e61"/><path d="M301.724 81.904h-14.652a9.13 9.13 0 0 0-9.13 9.13v68.435h32.912V91.035c0-5.043-4.088-9.131-9.13-9.131z" fill="#eba31e"/><path d="M309.775 17.09L294.398 1.715l-15.377 15.377c-8.492 8.492-8.492 22.261 0 30.752h0c8.492 8.492 22.261 8.492 30.752 0h0a21.75 21.75 0 0 0 .002-30.754z" fill="#ef2e61"/><path d="M224.928 81.904h-14.652a9.13 9.13 0 0 0-9.13 9.13v68.435h32.912V91.035a9.13 9.13 0 0 0-9.13-9.131z" fill="#eba31e"/><path d="M232.979 17.09L217.602 1.715l-15.377 15.377c-8.492 8.492-8.492 22.261 0 30.752h0c8.492 8.492 22.261 8.492 30.752 0h0a21.75 21.75 0 0 0 .002-30.754z" fill="#ef2e61"/><g fill="#fcbd1b"><use xlink:href="#B" x="-153.593"/><path d="M310.854 91.03v68.441H290.74V91.03a9.13 9.13 0 0 1 9.132-9.122h1.849a9.13 9.13 0 0 1 9.133 9.122z"/></g><path d="M386.57 17.09L371.194 1.715l-15.377 15.377c-8.492 8.492-8.492 22.261 0 30.752h0c8.492 8.492 22.26 8.492 30.752 0h0a21.75 21.75 0 0 0 .001-30.754z" fill="#ef2e61"/><path d="M414.066 139.267H97.934c-16.423 0-29.736 13.313-29.736 29.736v90.129L443.8 278.574V169.002c.002-16.422-13.311-29.735-29.734-29.735z" fill="#fed799"/><path d="M177.346 139.267H97.934c-16.423 0-29.736 13.313-29.736 29.736v90.129h79.412v-90.13c.001-16.422 13.314-29.735 29.736-29.735z" fill="#e5b776"/><path d="M443.81 169.001v13.73c-15.663 0-15.663 20.898-31.316 20.898s-15.653-20.898-31.305-20.898-15.653 20.898-31.295 20.898c-15.653 0-15.653-20.898-31.305-20.898s-15.653 20.898-31.305 20.898-15.653-20.898-31.295-20.898c-15.653 0-15.653 20.898-31.305 20.898-15.642 0-15.642-20.898-31.295-20.898-15.642 0-15.642 20.898-31.295 20.898-15.642 0-15.642-20.898-31.295-20.898s-15.653 20.898-31.305 20.898c-15.642 0-15.642-20.898-31.295-20.898v-13.73c0-16.415 13.312-29.738 29.738-29.738h316.134c16.416 0 29.739 13.322 29.739 29.738z" fill="#ef2e61"/><path d="M177.346 139.267H97.934c-6.265 0-12.075 1.942-16.868 5.251-7.771 5.367-12.865 14.331-12.865 24.483v13.73c15.653 0 15.653 20.898 31.295 20.898 15.653 0 15.653-20.898 31.305-20.898 8.596 0 12.473 6.302 16.81 11.984v-25.713c0-16.422 13.313-29.735 29.735-29.735z" fill="#d82149"/><path d="M457.994 259.13H54.006c-16.98 0-30.744 13.764-30.744 30.744v84.581l465.479 18.358V289.876c-.001-16.981-13.766-30.746-30.747-30.746z" fill="#fed799"/><path d="M160.585 259.13H54.006c-16.98 0-30.744 13.764-30.744 30.744v84.581h106.58v-84.581c-.002-16.979 13.763-30.744 30.743-30.744z" fill="#e5b776"/><path d="M488.741 289.875v17.972c-19.404 0-19.404 20.898-38.797 20.898-19.404 0-19.404-20.898-38.797-20.898s-19.393 20.898-38.797 20.898c-19.393 0-19.393-20.898-38.787-20.898s-19.393 20.898-38.787 20.898-19.393-20.898-38.797-20.898c-19.383 0-19.383 20.898-38.776 20.898s-19.393-20.898-38.797-20.898c-19.393 0-19.393 20.898-38.787 20.898s-19.393-20.898-38.787-20.898-19.393 20.898-38.787 20.898-19.393-20.898-38.787-20.898v-17.972c0-16.98 13.761-30.741 30.741-30.741h403.989c16.981 0 30.753 13.761 30.753 30.741z" fill="#b35222"/><path d="M54 259.134c-16.98 0-30.741 13.761-30.741 30.741v17.972c19.393 0 19.393 20.898 38.787 20.898s19.393-20.898 38.787-20.898c15.432 0 18.593 13.223 29.007 18.629v-36.601c0-16.943 13.707-30.683 30.636-30.742L54 259.134h0z" fill="#9b361f"/><path d="M227.892 393.268h56.222v98.22h-56.222z" fill="#099ab2"/><path d="M474.386 412.071H37.614C16.841 412.071 0 395.231 0 374.457h0 512 0c0 20.774-16.841 37.614-37.614 37.614z" fill="#0daace"/><path d="M108.669 374.457H0c0 20.774 16.841 37.614 37.614 37.614h108.669c-20.773 0-37.614-16.84-37.614-37.614zm285.595 135.828H117.732a37.46 37.46 0 0 1 11.024-26.593c6.802-6.813 16.206-11.024 26.593-11.024h201.3c20.771.001 37.615 16.845 37.615 37.617z" fill="#099ab2"/><path d="M394.264 510.285H160.228c0-10.386 4.211-19.79 11.013-26.593 6.813-6.813 16.217-11.024 26.603-11.024h158.804c20.772.001 37.616 16.845 37.616 37.617z" fill="#0daace"/><defs ><path id="B" d="M387.651 91.03v68.441h-20.114V91.03a9.13 9.13 0 0 1 9.132-9.122h1.849a9.13 9.13 0 0 1 9.133 9.122z"/></defs></svg>