<svg xmlns="http://www.w3.org/2000/svg" viewBox="0 0 56 56" xmlns:v="https://vecta.io/nano"><path d="M31 56C17.469 56 6.5 43.464 6.5 28S17.469 0 31 0s24.5 12.536 24.5 28S44.531 56 31 56" fill="#ffd949"/><path d="M6.5 28C6.5 13.698 15.885 1.908 28 .216A21.73 21.73 0 0 0 25 0C11.469 0 .5 12.536.5 28S11.469 56 25 56a21.73 21.73 0 0 0 3-.216C15.885 54.092 6.5 42.302 6.5 28m24.585 22.524h-.086a17.82 17.82 0 0 1-2.095-.124 1 1 0 0 1-.875-1.112c.066-.549.567-.932 1.112-.874.612.073 1.237.11 1.858.11.553 0 1.043.448 1.043 1s-.403 1-.957 1m5.815-1.077a1 1 0 0 1-.353-1.936c.576-.217 1.151-.472 1.706-.757a1 1 0 0 1 1.347.433 1 1 0 0 1-.434 1.346c-.623.32-1.266.604-1.914.849-.115.044-.234.065-.352.065m-13.535-.764c-.152 0-.307-.035-.452-.109-.615-.313-1.224-.664-1.809-1.048a1 1 0 0 1-.289-1.384c.304-.461.922-.591 1.385-.289a16.93 16.93 0 0 0 1.618.938 1 1 0 0 1-.453 1.892m20.11-3.558a1 1 0 0 1-.71-1.704c.435-.438.858-.91 1.257-1.402a1 1 0 1 1 1.552 1.262l-1.389 1.548a1 1 0 0 1-.71.296m-26.218-1.408a1 1 0 0 1-.774-.365l-1.238-1.665a1 1 0 0 1 1.658-1.119l1.127 1.515a1 1 0 0 1-.139 1.408c-.185.152-.411.226-.634.226m30.614-5.137c-.134 0-.269-.027-.399-.083a1 1 0 0 1-.518-1.317l.681-1.769a1 1 0 1 1 1.896.638l-.743 1.93c-.165.376-.533.601-.917.601m-34.426-1.767c-.416 0-.805-.263-.947-.678l-.583-1.983a1 1 0 0 1 .728-1.211 1 1 0 0 1 1.212.728l.536 1.82a1 1 0 0 1-.623 1.269c-.106.037-.216.055-.323.055m36.315-5.897c-.026 0-.052-.001-.078-.003a1 1 0 0 1-.92-1.075L48.833 28c0-.552.448-1.032 1-1.032s1 .415 1 .967V28l-.077 1.993a1 1 0 0 1-.996.923m-37.594-1.905a.99.99 0 0 1-1-.989V28l.08-2.037a1 1 0 1 1 1.994.158L13.166 28a1.01 1.01 0 0 1-1 1.011m36.936-5.963a1 1 0 0 1-.968-.755l-.54-1.821a1 1 0 0 1 .622-1.27c.523-.181 1.092.099 1.27.622l.587 1.979a1 1 0 0 1-.725 1.214c-.081.022-.163.031-.246.031m-35.67-1.817c-.107 0-.215-.018-.322-.054a1 1 0 0 1-.626-1.268l.747-1.928a1 1 0 1 1 1.833.801l-.685 1.769a1 1 0 0 1-.947.68m32.47-5.393a1 1 0 0 1-.829-.44l-1.13-1.512a1 1 0 1 1 1.544-1.272l1.242 1.663a1 1 0 0 1-.267 1.389c-.172.116-.366.172-.56.172m-28.674-1.521c-.222 0-.446-.074-.632-.226a1 1 0 0 1-.141-1.407l1.391-1.545a1 1 0 1 1 1.419 1.41l-1.262 1.401c-.196.242-.484.367-.775.367m23.082-4.03a.99.99 0 0 1-.544-.162 17.01 17.01 0 0 0-1.622-.934 1 1 0 0 1 .902-1.785 18.77 18.77 0 0 1 1.811 1.043 1 1 0 0 1 .292 1.384c-.192.295-.511.454-.839.454m-16.981-.95a1 1 0 0 1-.455-1.891c.623-.317 1.267-.602 1.916-.844a1 1 0 0 1 1.287.586 1 1 0 0 1-.587 1.287c-.578.216-1.153.469-1.709.753a.99.99 0 0 1-.452.109m9.606-1.749a.92.92 0 0 1-.117-.007 15.81 15.81 0 0 0-1.819-.105c-.552 0-1.021-.448-1.021-1s.427-1 .979-1h.042c.682 0 1.372.04 2.05.119a1 1 0 0 1-.114 1.993" fill="#f4bf1a"/><path d="M6.498 29H.5l.119 2h6.003l-.124-2m.229-5H.731l-.184 2h5.999l.181-2m.321 10H1.047l.451 2h5.999l-.449-2m1.399 5H2.443l.837 2h6.001l-.834-2m-.675-20H1.779l-.529 2h6.007l.515-2m1.992-5h-6l-.925 2h6.004l.921-2m4.081-6H7.838l-1.622 2h6.005l1.624-2m6.115-5h-6.013a24.05 24.05 0 0 0-2.936 2h6.009a24.09 24.09 0 0 1 2.94-2m-8.441 42H5.516l1.472 2h6.007l-1.476-2m-1.687 5c.803.723 1.644 1.394 2.524 2h6.014c-.884-.607-1.734-1.274-2.54-2H9.832z" fill="#dca815"/></svg>