<svg xmlns="http://www.w3.org/2000/svg" viewBox="0 0 512 512" xmlns:v="https://vecta.io/nano"><g fill="#e9e3d5"><path d="M448.37 211.621c-13.024 0-26.049-4.857-35.965-14.57-3.003-2.941-3.053-7.761-.111-10.764s7.761-3.053 10.764-.111c13.957 13.673 36.667 13.672 50.624 0 8.756-8.579 13.579-19.973 13.579-32.082s-4.823-23.503-13.579-32.082c-23.466-22.988-61.625-23.009-85.064-.048-3.003 2.941-7.823 2.892-10.764-.111s-2.892-7.823.111-10.764c29.313-28.717 77.031-28.696 106.37.048 11.703 11.465 18.149 26.72 18.149 42.955s-6.445 31.491-18.149 42.957c-9.916 9.716-22.941 14.572-35.965 14.572z"/><path d="M383.287 123.982c-1.711 0-3.431-.573-4.852-1.751-3.237-2.682-3.687-7.481-1.006-10.717l19.949-23.604c7.064-7.879 7.124-17.712.15-25.049-2.347-2.47-5.439-3.829-8.703-3.829s-6.356 1.36-8.702 3.829c-3.5 3.682-3.5 7.738 0 11.42 2.896 3.047 2.774 7.865-.273 10.761s-7.865 2.774-10.762-.273c-9.065-9.538-9.065-22.859 0-32.396 5.249-5.523 12.259-8.564 19.736-8.564s14.488 3.042 19.738 8.564c12.46 13.108 12.521 31.9.15 45.698-4.941 5.512-19.415 22.978-19.562 23.153-1.503 1.818-3.676 2.758-5.863 2.758zm29.637-92.411c-4.204 0-7.611-3.408-7.611-7.611 0-6.27-5.236-9.902-5.287-9.937-3.541-2.266-4.573-6.974-2.307-10.514s6.973-4.574 10.514-2.307c4.57 2.925 12.304 11.01 12.304 22.757-.001 4.204-3.409 7.612-7.613 7.612zm-29.772 1.582a7.58 7.58 0 0 1-5.09-1.954c-.672-.604-3.227-1.318-5.16-1.442-4.178-.267-7.379-3.861-7.136-8.04s3.813-7.366 7.977-7.16c1.522.08 9.376.714 14.501 5.327 3.125 2.812 3.378 7.625.566 10.749a7.58 7.58 0 0 1-5.658 2.52zm121.243 86.378c-2.44 0-4.837-1.171-6.308-3.343-.537-.793-3.06-2.153-4.624-2.627-4.022-1.224-6.291-5.475-5.068-9.497s5.473-6.291 9.497-5.068c1.458.445 8.931 2.945 12.797 8.654 2.358 3.481 1.447 8.213-2.033 10.571-1.306.886-2.791 1.31-4.261 1.31z"/></g><path d="M203.983 221.575c-37.867 14.617-72.323 36.981-101.096 65.752L10.81 379.404c-14.413 14.413-14.413 37.78 0 52.194l69.591 69.591c14.413 14.413 37.78 14.413 52.194 0l92.077-92.077c28.771-28.771 51.135-63.228 65.752-101.096L273.3 238.698l-69.317-17.123z" fill="#00bd4f"/><path d="M273.385 288.021c-12.787 38.363-34.372 74.456-64.855 104.943l-92.082 92.081c-5.5 5.499-14.4 5.5-19.901-.001l-69.591-69.591c-7.172-7.172-17.925-8.564-26.5-4.2a36.73 36.73 0 0 0 10.353 20.346L80.4 501.19c14.413 14.413 37.78 14.413 52.194 0l92.077-92.077c28.771-28.772 51.135-63.228 65.752-101.096l-9.783-39.6a319.21 319.21 0 0 0-7.25 19.586z" fill="#00973c"/><path d="M295.049 295.242c14.302-42.906 38.396-81.891 70.376-113.87l12.265-12.265-34.796-34.796-12.265 12.265c-31.979 31.979-70.965 56.073-113.87 70.376-4.303 1.435-8.554 2.994-12.775 4.623l86.442 86.442c1.628-4.22 3.188-8.472 4.623-12.775z" fill="#ffcf5d"/><g fill="#ffb545"><path d="M412.484 134.312l-34.796-34.796c-2.402-2.402-6.297-2.402-8.699 0l-34.796 34.796c-2.402 2.402-2.402 6.297 0 8.699l34.796 34.796c2.402 2.402 6.296 2.402 8.699 0l34.796-34.796c2.402-2.402 2.402-6.297 0-8.699z"/><path d="M412.484 134.312l-11.187-11.187c-3.742 2.107-2.385 1.166-33.081 31.861-5.559.187-10.994 2.384-15.374 6.675h0 0c-41.656 41.662-64.143 81.663-80.221 128.552l17.805 17.804c9.291-24.074 20.921-72.568 78.564-130.21a6.15 6.15 0 0 0 8.698 0l34.796-34.796c2.402-2.402 2.402-6.297 0-8.699z"/></g><path d="M195.861 363.376l-31.491-31.491-15.746-15.746c-8.696-8.696-22.795-8.696-31.491 0l-63.679 63.679c-8.696 8.696-8.696 22.795 0 31.491L69.2 427.055l31.491 31.491c8.696 8.696 22.795 8.696 31.491 0l63.679-63.679c8.696-8.696 8.696-22.795 0-31.491z" fill="#fff9eb"/><circle cx="247.202" cy="264.798" r="25.372" fill="#ff983b"/><path d="M472.285 16.842L447.778 44.03c-2.935 3.483-2.479 8.687 1.016 11.607l10.833 9.052c3.474 2.903 8.642 2.451 11.559-1.011l24.552-27.24-23.453-19.596z" fill="#ce795f"/><path d="M474.172 38.317c-10.192-8.516-13.451-19.607-7.75-26.372s17.237-5.496 27.428 3.02 13.451 19.607 7.749 26.372-17.236 5.495-27.427-3.02z" fill="#a05a4b"/></svg>