<svg xmlns="http://www.w3.org/2000/svg" height="512" viewBox="0 0 58 56" width="512" xmlns:v="https://vecta.io/nano"><path d="M38 45.81a1 1 0 0 1-1-1c.001-.115.02-.229.058-.337l.007-.02C38.028 41.67 40.6 37 46.97 37c6.843 0 8.259-6.6 8.473-7.92a1.76 1.76 0 0 0-.391-1.441c-.34-.406-.843-.64-1.372-.639h-7.59a1 1 0 1 1 0-2h7.59c1.114-.001 2.171.488 2.891 1.338s1.029 1.974.845 3.072c-.158.973-1.8 9.59-10.446 9.59-4.876 0-7.049 3.318-8.014 6.1a1 1 0 0 1-.956.71z" fill="#95a5a5"/><path d="M18.33 39.76L12.9 31.9a17.46 17.46 0 0 1-2.9-9.32V22l18-2 20 2v.58c-.03 3.51-1.195 6.916-3.32 9.71-1.92 2.55-4.18 6.85-5.37 13.71L31 49z" fill="#e64c3c"/><path d="M51 47.95v.11a1.96 1.96 0 0 1-.73 1.53l-3.73 2.98a1.95 1.95 0 0 1-1.22.43H27.41l.82-.76c1.757-1.697 2.989-3.863 3.55-6.24h17.27c.517-.001 1.014.204 1.38.57s.571.863.57 1.38z" fill="#c03a2b"/><path d="M31.78 46c-.561 2.377-1.793 4.543-3.55 6.24l-.82.76c-4.07 3.48-9.43 4.02-12.35 1.12-.065-.062-.126-.128-.18-.2-.02-.017-.036-.038-.05-.06-.226-.245-.43-.509-.61-.79 2.47-2.34 4.33-.56 6.8-3.02 2.51-2.5.63-4.38 3.14-6.88 2.46-2.46 4.33-.68 6.79-3.02h.01c.182.291.342.596.48.91a8.21 8.21 0 0 1 .34 4.94z" fill="#805333"/><path d="M30.96 40.15h-.01c-2.46 2.34-4.33.56-6.79 3.02-2.51 2.5-.63 4.38-3.14 6.88-2.47 2.46-4.33.68-6.8 3.02-.182-.295-.342-.602-.48-.92-1.38-3.25-.2-7.79 3.21-11.17a12.99 12.99 0 0 1 1.38-1.21v-.01c3.99-3.06 8.99-3.43 11.79-.66.085.079.162.166.23.26a6.42 6.42 0 0 1 .61.79z" fill="#a56a43"/><path d="M18.33 39.76v.01a12.99 12.99 0 0 0-1.38 1.21c-3.74 3.71-4.8 8.82-2.73 12.09a5.88 5.88 0 0 0 .66.85 10.28 10.28 0 0 1-2.93 1.63 9.1 9.1 0 0 1-.99.27c-.1-4-3.14-4.06-3.14-8.15 0-4.17 3.14-4.17 3.14-8.34 0-4.09-3.04-4.15-3.14-8.15a8.15 8.15 0 0 1 .99-.15c.193-.02.386-.03.58-.03a7.39 7.39 0 0 1 3.51.9 11.74 11.74 0 0 1 5.43 7.86z" fill="#cb8252"/><path d="M7.82 47.67c0 4.09 3.04 4.15 3.14 8.15a8.46 8.46 0 0 1-.99.15C4.51 56.4-.01 50.65 0 43.5c-.01-5.71 2.89-10.54 6.83-12.02.32-.13.652-.23.99-.3.1 4 3.14 4.06 3.14 8.15 0 4.17-3.14 4.17-3.14 8.34z" fill="#cf976a"/><path d="M22 13a1 1 0 0 1-1-1c.019-1.016.508-1.966 1.324-2.571.481-.441.676-.638.676-1.1s-.2-.656-.676-1.1C21.509 6.625 21.02 5.677 21 4.663a3.27 3.27 0 0 1 1.325-2.569C22.805 1.653 23 1.457 23 1a1 1 0 1 1 2 0 3.27 3.27 0 0 1-1.324 2.568c-.481.441-.676.637-.676 1.1s.2.656.676 1.1c.814.603 1.303 1.55 1.324 2.563a3.28 3.28 0 0 1-1.324 2.569c-.476.444-.676.641-.676 1.1a1 1 0 0 1-1 1zm6 0a1 1 0 0 1-1-1c.019-1.016.508-1.966 1.324-2.571.481-.441.676-.638.676-1.1s-.2-.656-.676-1.1C27.509 6.625 27.02 5.677 27 4.663a3.27 3.27 0 0 1 1.325-2.569C28.805 1.653 29 1.457 29 1a1 1 0 1 1 2 0 3.27 3.27 0 0 1-1.324 2.568c-.481.441-.676.637-.676 1.1s.2.656.676 1.1c.814.603 1.303 1.55 1.324 2.563a3.28 3.28 0 0 1-1.324 2.569c-.476.444-.676.641-.676 1.1a1 1 0 0 1-1 1zm6 0a1 1 0 0 1-1-1c.019-1.016.508-1.966 1.324-2.571.481-.441.676-.638.676-1.1s-.2-.656-.676-1.1C33.509 6.625 33.02 5.677 33 4.663a3.27 3.27 0 0 1 1.325-2.569C34.805 1.653 35 1.457 35 1a1 1 0 1 1 2 0 3.27 3.27 0 0 1-1.324 2.568c-.481.441-.676.637-.676 1.1s.2.656.676 1.1c.814.603 1.303 1.55 1.324 2.563a3.28 3.28 0 0 1-1.324 2.569c-.476.444-.676.641-.676 1.1a1 1 0 0 1-1 1zM10.18 51.22a7.1 7.1 0 0 1 1.77 4.33 9.1 9.1 0 0 1-.99.27 8.46 8.46 0 0 1-.99.15c-.008-.039-.012-.08-.01-.12-.028-1.271-.514-2.49-1.37-3.43-2.36-2.734-2.36-6.786 0-9.52.895-.972 1.385-2.249 1.37-3.57a5.11 5.11 0 0 0-1.36-3.55c-1.054-1.195-1.678-2.709-1.77-4.3.32-.13.652-.23.99-.3a8.15 8.15 0 0 1 .99-.15c.008.039.012.08.01.12.028 1.271.514 2.49 1.37 3.43 2.36 2.734 2.36 6.786 0 9.52-.895.972-1.385 2.249-1.37 3.57a5.11 5.11 0 0 0 1.36 3.55z" fill="#805333"/><path d="M31.44 41.06c-1.03.906-2.331 1.448-3.7 1.54a4.41 4.41 0 0 0-4.16 4.15c-.244 3.132-2.737 5.617-5.87 5.85a4.31 4.31 0 0 0-2.8 1.2c-.03.02-.05.04-.08.06-.226-.245-.43-.509-.61-.79-.182-.295-.342-.602-.48-.92a6.3 6.3 0 0 1 3.69-1.53c1.088-.044 2.118-.502 2.88-1.28.784-.755 1.246-1.783 1.29-2.87.244-3.128 2.732-5.611 5.86-5.85 1.047-.045 2.041-.467 2.8-1.19a.55.55 0 0 1 .09-.07 6.42 6.42 0 0 1 .61.79c.182.291.342.596.48.91z" fill="#603e26"/><path d="M48 18v4H10v-4c.003-1.103.897-1.997 2-2h34c1.103.003 1.997.897 2 2z" fill="#f9eab0"/></svg>