<svg xmlns="http://www.w3.org/2000/svg" height="512" width="512" xmlns:v="https://vecta.io/nano"><path d="M128 193.137L88 400l-44.868 22.434A34.61 34.61 0 0 0 58.61 488h0a34.61 34.61 0 0 0 30.956-19.132L112 424l206.863-40L232 256z" fill="#3ea7ff"/><path d="M318.86 384L112 424l-22.43 44.87a34.594 34.594 0 0 1-52.68 11.45L88 400l144-144z" fill="#2b7cd4"/><path d="M241.137 80h0A113.137 113.137 0 0 0 128 193.137h0a113.137 113.137 0 0 0 33.137 80l77.726 77.726a113.137 113.137 0 0 0 80 33.137h0A113.137 113.137 0 0 0 432 270.863h0a113.137 113.137 0 0 0-33.137-80l-77.726-77.726a113.137 113.137 0 0 0-80-33.137z" fill="#104f91"/><path d="M267.979 158.973L288 184l20.021-25.027a88 88 0 0 0 0-109.946L288 24l-20.021 25.027a88 88 0 0 0 0 109.946z" fill="#42c25e"/><path d="m280 80h16v104h-16z" fill="#2dac4d"/><path d="M249.73 181.838L280 184l-5.206-36.445A88 88 0 0 0 187.678 72H168v22.062a88 88 0 0 0 81.73 87.776z" fill="#7ab555"/><path d="M200.769 116.134l11.312-11.312 73.528 73.528-11.312 11.312z" fill="#5a8a41"/><path d="M355.805 281.196l-31.854-3.539 3.539 31.854a88 88 0 0 0 77.744 77.744l31.854 3.539-3.539-31.854a88 88 0 0 0-77.744-77.744z" fill="#7ab555"/><path d="M318.229 283.322l11.312-11.312 73.528 73.528-11.312 11.312z" fill="#5a8a41"/><path d="M352.541 252.125L329.608 272l29.452 22.089a88 88 0 0 0 115.025-8.175L488 272l-15.6-15.6a88 88 0 0 0-119.859-4.275z" fill="#42c25e"/><path d="M329.608 264H432v16H329.608z" fill="#2dac4d"/><path d="m56 400 56 56 8-24 32-8-64-64-8 32z" fill="#f2e368"/><path d="M402.393 182.517a48.001 48.001 0 1 0-87.982-37.536 55.998 55.998 0 1 0 18.033 103.253 47.996 47.996 0 1 0 69.949-65.718z" fill="#c7161f"/><path d="M402.39 182.52a47.73 47.73 0 0 0 5.27-16.75 63.918 63.918 0 0 0-31.29-13.22A39.942 39.942 0 0 0 344 136l-3.69.18L336 136a55.849 55.849 0 0 0-19.38 3.45 45.855 45.855 0 0 0-2.21 5.53 57.3 57.3 0 0 0-7.37-.9 55.997 55.997 0 1 0 58.66 95.4 31.975 31.975 0 0 0 17.14-53.87A40.075 40.075 0 0 0 384 176a39.658 39.658 0 0 0-.37-5.37 48.19 48.19 0 0 1 19.1 12.25l-.34-.36zM344 152a24.032 24.032 0 0 1 24 24l-.02 1.01a31.894 31.894 0 0 0-6.06-.95 23.98 23.98 0 0 0-40.55 7.95A24.014 24.014 0 0 1 344 152zm-8 80a39.98 39.98 0 0 1-30.87-65.41 39.967 39.967 0 0 0 23.23 46.23 32.023 32.023 0 0 0 10.39 19.08l-2.75.1zm0-40a8 8 0 1 1 8 8 8.011 8.011 0 0 1-8-8zm24 32a15.981 15.981 0 0 1-13.89-8.1 24.03 24.03 0 0 0 21.79-21.79A15.985 15.985 0 0 1 360 224z" fill="#b50912"/><path d="M272 208a48.003 48.003 0 0 0-70.527-42.387 47.998 47.998 0 1 0-56.378 76.579 48.007 48.007 0 0 0 89.097 12.713A48.01 48.01 0 0 0 272 208z" fill="#eb352f"/><path d="M168.1 221.89a15.985 15.985 0 1 1 21.79-21.79 24.03 24.03 0 0 0-21.79 21.79zM192 232a8 8 0 1 1 8-8 8.011 8.011 0 0 1-8 8zm16 16a24.024 24.024 0 0 1-8.01-1.37 23.98 23.98 0 0 0 7.95-40.55 31.894 31.894 0 0 0-.95-6.06L208 200a24 24 0 0 1 0 48zm23.45-56.38a64.147 64.147 0 0 0-13.28-31.27 47.817 47.817 0 0 0-16.53 5.17l-.06.03-.11.06c-.01 0-.01.01-.02.01a48.425 48.425 0 0 1 11.91 18.75A39.435 39.435 0 0 0 208 184a40.066 40.066 0 0 0-9.61 1.16 31.974 31.974 0 0 0-53.26 14.44 72.2 72.2 0 0 0-14.56 30.45 48.349 48.349 0 0 0 14.5 12.13 56.178 56.178 0 0 1 3.71-17.37 32.112 32.112 0 0 0 22.4 14.83 39.997 39.997 0 1 0 60.27-48.02z" fill="#c7161f"/><path d="M376 304a48.003 48.003 0 0 0-70.527-42.387 47.998 47.998 0 1 0-56.378 76.579 48.007 48.007 0 0 0 89.097 12.713A48.01 48.01 0 0 0 376 304z" fill="#eb352f"/><path d="M272.1 317.89a15.985 15.985 0 1 1 21.79-21.79 24.03 24.03 0 0 0-21.79 21.79zM296 328a8 8 0 1 1 8-8 8.011 8.011 0 0 1-8 8zm16 16a24.024 24.024 0 0 1-8.01-1.37 23.98 23.98 0 0 0 7.95-40.55 31.894 31.894 0 0 0-.95-6.06L312 296a24 24 0 0 1 0 48zm23.45-56.38a64.147 64.147 0 0 0-13.28-31.27 47.817 47.817 0 0 0-16.53 5.17l-.06.03-.11.06c-.01 0-.01.01-.02.01a48.425 48.425 0 0 1 11.91 18.75A39.435 39.435 0 0 0 312 280a40.066 40.066 0 0 0-9.61 1.16 31.974 31.974 0 0 0-53.26 14.44 72.2 72.2 0 0 0-14.56 30.45 48.349 48.349 0 0 0 14.5 12.13 56.178 56.178 0 0 1 3.71-17.37 32.112 32.112 0 0 0 22.4 14.83 39.997 39.997 0 1 0 60.27-48.02z" fill="#c7161f"/></svg>