<svg xmlns="http://www.w3.org/2000/svg" xmlns:xlink="http://www.w3.org/1999/xlink" height="512" viewBox="0 0 510 510" width="512" xmlns:v="https://vecta.io/nano"><linearGradient id="A" gradientUnits="userSpaceOnUse"><stop offset="0" stop-color="#faa68e"/><stop offset=".206" stop-color="#fba682"/><stop offset=".581" stop-color="#fda861"/><stop offset="1" stop-color="#ffa936"/></linearGradient><linearGradient id="B" x1="223.354" x2="250.264" xlink:href="#A" y1="298.877" y2="357.872"/><linearGradient id="C" gradientUnits="userSpaceOnUse"><stop offset="0" stop-color="#f82814" stop-opacity="0"/><stop offset=".245" stop-color="#f12817" stop-opacity=".245"/><stop offset=".605" stop-color="#dd2820" stop-opacity=".605"/><stop offset="1" stop-color="#c0272d"/></linearGradient><linearGradient id="D" x1="251.503" x2="228.789" xlink:href="#C" y1="361.785" y2="296.086"/><linearGradient id="E" gradientUnits="userSpaceOnUse" x1="145.065" x2="264.908" y1="221.175" y2="364.7"><stop offset="0" stop-color="#ffd945"/><stop offset=".304" stop-color="#ffcd3e"/><stop offset=".856" stop-color="#ffad2b"/><stop offset="1" stop-color="#ffa325"/></linearGradient><linearGradient id="F" gradientUnits="userSpaceOnUse"><stop offset="0" stop-color="#f82814" stop-opacity="0"/><stop offset="1" stop-color="#c0272d"/></linearGradient><linearGradient id="G" x1="310.981" x2="353.5" xlink:href="#F" y1="213.311" y2="153.03"/><linearGradient id="H" x1="291.249" x2="99.643" xlink:href="#F" y1="237.086" y2="-59.293"/><linearGradient id="I" x1="193.19" x2="112.458" xlink:href="#F" y1="258.64" y2="107.401"/><linearGradient id="J" x1="321.47" x2="241.096" xlink:href="#F" y1="301.117" y2="149.698"/><linearGradient id="K" x1="143.709" x2="79.123" xlink:href="#F" y1="383.901" y2="274.104"/><linearGradient id="L" gradientUnits="userSpaceOnUse"><stop offset="0" stop-color="#bada00"/><stop offset=".227" stop-color="#b0ce00"/><stop offset=".638" stop-color="#95ae00"/><stop offset="1" stop-color="#798c00"/></linearGradient><linearGradient id="M" x1="212.641" x2="222.468" xlink:href="#L" y1="193.464" y2="217.276"/><linearGradient id="N" gradientUnits="userSpaceOnUse"><stop offset="0" stop-color="#798c00" stop-opacity="0"/><stop offset=".654" stop-color="#556100" stop-opacity=".654"/><stop offset="1" stop-color="#464f00"/></linearGradient><linearGradient id="O" x1="217.25" x2="207.877" xlink:href="#N" y1="201.816" y2="187.188"/><linearGradient id="P" x1="209.802" x2="202.401" xlink:href="#N" y1="210.318" y2="198.77"/><linearGradient id="Q" x1="221.487" x2="217.026" xlink:href="#N" y1="211.273" y2="204.311"/><linearGradient id="R" x1="117.549" x2="127.376" xlink:href="#L" y1="275.832" y2="299.644"/><linearGradient id="S" x1="122.119" x2="112.745" xlink:href="#N" y1="284.237" y2="269.609"/><linearGradient id="T" x1="114.67" x2="107.27" xlink:href="#N" y1="292.739" y2="281.191"/><linearGradient id="U" x1="126.356" x2="121.894" xlink:href="#N" y1="293.694" y2="286.731"/><linearGradient id="V" x1="235.925" x2="245.752" xlink:href="#L" y1="299.517" y2="323.329"/><linearGradient id="W" x1="240.558" x2="231.185" xlink:href="#N" y1="307.921" y2="293.294"/><linearGradient id="X" x1="233.109" x2="225.709" xlink:href="#N" y1="316.422" y2="304.875"/><linearGradient id="Y" x1="244.795" x2="240.334" xlink:href="#N" y1="317.378" y2="310.416"/><linearGradient id="Z" x1="405.257" x2="415.084" xlink:href="#L" y1="245.964" y2="269.775"/><linearGradient id="a" x1="409.971" x2="400.597" xlink:href="#N" y1="254.321" y2="239.693"/><linearGradient id="b" x1="402.522" x2="395.121" xlink:href="#N" y1="262.823" y2="251.275"/><linearGradient id="c" x1="414.208" x2="409.747" xlink:href="#N" y1="263.778" y2="256.816"/><linearGradient id="d" x1="213.872" x2="223.699" xlink:href="#L" y1="97.255" y2="121.067"/><linearGradient id="e" x1="218.471" x2="209.098" xlink:href="#N" y1="105.557" y2="90.929"/><linearGradient id="f" x1="211.023" x2="203.622" xlink:href="#N" y1="114.059" y2="102.511"/><linearGradient id="g" x1="222.709" x2="218.247" xlink:href="#N" y1="115.014" y2="108.053"/><linearGradient id="h" gradientUnits="userSpaceOnUse"><stop offset="0" stop-color="#ffdecf"/><stop offset=".379" stop-color="#fdc4b0"/><stop offset=".766" stop-color="#fbae97"/><stop offset="1" stop-color="#faa68e"/></linearGradient><linearGradient id="i" x1="226.54" x2="208.906" xlink:href="#h" y1="119.391" y2="170.853"/><linearGradient id="j" x1="203.301" x2="217.532" xlink:href="#h" y1="184.838" y2="143.307"/><linearGradient id="k" gradientUnits="userSpaceOnUse"><stop offset="0" stop-color="#a57c52"/><stop offset=".134" stop-color="#a26c4a"/><stop offset=".516" stop-color="#994336"/><stop offset=".817" stop-color="#942a2a"/><stop offset="1" stop-color="#922125"/></linearGradient><linearGradient id="l" x1="37.551" x2="53.697" xlink:href="#k" y1="367.031" y2="393.404"/><linearGradient id="m" x1="91.686" x2="76.635" xlink:href="#h" y1="313.732" y2="357.657"/><linearGradient id="n" x1="71.906" x2="84.053" xlink:href="#h" y1="369.588" y2="334.138"/><linearGradient id="o" x1="325.819" x2="347.209" xlink:href="#k" y1="273.758" y2="309.281"/><linearGradient id="p" gradientUnits="userSpaceOnUse"><stop offset="0" stop-color="#ff6359"/><stop offset=".224" stop-color="#fe5b50"/><stop offset=".595" stop-color="#fc4637"/><stop offset="1" stop-color="#f82814"/></linearGradient><linearGradient id="q" x1="315.495" x2="334.154" xlink:href="#p" y1="219.916" y2="265.127"/><linearGradient id="r" x1="325.086" x2="307.287" xlink:href="#C" y1="234.386" y2="206.612"/><linearGradient id="s" x1="310.942" x2="296.892" xlink:href="#C" y1="250.527" y2="228.602"/><linearGradient id="t" x1="333.129" x2="324.659" xlink:href="#C" y1="252.341" y2="239.123"/><linearGradient id="u" x1="131.577" x2="150.235" xlink:href="#p" y1="300.988" y2="346.199"/><linearGradient id="v" x1="141.081" x2="123.284" xlink:href="#C" y1="315.519" y2="287.746"/><linearGradient id="w" x1="126.938" x2="112.888" xlink:href="#C" y1="331.661" y2="309.736"/><linearGradient id="x" x1="149.126" x2="140.655" xlink:href="#C" y1="333.474" y2="320.256"/><linearGradient id="y" x1="219.835" x2="241.226" xlink:href="#k" y1="234.622" y2="270.145"/><linearGradient id="z" x1="258.257" x2="215.558" xlink:href="#N" y1="334.97" y2="254.237"/><linearGradient id="AA" x1="264.738" x2="249.686" xlink:href="#h" y1="241.603" y2="285.529"/><linearGradient id="AB" x1="244.958" x2="257.105" xlink:href="#h" y1="297.458" y2="262.01"/><linearGradient id="AC" gradientUnits="userSpaceOnUse"><stop offset="0" stop-color="#8a7889"/><stop offset=".334" stop-color="#867385"/><stop offset=".704" stop-color="#7b667b"/><stop offset="1" stop-color="#6e566e"/></linearGradient><linearGradient id="AD" x1="68.016" x2="77.231" xlink:href="#AC" y1="276.665" y2="295.095"/><linearGradient id="AE" x1="168.869" x2="178.084" xlink:href="#AC" y1="249.042" y2="267.472"/><linearGradient id="AF" x1="28.65" x2="37.865" xlink:href="#AC" y1="386.776" y2="405.206"/><linearGradient id="AG" x1="136.205" x2="154.863" xlink:href="#p" y1="194.388" y2="239.599"/><linearGradient id="AH" x1="145.7" x2="127.903" xlink:href="#C" y1="208.865" y2="181.091"/><linearGradient id="AI" x1="131.556" x2="117.506" xlink:href="#C" y1="225.006" y2="203.081"/><linearGradient id="AJ" x1="153.743" x2="145.274" xlink:href="#C" y1="226.82" y2="213.601"/><linearGradient id="AK" x1="286.486" x2="307.876" xlink:href="#k" y1="141.905" y2="177.428"/><linearGradient id="AL" x1="372.801" x2="335.484" xlink:href="#A" y1="132.371" y2="193.369"/><path d="M224.004 97.902S69.069 192.69 11.785 450.289c-4.263 19.169 17.652 33.327 33.345 21.523 68.68-51.657 214.684-143.912 416.708-177.075 23.027-3.78 34.652-29.762 22.126-49.451-30.516-47.966-101.971-121.806-259.96-147.384z" fill="url(#B)"/><path d="M483.587 244.701c-221.979 26.98-382.24 127.674-455.209 182.557-3.842 2.89-8.056 4.218-12.168 4.308l-4.433 18.754c-4.259 19.157 17.669 33.288 33.353 21.492 68.692-51.666 214.736-143.945 416.815-177.092 22.892-3.755 34.565-29.668 22.131-49.252l-.489-.767z" fill="url(#D)"/><path d="M492.111 263.798S451.759 118.945 210.293 85.469c0 0-154.223 93.471-209.785 341.469-4.136 18.463 17.857 31.644 33.471 20.058l19.629-14.123c8.914-6.224 21.153.164 21.153 11.035v.774c0 11.494 9.317 20.811 20.811 20.811s20.811-9.317 20.811-20.811v-21.801c0-18.931 10.331-36.35 26.953-45.41A1010.95 1010.95 0 0 1 287.14 313.09c8.758-3.125 17.978 3.378 17.978 12.678 0 11.494 9.317 20.811 20.811 20.811s20.811-9.317 20.811-20.811v-26.786c0-3.013 2.004-5.658 4.904-6.474l.136-.038c4.314-1.214 8.594 2.029 8.594 6.51v67.814c0 11.494 9.317 20.811 20.811 20.811s20.811-9.317 20.811-20.811V308.92c0-17.164 12.121-31.995 28.971-35.265 19.819-3.845 40.207-7.163 61.144-9.857z" fill="url(#E)"/><path d="M210.293 85.47s-29.447 17.849-67.241 58.636l196.957 196.957c4.129-3.803 6.732-9.238 6.732-15.294v-26.786c0-3.013 2.004-5.658 4.904-6.474l.136-.038c4.314-1.214 8.594 2.029 8.594 6.51v62.449l25.6 25.6c9.181-2.166 16.022-10.393 16.022-20.235V308.92c0-17.164 12.121-31.995 28.971-35.265 19.818-3.846 40.205-7.164 61.142-9.857.001 0-40.351-144.853-281.817-178.328z" fill="url(#G)"/><path d="M260.623 134.097c-2.042-2.313-4.412-4.511-7.118-6.552-22.066-16.64-57.843-16.64-79.909 0-20.918 15.774-21.992 40.833-3.251 57.574l160.78 160.78c8.975-2.311 15.616-10.435 15.616-20.131v-26.786c0-3.013 2.004-5.658 4.904-6.474l.136-.038c4.314-1.214 8.594 2.029 8.594 6.51v67.814c0 4.978 1.753 9.544 4.668 13.126 1.418 1.47 2.983 2.884 4.682 4.238 3.288 2.174 7.224 3.448 11.46 3.448 11.494 0 20.811-9.317 20.811-20.811V308.92a35.97 35.97 0 0 1 9.298-24.151z" fill="url(#H)"/><path d="m182.763 200.974c-7.652-8.847-21.473-14.755-37.253-14.755-24.077 0-43.596 13.752-43.596 30.717 0 7.241 3.565 13.892 9.514 19.143l104.99 105.32c22.133-9.84 45.72-19.386 70.723-28.309 2.297-.82 4.622-.963 6.808-.581z" fill="url(#I)"/><path d="M361.524 225.92c-7.749-8.52-21.295-14.172-36.723-14.172-24.077 0-43.596 13.752-43.596 30.717 0 .693.044 1.378.108 2.059-18.814-9.95-44.938-8.597-61.747 4.079-17.696 13.345-18.763 34.478-3.206 48.765l30.913 30.913a1005.96 1005.96 0 0 1 39.867-15.189c8.758-3.125 17.978 3.378 17.978 12.678 0 11.494 9.317 20.811 20.811 20.811s20.811-9.317 20.811-20.811v-26.786c0-3.013 2.004-5.658 4.904-6.474l.136-.038c4.314-1.214 8.594 2.029 8.594 6.51v67.814c0 11.494 9.317 20.811 20.811 20.811s20.811-9.317 20.811-20.811V308.92a35.98 35.98 0 0 1 14.018-28.509z" fill="url(#J)"/><path d="m213.374 342.76-35.767-35.767c-7.748-8.521-21.295-14.174-36.725-14.174-18.887 0-34.965 8.464-41.02 20.301-17.644-5.795-38.943-3.261-53.374 7.622-17.697 13.345-18.763 34.479-3.205 48.765l73.101 73.101v-19.725c0-18.931 10.331-36.35 26.953-45.41 21.314-11.621 44.709-23.352 70.037-34.713z" fill="url(#K)"/><g fill="#ffeaa2"><path d="M97.779 255.867c.959-1.808.271-4.051-1.536-5.01s-4.051-.271-5.01 1.536-.271 4.051 1.536 5.01 4.05.272 5.01-1.536z"/><use xlink:href="#AN"/><path d="M88.828 272.612c-.86-.456-1.928-.129-2.384.731s-.129 1.928.731 2.384 1.928.129 2.384-.731.13-1.927-.731-2.384zm25.288 4.871c-2.046-.058-3.751 1.554-3.808 3.599s1.554 3.751 3.599 3.808 3.751-1.554 3.808-3.599-1.553-3.751-3.599-3.808zm19.279-26.211c-1.615-.046-2.961 1.227-3.006 2.841a2.93 2.93 0 0 0 2.841 3.007c1.614.046 2.961-1.227 3.007-2.842s-1.227-2.961-2.842-3.006zm-27.176 1.111c-.974-.027-1.785.74-1.813 1.713s.74 1.785 1.713 1.813 1.785-.74 1.813-1.713-.739-1.785-1.713-1.813z"/><use xlink:href="#AO"/><path d="M103.466 259.931c-1.164.265-1.893 1.424-1.628 2.588s1.424 1.893 2.588 1.628 1.893-1.424 1.628-2.588-1.424-1.893-2.588-1.628z"/><use xlink:href="#AP"/><path d="M166.472 244.922c.959-1.808.271-4.051-1.536-5.01s-4.051-.271-5.01 1.536-.271 4.051 1.536 5.01 4.051.271 5.01-1.536z"/><use xlink:href="#AN" x="62.921" y="19.427"/><path d="M143.907 260.694c-.86-.457-1.928-.129-2.384.731s-.129 1.928.731 2.384 1.928.129 2.384-.731.129-1.927-.731-2.384zm42.746-10.773c-2.046-.058-3.751 1.554-3.808 3.599s1.554 3.751 3.599 3.808 3.751-1.554 3.808-3.599-1.553-3.75-3.599-3.808z"/><use xlink:href="#AQ"/><path d="M174.913 241.437c-.974-.027-1.785.739-1.813 1.713s.74 1.785 1.713 1.813 1.785-.74 1.813-1.713-.74-1.785-1.713-1.813z"/><use xlink:href="#AO" x="58.534" y="-0.542"/><path d="M172.159 248.985a2.16 2.16 0 0 0 .959 4.215 2.16 2.16 0 0 0-.959-4.215z"/><use xlink:href="#AP" x="68.694" y="-10.945"/><use xlink:href="#AR"/><use xlink:href="#AN" x="107.112" y="48.503"/><path d="M195.941 321.115c-.86-.456-1.928-.129-2.384.731s-.129 1.928.731 2.384 1.928.129 2.384-.731.129-1.927-.731-2.384zm25.288 4.871c-2.046-.058-3.751 1.554-3.808 3.599s1.554 3.751 3.599 3.808 3.751-1.554 3.808-3.599-1.554-3.751-3.599-3.808zm165.685-83.521c-.691-1.46-2.436-2.083-3.896-1.392s-2.083 2.436-1.392 3.896 2.436 2.083 3.896 1.392 2.084-2.436 1.392-3.896zm-173.582 58.421c-.974-.027-1.785.74-1.813 1.713s.74 1.785 1.713 1.813 1.785-.74 1.813-1.713-.74-1.785-1.713-1.813z"/><use xlink:href="#AO" x="107.112" y="48.503"/><path d="M210.578 308.434c-1.164.265-1.893 1.424-1.628 2.588a2.16 2.16 0 0 0 2.587 1.628c1.164-.265 1.893-1.424 1.628-2.588a2.16 2.16 0 0 0-2.587-1.628zm-8.788 4.229c.702-.16 1.141-.858.981-1.56s-.858-1.141-1.56-.981-1.141.858-.981 1.56.859 1.141 1.56.981z"/><use xlink:href="#AR" x="0.259" y="-161.645"/><path d="M371.033 267.526c.028-1.615-1.259-2.947-2.874-2.975s-2.947 1.259-2.975 2.874 1.259 2.947 2.874 2.975 2.947-1.258 2.975-2.874zm12.247-11.42c.017-.974-.759-1.777-1.733-1.794s-1.777.759-1.794 1.733.759 1.777 1.733 1.794 1.777-.759 1.794-1.733zM225.331 147.724c-2.046-.058-3.751 1.554-3.808 3.599s1.554 3.751 3.599 3.808 3.751-1.554 3.808-3.599-1.554-3.75-3.599-3.808z"/><use xlink:href="#AQ" x="38.678" y="-102.197"/><path d="M213.59 139.241c-.974-.027-1.785.739-1.813 1.713s.74 1.785 1.713 1.813 1.785-.74 1.813-1.713-.739-1.786-1.713-1.813zm170.853 133.135a2.74 2.74 0 0 0-3.856-.352 2.74 2.74 0 0 0-.352 3.856 2.74 2.74 0 0 0 3.856.352 2.74 2.74 0 0 0 .352-3.856zM210.837 146.789a2.16 2.16 0 0 0-1.628 2.587c.265 1.164 1.424 1.893 2.588 1.628a2.16 2.16 0 0 0 1.628-2.587c-.266-1.165-1.424-1.893-2.588-1.628z"/><use xlink:href="#AP" x="107.371" y="-113.142"/><path d="M306.242 219.507c-1.087 1.734-.563 4.021 1.171 5.108s4.021.563 5.108-1.171.563-4.021-1.171-5.107-4.021-.564-5.108 1.17zm12.242-.612c1.369.858 3.174.444 4.032-.925s.444-3.174-.925-4.032-3.174-.444-4.032.925-.444 3.174.925 4.032zm-2.107-15.444c.825.517 1.914.268 2.431-.558s.268-1.914-.557-2.431-1.914-.268-2.431.557-.268 1.915.557 2.432z"/><use xlink:href="#AS"/><path d="M270.387 221.523c1.607.162 3.042-1.01 3.204-2.617s-1.01-3.042-2.617-3.204-3.042 1.01-3.204 2.617 1.01 3.042 2.617 3.204zm27.186.851c.969.098 1.834-.609 1.931-1.578s-.609-1.834-1.578-1.931-1.834.609-1.931 1.578.609 1.833 1.578 1.931z"/><use xlink:href="#AT"/><path d="M300.863 215.044a2.16 2.16 0 1 0-.653-4.273 2.16 2.16 0 1 0 .653 4.273z"/><use xlink:href="#AU"/><path d="M236.939 225.472c-1.087 1.734-.563 4.021 1.171 5.108s4.021.563 5.107-1.171.563-4.021-1.171-5.108-4.02-.563-5.107 1.171zm20.189-30.49c1.369.858 3.174.444 4.032-.925s.444-3.174-.925-4.032-3.174-.444-4.032.925-.444 3.173.925 4.032zm3.454 16.385c.825.517 1.914.268 2.431-.558s.268-1.914-.558-2.431-1.914-.268-2.431.557-.267 1.915.558 2.432z"/><use xlink:href="#AS" x="-74.335" y="22.261"/><path d="M217.223 223.993c-.162 1.607 1.01 3.042 2.617 3.203s3.042-1.01 3.203-2.617-1.01-3.042-2.617-3.204-3.041 1.011-3.203 2.618zm11.046 4.345c.969.098 1.834-.609 1.931-1.578s-.609-1.834-1.578-1.931-1.834.609-1.931 1.578.609 1.834 1.578 1.931z"/><use xlink:href="#AT" x="-58.421" y="-3.679"/><path d="M231.559 221.009a2.16 2.16 0 1 0-.653-4.273 2.16 2.16 0 0 0 .653 4.273z"/><use xlink:href="#AU" x="-69.304" y="5.965"/><path d="M96.059 395.195c-.29 2.026 1.117 3.903 3.143 4.193s3.903-1.117 4.193-3.143-1.117-3.903-3.143-4.193-3.903 1.118-4.193 3.143z"/><use xlink:href="#AV"/><use xlink:href="#AW"/><path d="M73.365 380.393c1.944-.639 3.003-2.732 2.364-4.677s-2.732-3.003-4.677-2.364-3.003 2.732-2.364 4.677 2.732 3.003 4.677 2.364zm-9.26 31.192c1.535-.504 2.37-2.157 1.866-3.692s-2.157-2.37-3.692-1.866-2.37 2.157-1.866 3.692 2.157 2.37 3.692 1.866zm25.192-10.252c.925-.304 1.429-1.301 1.125-2.226s-1.301-1.429-2.226-1.125-1.429 1.301-1.125 2.226 1.301 1.429 2.226 1.125z"/><use xlink:href="#AX"/><path d="M89.331 393.299c1.005-.644 1.299-1.981.655-2.986s-1.981-1.299-2.986-.655-1.299 1.981-.655 2.986 1.981 1.298 2.986.655zm6.835-6.957c-.606.388-.783 1.194-.395 1.8s1.194.783 1.8.395.783-1.194.395-1.8-1.193-.783-1.8-.395zm-61.032 42.422c-.29 2.026 1.117 3.903 3.143 4.193s3.903-1.117 4.193-3.143-1.117-3.903-3.143-4.193-3.902 1.117-4.193 3.143z"/><use xlink:href="#AV" x="-65.782" y="3.035"/><use xlink:href="#AW" x="-47.784" y="29.871"/><path d="M14.453 430.897c1.944-.639 3.002-2.732 2.364-4.677s-2.732-3.003-4.677-2.364-3.003 2.732-2.364 4.677 2.733 3.003 4.677 2.364zm2.061 4.515c.504 1.535 2.157 2.37 3.692 1.866s2.37-2.157 1.866-3.692-2.157-2.37-3.692-1.866-2.37 2.157-1.866 3.692zm11.859-.51c.925-.304 1.429-1.3 1.125-2.226s-1.301-1.429-2.226-1.125-1.429 1.301-1.125 2.226 1.301 1.429 2.226 1.125z"/><use xlink:href="#AX" x="-54.89" y="20.339"/><path d="M28.407 426.867a2.16 2.16 0 0 0 .655-2.986c-.644-1.005-1.981-1.298-2.986-.655a2.162 2.162 0 1 0 2.331 3.641zm6.835-6.956c-.606.388-.783 1.194-.395 1.8s1.194.783 1.8.395.783-1.194.395-1.8-1.194-.783-1.8-.395z"/></g><ellipse cx="217.542" cy="205.34" fill="url(#M)" rx="22.961" ry="16.178"/><circle cx="215.104" cy="195.563" fill="url(#O)" r="3.669"/><circle cx="208.293" cy="205.05" fill="url(#P)" r="2.896"/><circle cx="220.917" cy="207.48" fill="url(#Q)" r="1.746"/><ellipse cx="122.45" cy="287.708" fill="url(#R)" rx="22.961" ry="16.178"/><circle cx="120.013" cy="277.931" fill="url(#S)" r="3.669"/><circle cx="113.201" cy="287.418" fill="url(#T)" r="2.896"/><circle cx="125.826" cy="289.848" fill="url(#U)" r="1.746"/><ellipse cx="240.826" cy="311.393" fill="url(#V)" rx="22.961" ry="16.178"/><circle cx="238.389" cy="301.616" fill="url(#W)" r="3.669"/><circle cx="231.577" cy="311.103" fill="url(#X)" r="2.896"/><circle cx="244.201" cy="313.533" fill="url(#Y)" r="1.746"/><ellipse cx="410.158" cy="257.839" fill="url(#Z)" rx="22.961" ry="16.178"/><circle cx="407.72" cy="248.063" fill="url(#a)" r="3.669"/><circle cx="400.909" cy="257.55" fill="url(#b)" r="2.896"/><circle cx="413.533" cy="259.98" fill="url(#c)" r="1.746"/><ellipse cx="218.773" cy="109.131" fill="url(#d)" rx="22.961" ry="16.178"/><circle cx="216.336" cy="99.354" fill="url(#e)" r="3.669"/><circle cx="209.524" cy="108.841" fill="url(#f)" r="2.896"/><circle cx="222.148" cy="111.271" fill="url(#g)" r="1.746"/><path d="M253.506 127.545c-22.066-16.64-57.843-16.64-79.909 0s-22.066 43.619 0 60.259 57.843 16.64 79.909 0 22.066-43.619 0-60.259zm-65.327 40.963c-14.011-9.229-14.011-24.196 0-33.424s36.728-9.225 50.739.004 14.016 24.192.006 33.42-36.735 9.229-50.745 0z" fill="url(#i)"/><path d="M180.316 178.403c18.353 13.341 48.118 13.341 66.47 0 18.358-13.345 18.353-34.977 0-48.317s-48.112-13.345-66.47 0-18.359 34.972 0 48.317zm58.607-43.319c14.011 9.229 14.011 24.196 0 33.424s-36.728 9.225-50.739-.004-14.016-24.192-.006-33.42 36.734-9.228 50.745 0z" fill="url(#j)"/><path d="m31.938 384.726c8.266 3.191 18.807.826 23.545-5.282.932-1.202.519-2.614-.779-4.061-1.435-1.6-.92-3.711 1.05-4.999l.333-.217c2.545-1.664 1.962-4.602-1.135-5.712l-12.325-4.417c-3.097-1.11-6.82.284-7.239 2.71-.323 1.87-2.499 3.318-5.173 3.427-2.139.087-3.812.611-4.665 1.711-4.739 6.11-1.878 13.649 6.388 16.84z" fill="url(#l)"/><path d="M114.695 320.742c-18.835-14.203-49.372-14.203-68.207 0s-18.835 37.231 0 51.434 49.372 14.203 68.207 0 18.834-37.231 0-51.434zm-55.761 34.964c-11.959-7.877-11.959-20.652 0-28.529s31.349-7.874 43.308.003 11.964 20.649.005 28.526-31.354 7.877-43.313 0z" fill="url(#m)"/><path d="M52.223 364.151c15.665 11.387 41.071 11.387 56.736 0s15.665-29.855 0-41.242c-15.67-11.39-41.066-11.39-56.736 0s-15.67 29.852 0 41.242zm50.025-36.975c11.959 7.877 11.959 20.652 0 28.529s-31.349 7.874-43.308-.003-11.964-20.649-.005-28.526 31.354-7.877 43.313 0z" fill="url(#n)"/><path d="m339.744 269.773c-8.266-3.191-18.807-.826-23.545 5.282-.932 1.202-.519 2.614.779 4.061 1.435 1.6.92 3.711-1.05 4.999l-.333.217c-2.545 1.664-1.962 4.602 1.135 5.712l12.325 4.417c3.097 1.11 6.82-.284 7.239-2.71.323-1.87 2.499-3.318 5.173-3.427 2.139-.087 3.812-.611 4.665-1.711 4.739-6.11 1.878-13.649-6.388-16.84z" fill="url(#o)"/><ellipse cx="324.801" cy="242.464" fill="url(#q)" rx="43.596" ry="30.717"/><circle cx="320.173" cy="223.902" fill="url(#r)" r="6.965"/><circle cx="307.24" cy="241.914" fill="url(#s)" r="5.499"/><circle cx="331.209" cy="246.528" fill="url(#t)" r="3.315"/><ellipse cx="140.882" cy="323.536" fill="url(#u)" rx="43.596" ry="30.717"/><circle cx="136.254" cy="304.974" fill="url(#v)" r="6.965"/><circle cx="123.322" cy="322.986" fill="url(#w)" r="5.499"/><circle cx="147.291" cy="327.6" fill="url(#x)" r="3.315"/><path d="m233.761 230.637c-8.266-3.191-18.807-.826-23.545 5.282-.932 1.202-.519 2.614.779 4.061 1.435 1.6.92 3.711-1.05 4.999l-.333.217c-2.545 1.664-1.962 4.602 1.135 5.712l12.325 4.417c3.097 1.11 6.82-.284 7.239-2.71.323-1.87 2.499-3.318 5.173-3.427 2.139-.087 3.812-.611 4.665-1.711 4.738-6.109 1.878-13.648-6.388-16.84z" fill="url(#y)"/><path d="m246.117 327.122c10.126-1.686 17.671-8.08 17.671-15.73 0-8.935-10.28-16.178-22.961-16.178-8.068 0-15.15 2.938-19.246 7.372z" fill="url(#z)"/><path d="m287.773 248.602c-18.835-14.203-49.372-14.203-68.207 0s-18.835 37.231 0 51.434 49.372 14.203 68.207 0 18.835-37.231 0-51.434zm-55.76 34.964c-11.959-7.877-11.959-20.652 0-28.529s31.349-7.874 43.308.003 11.964 20.649.005 28.526-31.354 7.877-43.313 0z" fill="url(#AA)"/><path d="M225.302 292.011c15.665 11.387 41.071 11.387 56.736 0s15.665-29.855 0-41.242-41.066-11.39-56.736 0-15.67 29.852 0 41.242zm50.024-36.974c11.959 7.877 11.959 20.652 0 28.529s-31.349 7.874-43.308-.003-11.964-20.649-.005-28.526 31.354-7.878 43.313 0z" fill="url(#AB)"/><use xlink:href="#AY" fill="url(#AD)"/><path d="M176.946 251.023c-10.99 0-19.899 6.345-19.899 14.173s8.909 14.173 19.899 14.173 19.899-6.345 19.899-14.173-8.91-14.173-19.899-14.173zm0 20.188c-4.665 0-8.446-2.693-8.446-6.016s3.781-6.016 8.446-6.016 8.446 2.693 8.446 6.016-3.782 6.016-8.446 6.016z" fill="url(#AE)"/><use xlink:href="#AY" x="229.291" y="-98.94" fill="url(#AD)"/><path d="M36.727 388.757c-10.99 0-19.899 6.345-19.899 14.173s8.909 14.173 19.899 14.173 19.899-6.345 19.899-14.173-8.909-14.173-19.899-14.173zm0 20.188c-4.665 0-8.446-2.693-8.446-6.016s3.781-6.016 8.446-6.016 8.446 2.693 8.446 6.016-3.781 6.016-8.446 6.016z" fill="url(#AF)"/><ellipse cx="145.51" cy="216.936" fill="url(#AG)" rx="43.596" ry="30.717"/><circle cx="140.882" cy="198.374" fill="url(#AH)" r="6.965"/><circle cx="127.949" cy="216.386" fill="url(#AI)" r="5.499"/><circle cx="151.918" cy="221" fill="url(#AJ)" r="3.315"/><path d="m300.412 137.921c-8.266-3.191-18.807-.826-23.545 5.282-.932 1.202-.519 2.614.779 4.061 1.435 1.6.92 3.711-1.05 4.999l-.333.217c-2.545 1.664-1.962 4.602 1.135 5.712l12.325 4.417c3.097 1.11 6.82-.284 7.239-2.71.323-1.87 2.499-3.318 5.173-3.427 2.139-.087 3.812-.611 4.665-1.711 4.738-6.11 1.878-13.649-6.388-16.84z" fill="url(#AK)"/><path d="m214.791 104.324c37.402 14.219 72.773 35.326 118.083 68.607s80.168 83.109 106.031 115.36c13.893 17.324 52.144 14.175 64.776-5.563 8.435-13.181 8.461-39.811-.135-52.002-25.362-35.97-68.071-78.226-120.825-116.975s-104.941-66.195-145.4-78.572c-13.712-4.195-28.749 1.96-37.184 15.141-12.631 19.739-5.437 46.366 14.654 54.004z" fill="url(#AL)"/><defs ><path id="AN" d="M85.613 257.361c-1.427-.757-3.198-.214-3.955 1.213s-.214 3.198 1.213 3.955 3.198.214 3.955-1.213.214-3.198-1.213-3.955z"/><path id="AO" d="M100.401 267.575a2.74 2.74 0 0 0-2.062 3.278 2.74 2.74 0 0 0 3.278 2.062 2.74 2.74 0 0 0 2.062-3.278 2.74 2.74 0 0 0-3.278-2.062z"/><path id="AP" d="m94.678 264.16c.702-.16 1.141-.858.981-1.56s-.858-1.141-1.56-.981-1.141.858-.981 1.56.858 1.141 1.56.981z"/><path id="AQ" d="M186.243 244.975c.046-1.615-1.227-2.961-2.842-3.006s-2.961 1.227-3.006 2.841 1.227 2.961 2.841 3.007 2.961-1.227 3.007-2.842z"/><path id="AR" d="M204.891 304.37c.959-1.808.271-4.051-1.536-5.01s-4.051-.271-5.01 1.536-.271 4.051 1.536 5.01 4.051.272 5.01-1.536z"/><path id="AS" d="M291.506 196.77c2.036.205 3.853-1.279 4.058-3.315s-1.279-3.853-3.315-4.058-3.853 1.279-4.058 3.315 1.279 3.853 3.315 4.058z"/><path id="AT" d="M304.471 207.64a2.74 2.74 0 0 0 2.293-3.12 2.74 2.74 0 0 0-3.12-2.293 2.74 2.74 0 0 0-2.293 3.12 2.74 2.74 0 0 0 3.12 2.293z"/><path id="AU" d="m309.933 211.459c-.711.109-1.2.774-1.091 1.485s.774 1.2 1.485 1.091 1.2-.774 1.091-1.485-.774-1.2-1.485-1.091z"/><path id="AV" d="M106.999 389.67c1.599.229 3.081-.882 3.31-2.481s-.882-3.081-2.481-3.31-3.081.882-3.31 2.481.882 3.081 2.481 3.31z"/><path id="AW" d="M98.807 376.409c.964.138 1.858-.532 1.996-1.496s-.532-1.858-1.496-1.996-1.858.532-1.996 1.496.532 1.858 1.496 1.996z"/><path id="AX" d="M89.625 385.068a2.74 2.74 0 0 0 .829-3.782 2.74 2.74 0 0 0-3.782-.829 2.74 2.74 0 0 0-.829 3.782 2.74 2.74 0 0 0 3.782.829z"/><path id="AY" d="M76.093 278.646c-10.99 0-19.899 6.345-19.899 14.173s8.909 14.173 19.899 14.173 19.899-6.345 19.899-14.173-8.909-14.173-19.899-14.173zm0 20.189c-4.665 0-8.446-2.693-8.446-6.016s3.781-6.016 8.446-6.016 8.446 2.693 8.446 6.016-3.781 6.016-8.446 6.016z"/></defs></svg>