<svg xmlns="http://www.w3.org/2000/svg" xmlns:xlink="http://www.w3.org/1999/xlink" height="512" viewBox="0 0 510 510" width="512" xmlns:v="https://vecta.io/nano"><linearGradient id="A" gradientUnits="userSpaceOnUse"><stop offset="0" stop-color="#faa68e"/><stop offset=".206" stop-color="#fba682"/><stop offset=".581" stop-color="#fda861"/><stop offset="1" stop-color="#ffa936"/></linearGradient><linearGradient id="B" x1="223.354" x2="250.264" xlink:href="#A" y1="298.877" y2="357.872"/><linearGradient id="C" gradientUnits="userSpaceOnUse"><stop offset="0" stop-color="#f82814" stop-opacity="0"/><stop offset=".245" stop-color="#f12817" stop-opacity=".245"/><stop offset=".605" stop-color="#dd2820" stop-opacity=".605"/><stop offset="1" stop-color="#c0272d"/></linearGradient><linearGradient id="D" x1="251.503" x2="228.789" xlink:href="#C" y1="361.785" y2="296.086"/><linearGradient id="E" gradientUnits="userSpaceOnUse" x1="145.065" x2="264.908" y1="221.175" y2="364.7"><stop offset="0" stop-color="#ffd945"/><stop offset=".304" stop-color="#ffcd3e"/><stop offset=".856" stop-color="#ffad2b"/><stop offset="1" stop-color="#ffa325"/></linearGradient><linearGradient id="F" gradientUnits="userSpaceOnUse"><stop offset="0" stop-color="#f82814" stop-opacity="0"/><stop offset="1" stop-color="#c0272d"/></linearGradient><linearGradient id="G" x1="310.981" x2="353.5" xlink:href="#F" y1="213.311" y2="153.03"/><linearGradient id="H" x1="291.249" x2="99.643" xlink:href="#F" y1="237.086" y2="-59.293"/><linearGradient id="I" x1="193.19" x2="112.458" xlink:href="#F" y1="258.64" y2="107.401"/><linearGradient id="J" x1="321.47" x2="241.096" xlink:href="#F" y1="301.117" y2="149.698"/><linearGradient id="K" x1="143.709" x2="79.123" xlink:href="#F" y1="383.901" y2="274.104"/><linearGradient id="L" gradientUnits="userSpaceOnUse"><stop offset="0" stop-color="#bada00"/><stop offset=".227" stop-color="#b0ce00"/><stop offset=".638" stop-color="#95ae00"/><stop offset="1" stop-color="#798c00"/></linearGradient><linearGradient id="M" x1="212.641" x2="222.468" xlink:href="#L" y1="193.464" y2="217.276"/><linearGradient id="N" gradientUnits="userSpaceOnUse"><stop offset="0" stop-color="#798c00" stop-opacity="0"/><stop offset=".654" stop-color="#556100" stop-opacity=".654"/><stop offset="1" stop-color="#464f00"/></linearGradient><linearGradient id="O" x1="217.25" x2="207.877" xlink:href="#N" y1="201.816" y2="187.188"/><linearGradient id="P" x1="209.802" x2="202.401" xlink:href="#N" y1="210.318" y2="198.77"/><linearGradient id="Q" x1="221.487" x2="217.026" xlink:href="#N" y1="211.273" y2="204.311"/><linearGradient id="R" x1="217.21" x2="207.836" xlink:href="#N" y1="201.869" y2="187.241"/><linearGradient id="S" x1="209.762" x2="202.362" xlink:href="#N" y1="210.371" y2="198.823"/><linearGradient id="T" x1="221.447" x2="216.985" xlink:href="#N" y1="211.326" y2="204.363"/><linearGradient id="U" x1="217.273" x2="207.9" xlink:href="#N" y1="201.868" y2="187.241"/><linearGradient id="V" x1="209.825" x2="202.425" xlink:href="#N" y1="210.369" y2="198.822"/><linearGradient id="W" x1="221.511" x2="217.05" xlink:href="#N" y1="211.325" y2="204.363"/><linearGradient id="X" x1="212.641" x2="222.468" xlink:href="#L" y1="193.465" y2="217.276"/><linearGradient id="Y" x1="217.355" x2="207.981" xlink:href="#N" y1="201.821" y2="187.193"/><linearGradient id="Z" x1="209.906" x2="202.505" xlink:href="#N" y1="210.323" y2="198.775"/><linearGradient id="a" x1="221.592" x2="217.131" xlink:href="#N" y1="211.278" y2="204.316"/><linearGradient id="b" x1="217.239" x2="207.866" xlink:href="#N" y1="201.766" y2="187.138"/><linearGradient id="c" x1="209.792" x2="202.391" xlink:href="#N" y1="210.268" y2="198.72"/><linearGradient id="d" x1="221.478" x2="217.016" xlink:href="#N" y1="211.223" y2="204.262"/><linearGradient id="e" gradientUnits="userSpaceOnUse"><stop offset="0" stop-color="#ffdecf"/><stop offset=".379" stop-color="#fdc4b0"/><stop offset=".766" stop-color="#fbae97"/><stop offset="1" stop-color="#faa68e"/></linearGradient><linearGradient id="f" x1="226.54" x2="208.906" xlink:href="#e" y1="119.391" y2="170.853"/><linearGradient id="g" x1="203.301" x2="217.532" xlink:href="#e" y1="184.838" y2="143.307"/><linearGradient id="h" gradientUnits="userSpaceOnUse"><stop offset="0" stop-color="#a57c52"/><stop offset=".134" stop-color="#a26c4a"/><stop offset=".516" stop-color="#994336"/><stop offset=".817" stop-color="#942a2a"/><stop offset="1" stop-color="#922125"/></linearGradient><linearGradient id="i" x1="37.551" x2="53.697" xlink:href="#h" y1="367.031" y2="393.404"/><linearGradient id="j" x1="91.686" x2="76.635" xlink:href="#e" y1="313.732" y2="357.657"/><linearGradient id="k" x1="71.906" x2="84.053" xlink:href="#e" y1="369.588" y2="334.138"/><linearGradient id="l" x1="325.819" x2="347.209" xlink:href="#h" y1="273.758" y2="309.281"/><linearGradient id="m" gradientUnits="userSpaceOnUse"><stop offset="0" stop-color="#ff6359"/><stop offset=".224" stop-color="#fe5b50"/><stop offset=".595" stop-color="#fc4637"/><stop offset="1" stop-color="#f82814"/></linearGradient><linearGradient id="n" x1="315.495" x2="334.154" xlink:href="#m" y1="219.916" y2="265.127"/><linearGradient id="o" x1="325.086" x2="307.287" xlink:href="#C" y1="234.386" y2="206.612"/><linearGradient id="p" x1="310.942" x2="296.892" xlink:href="#C" y1="250.527" y2="228.602"/><linearGradient id="q" x1="333.129" x2="324.659" xlink:href="#C" y1="252.341" y2="239.123"/><linearGradient id="r" x1="315.496" x2="334.154" xlink:href="#m" y1="219.916" y2="265.127"/><linearGradient id="s" x1="325" x2="307.203" xlink:href="#C" y1="234.447" y2="206.674"/><linearGradient id="t" x1="310.856" x2="296.806" xlink:href="#C" y1="250.589" y2="228.664"/><linearGradient id="u" x1="333.044" x2="324.573" xlink:href="#C" y1="252.402" y2="239.184"/><linearGradient id="v" x1="219.835" x2="241.226" xlink:href="#h" y1="234.622" y2="270.145"/><linearGradient id="w" x1="258.257" x2="215.558" xlink:href="#N" y1="334.97" y2="254.237"/><linearGradient id="x" x1="264.738" x2="249.686" xlink:href="#e" y1="241.603" y2="285.529"/><linearGradient id="y" x1="244.958" x2="257.105" xlink:href="#e" y1="297.458" y2="262.01"/><linearGradient id="z" gradientUnits="userSpaceOnUse"><stop offset="0" stop-color="#8a7889"/><stop offset=".334" stop-color="#867385"/><stop offset=".704" stop-color="#7b667b"/><stop offset="1" stop-color="#6e566e"/></linearGradient><linearGradient id="AA" x1="68.016" x2="77.231" xlink:href="#z" y1="276.665" y2="295.095"/><linearGradient id="AB" x1="168.869" x2="178.084" xlink:href="#z" y1="249.042" y2="267.472"/><linearGradient id="AC" x1="297.307" x2="306.522" xlink:href="#z" y1="177.725" y2="196.155"/><linearGradient id="AD" x1="28.65" x2="37.865" xlink:href="#z" y1="386.776" y2="405.206"/><linearGradient id="AE" x1="324.991" x2="307.194" xlink:href="#C" y1="234.393" y2="206.619"/><linearGradient id="AF" x1="310.847" x2="296.797" xlink:href="#C" y1="250.534" y2="228.609"/><linearGradient id="AG" x1="333.034" x2="324.565" xlink:href="#C" y1="252.348" y2="239.129"/><linearGradient id="AH" x1="286.486" x2="307.876" xlink:href="#h" y1="141.905" y2="177.428"/><linearGradient id="AI" x1="372.801" x2="335.484" xlink:href="#A" y1="132.371" y2="193.369"/><path d="M224.004 97.902C144.418 154.01 88.361 238.169 50.658 326.803c-16.947 41-30.56 83.526-39.373 127.017-.446 27.717 35.103 26.392 47.624 7.856 120.407-86.272 260.999-143.877 407.11-167.9 25.465-6.775 29.559-40.84 11.733-57.768-58.048-82.072-157.423-122.791-253.747-138.105z" fill="url(#B)"/><path d="M483.587 244.701c-165.368 20.034-324.644 85.07-458.153 184.437-21.259 3.97-18.661 48.703 7.269 46.987 24.683-7.504 42.916-29.671 66.021-41.492 111.187-71.319 237.045-119.466 367.378-140.869 20.421-5.581 29.85-31.795 17.484-49.062z" fill="url(#D)"/><path d="M492.111 263.798c-26.095-70.268-90.858-118.692-158.221-146.291-39.528-16.167-81.36-26.17-123.597-32.038-82.304 57.359-140.246 144.289-177.479 236.305C19.214 358.038 5.81 395.226.118 433.576c3.86 23.926 33.726 19.982 45.721 4.784 15.975-18.298 32.103.173 32.475 17.958 13.914 20.934 44.254 2.281 38.068-19.736-1.817-21.57 3.891-45.635 23.911-57.315 48.039-26.375 98.155-49.526 150.133-66.91 21.885 1.198 13.354 45.929 43.603 32.588 19.052-8.945 10.599-31.716 13.069-48.13 10.595-13.502 15.852 7.811 13.276 17.017.265 19.046-.542 38.146.423 57.157 4.96 27.394 47.666 16.71 41.199-9.595.602-20.589-1.332-41.4 1.23-61.822 5.147-22.958 30.426-27.922 50.277-30.015 12.829-2.178 25.702-4.098 38.609-5.759z" fill="url(#E)"/><path d="M210.293 85.47c-24.933 16.388-46.893 36.918-67.241 58.636l196.957 196.957c12.447-12.478 3.244-31.304 8.096-46.141 13.19-9.447 13.241 11.667 12.269 20.26v46.248l25.6 25.6c17.88-3.838 16.419-23.661 16.022-37.786 1.107-18.457-2.797-37.729 3.325-55.45 10.974-24.498 41.451-21.657 63.466-26.708 12.3-1.894 31.6-.096 18.006-16.877-37.73-78.418-118.498-125.992-199.638-148.795-25.188-7.182-50.928-12.347-76.863-15.945z" fill="url(#G)"/><path d="M260.623 134.097c-26.823-29.291-87.05-25.255-102.19 14.183-7.591 23.761 14.908 39.043 29.095 54.023l143.596 143.596c18.171-4.366 15.756-24.678 15.616-39.032-5.609-15.027 16.793-20.021 13.634-2.486.717 23.133-1.504 46.589 1.241 69.5 7.513 23.661 45.515 13.11 40.38-11.136.671-21.249-1.499-42.765 1.408-63.809 10.521-11.856 5.431-19.048-5.475-27.532L260.623 134.097z" fill="url(#H)"/><path d="M182.763 200.974c-20.815-22.128-67.457-20.286-79.963 9.771-4.833 19.938 15.866 30.43 26.738 43.501l86.88 87.153c24.311-10.729 54.658-23.285 76.578-29.846L182.763 200.974z" fill="url(#I)"/><path d="M361.524 225.92c-21.011-21.438-67.065-19.489-79.433 10.354-.275 17.019-27.488-6.789-40.562 2.844-22.458 2.418-45.59 27.121-32.167 49.588 11.138 14.448 25.36 26.313 37.91 39.575 17.115-4.814 55.912-32.095 58.268 1.683 4.96 27.394 47.666 16.71 41.199-9.595 1.207-8.846-2.825-19.573 2.914-26.928 14.262-4.887 10.253 14.633 10.72 23.091.837 19.415-1.828 39.279 1.635 58.364 9.868 24.45 46.545 9.205 39.987-14.851.883-21.121-2.082-42.697 2.166-63.434 11.447-12.57 12.683-19.804-1.513-29.566l-41.125-41.126z" fill="url(#J)"/><path d="M213.374 342.76c-15.656-14.56-29.174-31.77-46.723-43.996-21.563-10.713-53.466-7.688-66.789 14.356-25.322-8.932-63.594 1.416-67.447 31.652-.388 21.212 20.663 32.193 32.825 46.693l51.144 51.144c-.883-21.082-.149-45.131 18.293-59.202 24.487-16.379 52.135-28.003 78.697-40.646z" fill="url(#K)"/><use xlink:href="#AK" fill="url(#M)"/><use xlink:href="#AL" fill="url(#O)"/><use xlink:href="#AM" fill="url(#P)"/><use xlink:href="#AN" fill="url(#Q)"/><use xlink:href="#AK" x="-95.092" y="82.368" fill="url(#M)"/><use xlink:href="#AL" x="-95.091" y="82.368" fill="url(#R)"/><use xlink:href="#AM" x="-95.092" y="82.368" fill="url(#S)"/><use xlink:href="#AN" x="-95.091" y="82.368" fill="url(#T)"/><use xlink:href="#AK" x="23.284" y="106.053" fill="url(#M)"/><use xlink:href="#AL" x="23.285" y="106.053" fill="url(#U)"/><use xlink:href="#AM" x="23.284" y="106.053" fill="url(#V)"/><use xlink:href="#AN" x="23.284" y="106.053" fill="url(#W)"/><use xlink:href="#AK" x="192.616" y="52.499" fill="url(#X)"/><use xlink:href="#AL" x="192.616" y="52.5" fill="url(#Y)"/><use xlink:href="#AM" x="192.616" y="52.5" fill="url(#Z)"/><use xlink:href="#AN" x="192.616" y="52.5" fill="url(#a)"/><use xlink:href="#AK" x="1.231" y="-96.209" fill="url(#M)"/><use xlink:href="#AL" x="1.232" y="-96.209" fill="url(#b)"/><use xlink:href="#AM" x="1.231" y="-96.209" fill="url(#c)"/><use xlink:href="#AN" x="1.231" y="-96.209" fill="url(#d)"/><path d="M253.506 127.545c-29.084-21.839-82.717-15.55-95.424 21.991-7.141 31.144 28.092 52.162 55.47 50.748 27.377 1.415 62.611-19.604 55.47-50.748-2.267-8.924-8.23-16.539-15.515-21.991zm-65.327 40.963c-27.113-17.96 6.394-46.128 28.809-40.235 25.723-3.718 46.742 33.021 16.308 43.263-14.307 5.931-31.869 5.306-45.116-3.028z" fill="url(#f)"/><path d="M180.316 178.403c24.224 17.299 68.176 12.953 79.377-17.635 5.917-27.479-27.462-43.457-50.647-40.534-23.087-.558-52.596 22.177-39.056 46.866 2.51 4.503 6.173 8.288 10.326 11.304zm58.607-43.319c27.113 17.96-6.394 46.128-28.809 40.235-25.723 3.718-46.742-33.021-16.308-43.263 14.308-5.93 31.868-5.306 45.116 3.028z" fill="url(#g)"/><path d="M31.938 384.726c16.21 8.534 30.815-11.575 21.743-20.726-12.018-8.204-30.016-.453-29.814 13.401 1.401 3.606 4.616 5.994 8.071 7.325z" fill="url(#i)"/><path d="M114.695 320.742c-24.834-18.686-70.627-13.264-81.45 18.771-6.283 28.44 27.487 46.352 51.97 43.149 24.484.449 53.912-24.266 40.075-49.889-2.554-4.754-6.3-8.798-10.594-12.031zm-55.761 34.964c-25.064-18.086 10.723-41.552 30.373-33.604 29.34 1.399 25.003 40.357-2.866 39.142-9.404 1.138-19.448-.338-27.507-5.539z" fill="url(#j)"/><path d="M52.223 364.151c21.083 15.365 61.5 10.622 68.303-17.827 1.476-25.421-30.623-36.09-51.357-30.756-20.168 1.702-38.966 27.072-22.088 44.008l2.387 2.36zm50.025-36.975c25.064 18.086-10.723 41.552-30.373 33.604-29.34-1.399-25.002-40.357 2.866-39.142 9.404-1.138 19.448.338 27.507 5.539z" fill="url(#k)"/><path d="M339.744 269.773c-16.21-8.534-30.815 11.575-21.743 20.726 12.018 8.204 30.016.453 29.814-13.401-1.401-3.606-4.616-5.994-8.071-7.325z" fill="url(#l)"/><use xlink:href="#AO" fill="url(#n)"/><use xlink:href="#AP" fill="url(#o)"/><use xlink:href="#AQ" fill="url(#p)"/><use xlink:href="#AR" fill="url(#q)"/><use xlink:href="#AO" x="-183.919" y="81.072" fill="url(#r)"/><use xlink:href="#AP" x="-183.919" y="81.072" fill="url(#s)"/><use xlink:href="#AQ" x="-183.918" y="81.072" fill="url(#t)"/><use xlink:href="#AR" x="-183.918" y="81.072" fill="url(#u)"/><path d="M233.761 230.637c-16.21-8.534-30.815 11.575-21.743 20.726 12.017 8.204 30.015.453 29.814-13.4-1.401-3.606-4.615-5.994-8.071-7.326z" fill="url(#v)"/><path d="M246.117 327.122c32.406-3.488 10.825-42.992-13.845-30.745-20.082 3.644-1.592 14.059 4.584 21.483l9.261 9.261z" fill="url(#w)"/><path d="M287.773 248.602c-24.834-18.686-70.627-13.264-81.45 18.771-6.283 28.44 27.487 46.352 51.97 43.149 24.484.449 53.913-24.266 40.075-49.889-2.554-4.754-6.3-8.798-10.595-12.031zm-55.76 34.964c-25.064-18.086 10.723-41.552 30.373-33.604 29.34 1.399 25.002 40.357-2.867 39.142-9.403 1.138-19.447-.339-27.506-5.539z" fill="url(#x)"/><path d="M225.302 292.011c21.083 15.365 61.5 10.622 68.303-17.827 1.476-25.421-30.623-36.09-51.357-30.756-20.168 1.702-38.966 27.072-22.088 44.008l2.387 2.36zm50.024-36.974c25.064 18.086-10.723 41.552-30.373 33.604-29.34-1.399-25.002-40.357 2.867-39.143 9.403-1.138 19.448.339 27.506 5.539z" fill="url(#y)"/><path d="M76.093 278.646c-28.142-3.026-21.571 35.85 4.01 28.058 23.687-2.237 18.028-29.902-4.01-28.058zm0 20.189c-31.999-15.097 31.351-14.541 0 0z" fill="url(#AA)"/><path d="M176.946 251.023c-28.142-3.026-21.571 35.85 4.01 28.058 23.687-2.237 18.028-29.902-4.01-28.058zm0 20.188c-31.999-15.096 31.351-14.542 0 0z" fill="url(#AB)"/><path d="M305.384 179.706c-28.142-3.026-21.571 35.85 4.01 28.058 23.687-2.237 18.028-29.902-4.01-28.058zm0 20.189c-31.999-15.097 31.351-14.542 0 0z" fill="url(#AC)"/><path d="M36.727 388.757c-28.142-3.026-21.571 35.85 4.01 28.058 23.687-2.237 18.028-29.902-4.01-28.058zm0 20.188c-31.999-15.097 31.351-14.542 0 0z" fill="url(#AD)"/><use xlink:href="#AO" x="-179.291" y="-25.528" fill="url(#r)"/><use xlink:href="#AP" x="-179.291" y="-25.528" fill="url(#AE)"/><use xlink:href="#AQ" x="-179.291" y="-25.528" fill="url(#AF)"/><use xlink:href="#AR" x="-179.291" y="-25.528" fill="url(#AG)"/><path d="M300.412 137.921c-16.21-8.534-30.815 11.575-21.743 20.726 12.018 8.204 30.016.453 29.814-13.401-1.401-3.606-4.615-5.994-8.07-7.325z" fill="url(#AH)"/><path d="M214.791 104.324c53.868 21.399 103.07 54.163 146.333 92.466 30.356 28.419 54.189 62.707 80.66 94.51 23.217 18.781 67.623 4.996 67.828-27.604 5.155-26.591-15.799-46.342-31.419-64.594C418.576 134.44 346.028 80.925 265.439 45.425c-21.352-11.894-55.282-19.063-67.44 8.67-9.221 17.545-2.787 43 16.792 50.229z" fill="url(#AI)"/><defs ><path id="AK" d="M240.503 205.34c-2.91 21.77-43.014 21.77-45.922 0 1.982-21.653 43.995-21.54 45.922 0z"/><path id="AL" d="M218.773 195.563c-.084 6.624-10.664 2.725-6.475-2.364 2.04-2.628 6.605-.962 6.475 2.364z"/><path id="AM" d="M211.189 205.05c-.227 5.703-9.011 1.433-4.696-2.269 1.801-1.524 4.769-.096 4.696 2.269z"/><path id="AN" d="M222.663 207.48c-2.222 5.572-5.568-4.072-.378-1.085a1.75 1.75 0 0 1 .378 1.085z"/><path id="AO" d="M368.397 242.464c-2.69 27.442-38.151 35.434-60.573 28.292-22.025-3.135-37.342-33.283-16.367-48.081 22.244-17.855 65.523-14.818 76.306 14.568l.525 3.048z"/><path id="AP" d="M327.138 223.902c.403 9.455-15.239 8.659-13.895-.695.82-8.641 13.905-8.028 13.895.695z"/><path id="AQ" d="M312.739 241.914c.235 8.239-13.406 6.144-10.752-1.625 1.678-5.949 10.892-4.565 10.752 1.625z"/><path id="AR" d="M334.524 246.528c-.26 6.528-10.315 1.64-5.376-2.597 2.061-1.744 5.459-.11 5.376 2.597z"/></defs></svg>