<?xml version="1.0" encoding="UTF-8"?>
<svg enable-background="new 0 0 512 512" version="1.1" viewBox="0 0 512 512" xml:space="preserve" xmlns="http://www.w3.org/2000/svg">
<path d="m337.35 75.844c-11.209 2.835-21.805-5.103-14.127-16.974 1.666-2.587 4.454-4.194 5.268-7.383 4.182-16.312-13.655-21.096-25.301-14.966-10.407 5.469-16.466 16.312-19.773 26.896-7.678 24.64-0.803 53.65 8.811 78.361-9.71-2.162-21.687-3.626-36.322-3.626-13.667 0-25.018 1.275-34.362 3.201 1.43-24.026 5.717-48.264 13.135-70.978 7.678-23.554 19.915-48.3 41.649-61.801 28.301-17.577 66.903-7.501 79.258 24.451 6.982 18.061 2.233 37.657-18.236 42.819z" fill="#9AD14B"/>
<path d="m358.66 50.509c-10.556-26.648-42.894-35.008-66.635-20.257-18.308 11.37-28.617 32.215-35.091 52.058-5.937 18.174-9.484 37.513-10.855 56.749-9.36 0.464-17.473 1.536-24.452 2.979 1.423-24.029 5.711-48.265 13.133-70.985 7.68-23.545 19.916-48.296 41.646-61.8 28.297-17.577 66.903-7.495 79.263 24.452 2.165 5.62 3.207 11.382 2.991 16.804z" fill="#90BC42"/>
<path d="m473.62 208.55c-4.694-6.562-9.894-12.72-15.605-18.388-8.988-8.92-19.003-16.808-29.874-23.107-30.755-17.819-66.247-20.324-99.278-7.625 0 0-17.168-21.284-72.963-21.284s-72.963 21.284-72.963 21.284c-91.123-35.033-164 49.152-175.78 136.51-3.826 28.358-1.452 57.345 7.013 84.603 8.37 26.954 22.312 52.512 41.086 73.162 74.035 81.432 131.98 43.492 131.98 43.492 12.439 12.516 64.932 14.667 68.482 14.799 0.13 5e-3 0.248 5e-3 0.378 0 3.549-0.132 56.044-2.284 68.482-14.799 0 0 57.941 37.941 131.98-43.493 59.584-60.238 66.884-175.5 17.073-245.15z" fill="#F48B2C"/>
<path d="m259.3 327.92c-1.942-1.696-4.827-1.696-6.769 0-8.971 7.832-31.866 29.917-19.686 41.748 2.842 2.761 7.099 4.213 11.451 4.213h23.238c4.354 0 8.609-1.452 11.451-4.213 12.181-11.831-10.714-33.915-19.685-41.748z" fill="#F95428"/>
<path d="m281.42 366.33c-0.556 1.174-1.36 2.298-2.432 3.338-2.844 2.761-7.099 4.214-11.456 4.214h-23.233c-4.358 0-8.613-1.453-11.456-4.214-12.178-11.827 10.715-33.917 19.688-41.746 1.947-1.69 4.832-1.69 6.769 0 0.525 0.463 1.102 0.968 1.711 1.525-9.396 10.025-19.101 24.067-10.241 32.67 2.844 2.761 7.099 4.214 11.456 4.214h19.194z" fill="#E53B1A"/>
<path d="m182.71 499.58c-14.969 6.866-65.594 22.163-127.46-45.873-18.772-20.649-32.719-46.213-41.09-73.16-8.463-27.266-10.834-56.254-7.01-84.613 11.669-86.5 83.222-169.88 173.1-137.51-49.244 23.185-83.923 80.717-91.87 139.63-3.979 29.483-1.505 59.615 7.289 87.954 8.7 28.018 23.195 54.584 42.709 76.057 15.586 17.141 30.482 29.192 44.326 37.511z" fill="#E07A27"/>
<path d="m194.91 276.37-78.732-34.236c-3.124-1.359-6.679 0.63-7.157 4.005-2.197 15.55-3.388 54.575 35.463 72.149 0 0 40.838 20.669 53.398-36.053 0.535-2.417-0.703-4.879-2.972-5.865z" fill="#F95428"/>
<path d="m183.2 312.86c-16.679 16.576-38.719 5.422-38.719 5.422-38.849-17.57-37.662-56.592-35.466-72.144 0.476-3.374 4.032-5.364 7.158-4.003l8.073 3.513c-0.938 18.298 2.979 49.059 36.234 64.1 0-1e-3 10.639 5.38 22.72 3.112z" fill="#E53B1A"/>
<path d="m317.09 276.37 78.732-34.236c3.124-1.359 6.679 0.63 7.157 4.005 2.197 15.55 3.388 54.575-35.463 72.149 0 0-40.838 20.669-53.398-36.053-0.535-2.417 0.703-4.879 2.972-5.865z" fill="#F95428"/>
<path d="m328.8 312.86c16.679 16.576 38.719 5.422 38.719 5.422 38.849-17.57 37.662-56.592 35.466-72.144-0.476-3.374-4.033-5.364-7.158-4.003l-8.073 3.513c0.938 18.298-2.979 49.059-36.234 64.1 0-1e-3 -10.639 5.38-22.72 3.112z" fill="#E53B1A"/>
<path d="m345.49 416.84-33.345-9.632c-0.75-0.217-1.556-0.141-2.253 0.211l-18.246 9.218c-0.706 0.357-1.522 0.429-2.28 0.203l-32.484-9.706c-0.577-0.173-1.193-0.173-1.771 0l-32.484 9.706c-0.758 0.226-1.574 0.154-2.28-0.203l-18.246-9.218c-0.697-0.352-1.503-0.428-2.253-0.211l-33.345 9.632c-0.783 0.226-1.625 0.134-2.341-0.257l-26.253-14.339c-2.797-1.528-5.797 1.664-4.1 4.361l30.874 49.068c0.754 1.199 2.228 1.733 3.575 1.293l27.78-9.043c0.995-0.324 2.087-0.122 2.901 0.535l21.352 17.255c0.73 0.59 1.689 0.816 2.605 0.616l32.438-7.098c0.435-0.095 0.886-0.095 1.323 0l32.438 7.098c0.916 0.201 1.875-0.026 2.605-0.616l21.352-17.255c0.814-0.658 1.906-0.859 2.901-0.535l27.78 9.043c1.348 0.438 2.82-0.094 3.574-1.293l30.874-49.068c1.698-2.698-1.302-5.889-4.099-4.361l-26.253 14.339c-0.715 0.391-1.556 0.483-2.339 0.257z" fill="#F95428"/>
<path d="m294.96 459.88 5.443-1.196-8.69 7.031c-0.732 0.587-1.691 0.814-2.608 0.618l-32.441-7.103c-0.433-0.093-0.886-0.093-1.32 0l-32.441 7.103c-0.917 0.196-1.876-0.031-2.608-0.618l-21.349-17.256c-0.814-0.659-1.907-0.855-2.897-0.536l-27.782 9.04c-1.351 0.443-2.825-0.093-3.577-1.288l-30.875-49.071c-1.691-2.701 1.309-5.886 4.103-4.361l26.256 14.339c0.711 0.391 1.557 0.484 2.34 0.258l33.338-9.639c0.134-0.041 0.278-0.072 0.412-0.093l25.194 40.049c0.907 1.434 2.66 2.062 4.268 1.547l33.162-10.803c1.196-0.381 2.495-0.144 3.464 0.639l25.493 20.597c0.878 0.712 2.012 0.98 3.115 0.743z" fill="#E53B1A"/>
</svg>