<svg height="512" viewBox="0 0 64 64" width="512" xmlns="http://www.w3.org/2000/svg"><g id="_6-christmas_ball" data-name="6-christmas ball"><path d="m35 7h-6a1 1 0 0 1 -1-1c0-3.131 1.5-5 4-5s4 1.869 4 5a1 1 0 0 1 -1 1zm-4.933-2h3.866c-.3-2-1.5-2-1.933-2s-1.636 0-1.933 2z" fill="#ebd23f"/><circle cx="32" cy="39" fill="#ffd2a6" r="24"/><path d="m27 8h10v10h-10z" fill="#d95952"/><path d="m32 30a46.634 46.634 0 0 0 19.978-4.3 24 24 0 0 0 -39.956 0 46.634 46.634 0 0 0 19.978 4.3z" fill="#e36861"/><path d="m49 22.057c1.76 8.403 3.31 20.667-2 22.943-7 3-10 0-15 0s-8 3-15 0c-5.31-2.276-3.76-14.54-2-22.943a24 24 0 1 0 33.994 0z" fill="#f6f0e5"/><path d="m32 30a46.634 46.634 0 0 0 19.978-4.3 24.05 24.05 0 0 0 -4.14-4.726 41.71 41.71 0 0 1 -15.838 3.026 41.71 41.71 0 0 1 -15.838-3.024 24.05 24.05 0 0 0 -4.14 4.726 46.634 46.634 0 0 0 19.978 4.298z" fill="#e0f2f3"/><ellipse cx="23" cy="37" fill="#5e5e5e" rx="2" ry="4"/><ellipse cx="41" cy="37" fill="#5e5e5e" rx="2" ry="4"/><circle cx="32" cy="45" fill="#ebc199" r="5"/><path d="m34 9-2 2-2-2v-4h4z" fill="#fcea81"/><path d="m38 9-2 2-2-2v-4h3a1 1 0 0 1 1 1z" fill="#e0c62b"/><path d="m30 9-2 2-2-2v-3a1 1 0 0 1 1-1h3z" fill="#e0c62b"/><g fill="#f6f0e5"><path d="m48.964 29a1.049 1.049 0 0 1 -.866-.448 21.193 21.193 0 0 0 -3.747-3.8.975.975 0 0 1 -.091-1.412 1.064 1.064 0 0 1 1.463-.088 22.813 22.813 0 0 1 4.105 4.2.978.978 0 0 1 -.293 1.386 1.063 1.063 0 0 1 -.571.162z"/><path d="m42 21h2v2h-2z"/></g></g></svg>