<svg xmlns="http://www.w3.org/2000/svg" width="645.333" height="192" viewBox="0 0 484 144"  xmlns:v="https://vecta.io/nano"><path d="M467.688 144H17.258C7.898 144 0 136.305 0 126.949V17.309C0 7.953 7.898 0 17.258 0h450.43C477.039 0 484 7.953 484 17.309v109.641c0 9.355-7.195 17.051-16.551 17.051h.238" fill="rgb(69.398499%,70.199585%,71.398926%)"/><path d="M481.453 126.953a13.75 13.75 0 0 1-13.762 13.75H17.258c-7.605 0-13.781-6.152-13.781-13.75V17.309a13.79 13.79 0 0 1 13.781-13.77h450.43c7.613 0 13.762 6.176 13.762 13.77l.004 109.645" fill="rgb(0%,0%,0%)"/><g fill="rgb(100%,100%,100%)"><path d="M108.441 71.367c-.105-11.57 9.473-17.199 9.91-17.461-5.422-7.91-13.832-8.992-16.785-9.078-7.062-.738-13.91 4.227-17.508 4.227-3.668 0-9.211-4.152-15.176-4.027-7.684.117-14.871 4.566-18.812 11.473-8.137 14.082-2.066 34.777 5.723 46.16 3.898 5.574 8.453 11.801 14.418 11.582 5.832-.242 8.012-3.719 15.055-3.719 6.973 0 9.02 3.719 15.102 3.578 6.262-.102 10.203-5.598 13.965-11.227 4.504-6.391 6.313-12.684 6.387-13.008-.145-.047-12.16-4.629-12.277-18.5m-11.49-34.023c3.137-3.926 5.281-9.262 4.688-14.684-4.543.203-10.223 3.141-13.492 6.984-2.891 3.379-5.477 8.922-4.809 14.137 5.102.379 10.336-2.574 13.613-6.437m81.949 56.179l-4.039-12.477c-.426-1.273-1.23-4.273-2.41-9h-.145l-2.266 9-3.969 12.477zm13.965 19.918h-8.152l-4.465-14.035h-15.523l-4.254 14.035h-7.937l15.379-47.773h9.5l15.453 47.773m31.753-17.367c0-3.352-.758-6.117-2.27-8.293-1.656-2.266-3.875-3.402-6.664-3.402-1.887 0-3.602.633-5.137 1.879-1.535 1.254-2.539 2.895-3.012 4.93-.238.945-.355 1.723-.355 2.336v5.742c0 2.504.77 4.621 2.305 6.344s3.531 2.59 5.988 2.59c2.883 0 5.129-1.113 6.734-3.332s2.41-5.152 2.41-8.793zm7.797-.281c0 5.859-1.582 10.488-4.75 13.891-2.836 3.027-6.355 4.539-10.562 4.539-4.535 0-7.797-1.633-9.781-4.891h-.141v18.145h-7.656V90.336a235.04 235.04 0 0 0-.281-11.344h6.73l.426 5.461h.145c2.551-4.113 6.426-6.168 11.625-6.168 4.063 0 7.453 1.605 10.172 4.816 2.715 3.219 4.074 7.449 4.074 12.691m31.823.282c0-3.352-.758-6.117-2.27-8.293-1.656-2.266-3.871-3.402-6.664-3.402-1.891 0-3.602.633-5.137 1.879-1.535 1.254-2.539 2.895-3.012 4.93-.234.945-.352 1.723-.352 2.336v5.742c0 2.504.766 4.621 2.297 6.344s3.535 2.59 5.996 2.59c2.879 0 5.125-1.113 6.73-3.332s2.41-5.152 2.41-8.793zm7.797-.281c0 5.859-1.586 10.488-4.754 13.891-2.832 3.027-6.352 4.539-10.559 4.539-4.535 0-7.797-1.633-9.781-4.891h-.137v18.145h-7.656V90.336c0-3.684-.098-7.465-.285-11.344h6.734l.426 5.461h.141c2.551-4.113 6.422-6.168 11.625-6.168 4.059 0 7.453 1.605 10.172 4.816 2.715 3.219 4.074 7.449 4.074 12.691m44.301 4.255c0 4.063-1.41 7.367-4.242 9.922-3.113 2.789-7.445 4.184-13.012 4.184-5.141 0-9.266-.996-12.387-2.98l1.777-6.379c3.359 2.035 7.047 3.051 11.063 3.051 2.883 0 5.125-.652 6.738-1.953 1.605-1.301 2.406-3.043 2.406-5.219 0-1.941-.66-3.574-1.984-4.898s-3.52-2.555-6.59-3.695c-8.367-3.121-12.547-7.687-12.547-13.699 0-3.93 1.465-7.148 4.398-9.656 2.922-2.508 6.82-3.766 11.695-3.766 4.348 0 7.957.758 10.84 2.27l-1.914 6.238c-2.691-1.465-5.734-2.199-9.145-2.199-2.691 0-4.797.664-6.301 1.988-1.277 1.18-1.914 2.621-1.914 4.324 0 1.891.727 3.449 2.191 4.676 1.277 1.137 3.59 2.363 6.949 3.688 4.109 1.656 7.133 3.59 9.074 5.809 1.934 2.223 2.902 4.992 2.902 8.297m25.308-15.316h-8.434v16.73c0 4.25 1.484 6.379 4.465 6.379 1.367 0 2.504-.121 3.402-.355l.207 5.813c-1.504.566-3.488.852-5.949.852-3.023 0-5.387-.926-7.09-2.766-1.695-1.844-2.555-4.937-2.555-9.285V84.734h-5.027v-5.742h5.027v-6.309l7.52-2.266v8.574h8.434v5.742m30.121 11.451c0-3.176-.68-5.902-2.051-8.176-1.609-2.75-3.902-4.121-6.875-4.121-3.078 0-5.41 1.371-7.02 4.121-1.371 2.273-2.051 5.043-2.051 8.32 0 3.176.68 5.898 2.051 8.172 1.656 2.746 3.969 4.121 6.949 4.121 2.926 0 5.219-1.398 6.871-4.191 1.418-2.32 2.125-5.074 2.125-8.246zm7.945-.25c0 5.293-1.516 9.641-4.535 13.043-3.172 3.5-7.379 5.246-12.621 5.246-5.059 0-9.082-1.68-12.082-5.031s-4.5-7.59-4.5-12.687c0-5.34 1.543-9.715 4.641-13.113 3.09-3.406 7.266-5.105 12.508-5.105 5.055 0 9.121 1.676 12.195 5.035 2.93 3.262 4.395 7.465 4.395 12.613"/><path d="M404.59 85.727c-.758-.141-1.566-.211-2.414-.211-2.691 0-4.773 1.016-6.238 3.051-1.277 1.793-1.914 4.063-1.914 6.801v18.074h-7.652l.07-23.602c0-3.973-.098-7.586-.285-10.848h6.668l.277 6.594h.211c.809-2.266 2.082-4.09 3.828-5.457 1.707-1.23 3.551-1.844 5.535-1.844.707 0 1.344.051 1.914.141v7.301m26.93 6.875c.051-2.266-.449-4.227-1.484-5.883-1.328-2.125-3.359-3.187-6.102-3.187-2.504 0-4.535 1.035-6.094 3.121-1.277 1.652-2.031 3.637-2.266 5.949zm7.301 1.988c0 1.367-.094 2.527-.281 3.469h-22.965c.094 3.406 1.199 6.004 3.332 7.801 1.934 1.605 4.438 2.41 7.508 2.41 3.402 0 6.5-.547 9.293-1.633l1.199 5.316c-3.262 1.418-7.109 2.129-11.551 2.129-5.34 0-9.535-1.57-12.586-4.719-3.043-3.141-4.57-7.355-4.57-12.652 0-5.195 1.418-9.52 4.254-12.969 2.977-3.687 6.992-5.527 12.051-5.527 4.961 0 8.719 1.84 11.273 5.527 2.023 2.93 3.043 6.547 3.043 10.848M172.402 36.383c0-2.742-.727-4.844-2.176-6.305s-3.57-2.195-6.355-2.195c-1.187 0-2.195.082-3.031.246V45.68c.465.07 1.313.102 2.543.102 2.879 0 5.102-.801 6.668-2.402s2.352-3.934 2.352-6.996zm3.969-.105c0 4.227-1.266 7.406-3.797 9.543-2.344 1.969-5.676 2.957-9.992 2.957-2.137 0-3.973-.094-5.504-.277V25.41c2-.324 4.156-.484 6.48-.484 4.105 0 7.207.891 9.297 2.68 2.34 2.02 3.516 4.91 3.516 8.672M193.5 40.09c0-1.559-.336-2.898-1.008-4.016-.789-1.352-1.914-2.027-3.379-2.027-1.508 0-2.66.676-3.449 2.027-.672 1.117-1.008 2.48-1.008 4.082 0 1.563.336 2.902 1.008 4.02.816 1.352 1.949 2.023 3.414 2.023 1.438 0 2.566-.687 3.379-2.059.695-1.141 1.043-2.492 1.043-4.051zm3.902-.121c0 2.598-.742 4.734-2.23 6.406-1.555 1.719-3.621 2.578-6.195 2.578-2.488 0-4.465-.824-5.941-2.473s-2.207-3.727-2.207-6.234c0-2.625.758-4.77 2.277-6.441s3.57-2.508 6.148-2.508c2.484 0 4.477.824 5.988 2.473 1.438 1.602 2.16 3.668 2.16 6.199"/><path d="M225.605 31.645l-5.293 16.926h-3.445l-2.195-7.352a54.17 54.17 0 0 1-1.359-5.465h-.066c-.324 1.855-.777 3.68-1.359 5.465l-2.332 7.352h-3.484l-4.98-16.926h3.867l1.914 8.043 1.152 5.434h.066c.277-1.414.742-3.215 1.395-5.398l2.402-8.078h3.063l2.301 7.906 1.355 5.57h.105c.258-1.742.637-3.598 1.148-5.57l2.055-7.906h3.691m19.503 16.924h-3.762v-9.691c0-2.988-1.137-4.484-3.41-4.484a3.4 3.4 0 0 0-2.719 1.234c-.691.82-1.043 1.789-1.043 2.902V48.57h-3.762V36.484l-.137-4.84h3.305l.176 2.645h.105c.438-.82 1.09-1.504 1.949-2.043 1.02-.633 2.16-.949 3.41-.949 1.582 0 2.895.512 3.938 1.531 1.301 1.254 1.949 3.125 1.949 5.605V48.57m10.376 0h-3.758V23.879h3.758V48.57m18.246-8.48c0-1.559-.336-2.898-1.012-4.016-.785-1.352-1.914-2.027-3.371-2.027-1.516 0-2.664.676-3.449 2.027-.672 1.117-1.012 2.48-1.012 4.082 0 1.563.34 2.902 1.012 4.02.813 1.352 1.949 2.023 3.414 2.023 1.438 0 2.559-.687 3.371-2.059.703-1.141 1.047-2.492 1.047-4.051zm3.906-.121c0 2.598-.746 4.734-2.23 6.406-1.559 1.719-3.625 2.578-6.199 2.578-2.488 0-4.465-.824-5.937-2.473s-2.211-3.727-2.211-6.234c0-2.625.758-4.77 2.281-6.441s3.566-2.508 6.141-2.508c2.488 0 4.48.824 5.996 2.473 1.438 1.602 2.16 3.668 2.16 6.199m14.301 2.785v-2.613c-4.148-.07-6.223 1.07-6.223 3.414 0 .883.234 1.543.719 1.984s1.102.66 1.84.66c.828 0 1.598-.258 2.297-.781.711-.523 1.145-1.191 1.305-2.004a2.96 2.96 0 0 0 .063-.66zm3.906 5.816h-3.379l-.281-1.953h-.105c-1.156 1.559-2.805 2.336-4.941 2.336-1.598 0-2.891-.512-3.863-1.535-.883-.926-1.324-2.074-1.324-3.445 0-2.066.859-3.645 2.594-4.738s4.164-1.625 7.297-1.602v-.312c0-2.227-1.168-3.344-3.512-3.344-1.668 0-3.141.418-4.41 1.254l-.766-2.473c1.57-.973 3.512-1.461 5.809-1.461 4.422 0 6.637 2.332 6.637 7v6.234c0 1.691.086 3.039.246 4.039m17.478-7.14v-2.82c0-.488-.035-.883-.105-1.184a4.27 4.27 0 0 0-1.359-2.281c-.703-.613-1.543-.922-2.516-.922-1.402 0-2.504.555-3.312 1.672-.797 1.113-1.207 2.539-1.207 4.281 0 1.672.387 3.031 1.16 4.074a3.87 3.87 0 0 0 3.289 1.672c1.234 0 2.223-.465 2.973-1.391.723-.859 1.078-1.895 1.078-3.102zm3.898 7.141h-3.336l-.176-2.719h-.105c-1.066 2.066-2.883 3.102-5.434 3.102-2.039 0-3.738-.801-5.082-2.402s-2.023-3.68-2.023-6.234c0-2.742.73-4.957 2.195-6.652 1.418-1.578 3.156-2.367 5.227-2.367 2.27 0 3.863.766 4.766 2.297h.07v-9.715h3.766V44.01l.133 4.563M345.5 40.09c0-1.559-.336-2.898-1.008-4.016-.793-1.352-1.914-2.027-3.379-2.027-1.508 0-2.66.676-3.453 2.027-.672 1.117-1.008 2.48-1.008 4.082 0 1.563.336 2.902 1.008 4.02.816 1.352 1.949 2.023 3.418 2.023 1.438 0 2.566-.687 3.379-2.059.695-1.141 1.043-2.492 1.043-4.051zm3.898-.121c0 2.598-.742 4.734-2.227 6.406-1.559 1.719-3.621 2.578-6.199 2.578-2.484 0-4.461-.824-5.941-2.473-1.473-1.648-2.207-3.727-2.207-6.234 0-2.625.758-4.77 2.277-6.441s3.57-2.508 6.152-2.508c2.48 0 4.48.824 5.984 2.473 1.438 1.602 2.16 3.668 2.16 6.199m20.232 8.601h-3.758v-9.691c0-2.988-1.137-4.484-3.418-4.484-1.113 0-2.016.414-2.711 1.234a4.35 4.35 0 0 0-1.047 2.902V48.57h-3.762V36.484l-.133-4.84h3.301l.176 2.645h.105c.441-.82 1.094-1.504 1.949-2.043 1.023-.633 2.156-.949 3.414-.949 1.578 0 2.887.512 3.934 1.531 1.305 1.254 1.949 3.125 1.949 5.605V48.57m25.317-14.105h-4.141v8.219c0 2.09.734 3.137 2.191 3.137.676 0 1.234-.059 1.68-.176l.098 2.855c-.746.277-1.719.418-2.926.418-1.484 0-2.645-.453-3.477-1.359-.844-.906-1.258-2.426-1.258-4.562v-8.531h-2.473v-2.82h2.473v-3.098l3.691-1.113v4.211h4.141v2.82m19.923 14.104h-3.766v-9.625c0-3.035-1.137-4.551-3.406-4.551-1.746 0-2.937.883-3.59 2.641-.113.371-.176.824-.176 1.355v10.18h-3.758V23.879h3.758v10.199h.07c1.184-1.852 2.883-2.781 5.082-2.781 1.559 0 2.848.512 3.871 1.531 1.277 1.277 1.914 3.168 1.914 5.676V48.57m16.954-10.238c.027-1.113-.215-2.078-.727-2.891-.652-1.047-1.648-1.566-2.996-1.566-1.227 0-2.23.508-2.992 1.531-.625.813-.996 1.789-1.117 2.926zm3.59.973c0 .676-.047 1.242-.141 1.707h-11.281c.051 1.672.59 2.949 1.633 3.832.957.789 2.191 1.184 3.699 1.184 1.668 0 3.188-.266 4.563-.801l.59 2.613c-1.605.695-3.492 1.043-5.68 1.043-2.621 0-4.684-.773-6.18-2.316s-2.242-3.617-2.242-6.215c0-2.555.695-4.68 2.09-6.375 1.461-1.809 3.43-2.715 5.918-2.715 2.434 0 4.285.906 5.531 2.715 1.004 1.441 1.5 3.219 1.5 5.328"/></g></svg>