<svg xmlns="http://www.w3.org/2000/svg" viewBox="0 0 512 512"  xmlns:v="https://vecta.io/nano"><path d="M464.14 110.61H260.466a7.5 7.5 0 0 0-7.5 7.5v174.922a7.5 7.5 0 0 0 7.5 7.5H464.14a7.5 7.5 0 0 0 7.5-7.5V118.11a7.5 7.5 0 0 0-7.5-7.5zm-7.5 174.922H267.966V125.61H456.64v159.922zm-94.336-147.344c-37.155 0-67.383 30.228-67.383 67.383s30.228 67.383 67.383 67.383 67.383-30.228 67.383-67.383-30.229-67.383-67.383-67.383zm0 119.767c-28.884 0-52.383-23.499-52.383-52.383s23.499-52.383 52.383-52.383 52.383 23.499 52.383 52.383-23.499 52.383-52.383 52.383zm0-80.024c-15.241 0-27.64 12.399-27.64 27.64s12.399 27.64 27.64 27.64 27.64-12.399 27.64-27.64-12.399-27.64-27.64-27.64zm0 40.281c-6.97 0-12.64-5.67-12.64-12.64s5.67-12.64 12.64-12.64 12.64 5.67 12.64 12.64-5.67 12.64-12.64 12.64zm-179.806-85.993H45.11a7.5 7.5 0 0 0-7.5 7.5v141.284a7.5 7.5 0 0 0 7.5 7.5h137.388a7.5 7.5 0 0 0 7.5-7.5V139.719a7.5 7.5 0 0 0-7.5-7.5zm-7.5 141.284H52.61V147.219h122.388v126.284zM74.49 162.38a7.5 7.5 0 0 0-7.5 7.5v26.696a7.5 7.5 0 1 0 15 0V169.88a7.5 7.5 0 0 0-7.5-7.5zm0 54.266a7.5 7.5 0 0 0-7.5 7.5v26.696a7.5 7.5 0 1 0 15 0v-26.696a7.5 7.5 0 0 0-7.5-7.5zm39.314 89.324c-24.959 0-45.265 20.306-45.265 45.265S88.845 396.5 113.804 396.5s45.265-20.306 45.265-45.265-20.306-45.265-45.265-45.265zm0 75.53c-16.688 0-30.265-13.577-30.265-30.265s13.577-30.265 30.265-30.265 30.265 13.577 30.265 30.265-13.577 30.265-30.265 30.265zm318.688-10.218H326.315a7.5 7.5 0 1 0 0 15h106.177a7.5 7.5 0 1 0 0-15zm42.591-301.031H314.12a7.5 7.5 0 1 0 0 15h160.963c12.085 0 21.917 9.832 21.917 21.917v196.806c0 12.085-9.832 21.917-21.917 21.917H249.524c-12.085 0-21.917-9.832-21.917-21.917V107.168c0-12.085 9.832-21.917 21.917-21.917h34.596a7.5 7.5 0 1 0 0-15h-34.596c-17.787 0-32.675 12.645-36.15 29.417h-53.699v-9.802c0-15.105-12.289-27.395-27.395-27.395H85.703c-15.105 0-27.395 12.289-27.395 27.395v9.802h-24.83C15.018 99.668 0 114.687 0 133.146v282.905c0 18.459 15.018 33.478 33.478 33.478l415.627-.001c18.459 0 33.478-15.018 33.478-33.478v-75.927C499.355 336.648 512 321.76 512 303.973V107.168c0-20.356-16.561-36.917-36.917-36.917zM73.309 89.866c0-6.834 5.56-12.395 12.395-12.395h46.578c6.834 0 12.395 5.56 12.395 12.395v9.802H73.309v-9.802zM467.584 416.05c0 10.188-8.289 18.478-18.478 18.478H33.478c-10.189 0-18.478-8.289-18.478-18.477V133.146c0-10.188 8.289-18.478 18.478-18.478h179.13v189.306c0 1.272.065 2.53.191 3.769a36.63 36.63 0 0 0 2.053 8.911c.208.565.428 1.124.662 1.676 3.741 8.831 10.825 15.915 19.655 19.656 1.104.468 2.235.883 3.39 1.243s2.335.665 3.535.911c2.401.493 4.886.751 7.431.751h218.059v75.159z"/></svg>