<svg xmlns="http://www.w3.org/2000/svg" xmlns:xlink="http://www.w3.org/1999/xlink" width="650.521" height="262.065" viewBox="0 0 172.117 69.338"><defs><linearGradient id="A" gradientUnits="userSpaceOnUse"><stop offset="0" stop-color="#ff3375"/><stop offset="1" stop-color="#ff3375" stop-opacity="0"/></linearGradient><linearGradient xlink:href="#A" id="B" x1="68.563" y1="103.851" x2="68.563" y2="131.972"/><linearGradient xlink:href="#A" id="C" x1="68.572" y1="93.801" x2="68.563" y2="119.927"/><path id="D" d="M68.572 93.8c-5.56.018-12.91 5.333-13.07 10.317.003 5.27 3.01 10.78 5.754 15.81l-5.622 33.27h25.86l-5.62-33.262c2.302-3.835 5.885-10.578 5.886-15.85-.945-6.84-8.6-10.232-13.186-10.284z"/></defs><path d="M0 39.655h9.658v11.18q0 1.665 1.985 1.665 1.918 0 1.918-1.665v-5.777q0-2.65-3.5-6.22-6.764-6.626-8.413-8.903Q0 27.66 0 24.94v-5.47Q0 10 12.25 10q10.97 0 10.97 8.63v8.427h-9.658v-8.97q0-1.46-1.582-1.46-1.85 0-1.85 2.82l.202 3.16q0 2.72 3.567 6.32 6.63 6.423 8.413 8.97 1.817 2.55 1.817 5.777v6.22q0 9.72-12.283 9.72Q0 59.602 0 50.767zm35.84 18.588v11.095h-9.557V19.725h7.235l.808 1.597c1.57-1.246 3.433-1.575 5.586-1.575 2.176 0 4.184.555 6.024 1.665 1.862 1.1 2.793 2.707 2.793 4.8v28.03c0 1.654-.673 2.98-2.02 3.976S43.726 59.6 41.796 59.6c-2.67 0-4.655-.384-5.956-1.358zm3.332-6.457V27.664c0-1.2-.55-1.8-1.65-1.8-1.122 0-1.683.6-1.683 1.8v24.2c0 1.155.56 1.733 1.683 1.733 1.1 0 1.65-.6 1.65-1.8zm21.066 7.816h-9.6V19.708l9.6.017zm24.734-17.16h-12.9v9.2c0 1.337.56 2.005 1.683 2.005 1.1 0 1.65-.668 1.65-2.005V43.7h9.557v8.02c0 5.324-3.758 7.9-11.273 7.9-7.448 0-11.173-2.68-11.173-8.23V27.762c0-5.55 3.724-8.326 11.173-8.326 7.516 0 11.273 2.662 11.273 7.986zm-9.557-5.913V27.5c0-1.3-.55-1.937-1.65-1.937-1.122 0-1.683.646-1.683 1.937v9.04zm34.157 23.073h-7.235l-.808-1.767c-1.638 1.246-3.5 1.77-5.586 1.77-2.445 0-4.532-.48-6.26-1.635-1.705-1.155-2.558-2.73-2.558-4.723v-28.34c0-1.676.673-3.002 2.02-3.976 1.37-.997 3.017-1.18 4.947-1.18 2.647 0 4.622.173 5.923 1.147V10h9.557zm-9.557-7.816v-24.5c0-1.155-.55-1.733-1.65-1.733-1.122 0-1.683.6-1.683 1.8v24.433c0 1.2.56 1.8 1.683 1.8 1.1 0 1.65-.6 1.65-1.8z" stroke-opacity=".24" fill="#fff" stroke="#000"/><g fill="#ff3375"><path d="M127.552 42.006l1.114 2.62c-.24.342-.464.703-.668 1.082l-.668 1.168a3.22 3.22 0 0 1-.863.883c-.353.247-.76.456-1.226.627l-1.894.797-1.616.74a5.93 5.93 0 0 1-1.755.541l-1.783.228a5.5 5.5 0 0 1-1.226.199l-1.086.057c-.28 0-.51-.02-.696-.057-.186-.02-.344-.066-.474-.142l-.5-.342-.446-.313-.724-.427c-.223-.133-.4-.513-.5-1.14-.093-.627-.14-1.538-.14-2.734 0-.835.232-2.165.696-3.987s.696-3.038.696-3.646a3.57 3.57 0 0 0-.056-.541c-.037-.247-.056-.446-.056-.598 0-.532.176-1.737.53-3.617.37-1.9.557-3.218.557-3.96 0-.36-.14-.617-.418-.77a.83.83 0 0 1-.39-.74c0-.456.037-.968.11-1.538s.204-1.196.4-1.88l.418-1.652.4-1.652.4-1.908.362-1.88c.11-.418.288-.93.53-1.538l.863-2.08c.167-.38.316-.56.446-.884l.418-1.082a2.37 2.37 0 0 1 .641-.797c.28-.247.622-.465 1.03-.655.334-.133.63-.228.89-.285.26-.076.436-.114.53-.114.5 0 .863.18 1.086.54.24.342.362.873.362 1.595a6.69 6.69 0 0 1-.056.797c-.02.285-.084.447-.195.827l-.223 1.025-1.142 6.066-.11 1.253c0 .797-.204 1.804-.613 3.02-.4 1.196-.585 2.108-.585 2.734 0 .266-.046.617-.14 1.054a18.49 18.49 0 0 1-.418 1.509l-.5 1.85-.223.797-.14.997-.195 1.34-.975 5.155c-.204 1.348-.306 2.364-.306 3.047 0 .627.065 1.11.195 1.453s.325.513.585.513c1.17 0 2.35-.133 3.537-.4 1.207-.266 2.46-.655 3.76-1.168 1.038-.422 1.855-1.254 2.48-1.994z"/><path d="M127.552 42.006c.79-1.22 1.856-2.27 2.925-3.218 1.263-1.14 2.135-2.06 2.618-2.763.186-.304.4-.522.64-.655a1.49 1.49 0 0 1 .724-.199c.65 0 1.198.17 1.643.513.446.323.743.816.89 1.48l.362 1.794.28 1.794c.13.38.288.96.474 1.737.186.76.325 1.196.418 1.3a.92.92 0 0 0 .418.427c.186.076.418.114.696.114.334 0 .678-.057 1.03-.17.353-.133.715-.35 1.086-.655l.863-.74.89-.77 1.114 2.62a12.37 12.37 0 0 1-1.17 1.054l-1.755 1.34c-.76.57-1.41.997-1.95 1.282-.54.266-.947.4-1.226.4-1.7 0-2.785-.2-3.287-.598s-1.058-1.51-1.67-3.332c-.074-.152-.186-.332-.334-.54l-.5-.74c-.223-.437-.418-.76-.585-.968-.167-.228-.306-.342-.418-.342-.297 0-.696.21-1.198.627-.5.4-1.142 1.006-1.866 1.823-.896-.75-1.367-1.12-1.114-2.62zm11.67-22.47c.464 0 .798.095 1.003.285.223.2.334.465.334.826l-.28 1.34-.5 1.68-.306.94a3.6 3.6 0 0 1-.696 1.111c-.28.304-.622.58-1.03.826-.427.304-.79.522-1.086.655-.28.114-.474.16-.585.142l-.92-.085a6.19 6.19 0 0 0-.836-.057c-.24-.133-.436-.39-.585-.77-.13-.38-.195-.892-.195-1.538 0-.57.334-1.282 1.003-2.136.687-.873 1.29-1.34 1.8-1.396L137.468 20c.186-.133.427-.237.724-.313.297-.095.64-.142 1.03-.142z"/><path d="M143.512 42.006l.724-1.025 1.114-1.71.64-1.14c.26-.494.464-1.006.613-1.538.167-.532.297-1.082.4-1.652.37-2.715 1.02-5.63 1.95-8.744s2.108-6.465 3.537-10.054c.52-1.253 1.077-2.193 1.67-2.82.594-.646 1.207-.968 1.838-.968.483 0 .873.104 1.17.313.297.2.492.503.585.94.037.17.065.465.084.883a19.08 19.08 0 0 1 .056 1.623c0 .152-.15 1.51-.446 4.073l-1.253 4.756-2.646 7.86-1.783 3.816a38.7 38.7 0 0 0-.529 1.139c-.334 1.063-.66 2.402-.975 4.016l-.836 5.725-.585 5.525-.195 4.244.11 3.22a16.76 16.76 0 0 0 .167 1.339c.074.323.167.484.28.484.26 0 .66-.59 1.198-1.766.98-2.163 2.227-7.063 2.73-9.285l1.03-3.532.418-1.453a13.14 13.14 0 0 1 1.003-2.221c.427-.722.974-1.312 1.42-2.05.688.514 1.247 1.38 1.114 2.62-.26.342-.51.778-.752 1.3-.24.513-.436 1.082-.585 1.71a21.33 21.33 0 0 0-.446 1.652l-.362 1.595c-.928 3.627-1.838 8.43-2.73 10.823-.89 2.41-1.736 4.206-2.535 5.383a5.49 5.49 0 0 1-.474.74l-.474.712c-.223.247-.455.437-.696.57a1.35 1.35 0 0 1-.742.218c-.798 0-1.45-.17-1.932-.53-.464-.36-.79-.902-.975-1.623l-.25-1.823c-.022-1.058-.315-2.006-.446-2.962a9.74 9.74 0 0 1-.084-1.339v-6.124c.02-.698.09-1.256.13-1.965-.06-2.867.185-5.107.593-7.7l-.724-.655c-.848-.51-1.112-1.72-1.114-2.62zm8.722-17.87c-.268.948-3.17 11.12-2.416 11.318 1.08.454 4.744-9.77 5.477-13.022 1.152-6.17-1.763-2.106-3.06 1.704z"/><path d="M156.993 42.006c.223-.4.51-.797.863-1.196.353-.418.798-.845 1.337-1.282l.167-1.11c.054-.74.166-1.443.362-2.08l.418-1.168.668-1.566c.997-1.906 2.74-4.528 4.317-5.61.468-.383.938-.6 1.476-.712.28-.057.585-.085.92-.085.464 0 .836.047 1.114.142a1.5 1.5 0 0 1 .724.484c.13.152.25.38.362.684.543 1.14.478 2.416.167 3.503l-.25.91c-.26.91-.845 1.965-1.755 3.16s-2.135 2.563-3.677 4.1a1.73 1.73 0 0 0-.334.513c-.093.2-.14.4-.14.627 0 .4.065.75.195 1.054.15.304.353.532.613.684.15.114.38.228.696.342 1.044.43 2.15.256 3.147-.057a8.23 8.23 0 0 0 1.588-.684 4.8 4.8 0 0 1 .446-.228c.204-.114.41-.256.613-.427l.64 1.48.446 1.14c-1.74 1.936-3.983 3.06-6.295 3.646-.37.076-.817.114-1.337.114-.687 0-1.3-.104-1.838-.313a3.42 3.42 0 0 1-1.309-.911c-.186-.2-.37-.465-.557-.826l-.585-1.34c-.167-.418-.325-.722-.474-.91-.15-.21-.316-.313-.5-.313-.15 0-.316.076-.5.228-.186.133-.4.342-.613.627-.074-.285-.204-.636-.4-1.054-.258-.57-1.125-.77-.724-1.566zm8.913-9.256c-.41 0-.956.55-1.643 1.652-.687 1.082-1.03 1.88-1.03 2.392-.001.29.154.287.362.313.873-.574 1.388-1.467 2.033-2.193.223-.266.4-.532.5-.797a2.05 2.05 0 0 0 .167-.797c0-.17-.037-.304-.11-.4-.056-.114-.15-.17-.28-.17z"/></g><g stroke-linejoin="round" transform="translate(-13.121 -93.596)"><use xlink:href="#D" opacity=".6" fill-opacity=".324" stroke="url(#C)" stroke-width=".273" paint-order="fill markers stroke"/><use xlink:href="#D" fill="none" stroke="url(#B)" stroke-width=".409" stroke-opacity=".6" paint-order="fill markers stroke"/></g><circle cx="55.442" cy="11.633" r="6.488" fill="#ff3375" paint-order="markers fill stroke"/></svg>